<?xml version="1.0" encoding="UTF-8" standalone="no"?>
<!DOCTYPE svg PUBLIC "-//W3C//DTD SVG 1.1//EN"
 "http://www.w3.org/Graphics/SVG/1.1/DTD/svg11.dtd">
<!-- Generated by graphviz version 2.47.1 (20210417.1919)
 -->
<!-- Title: G Pages: 1 -->
<svg width="3445pt" height="486pt"
 viewBox="0.00 0.00 3445.20 485.65" xmlns="http://www.w3.org/2000/svg" xmlns:xlink="http://www.w3.org/1999/xlink">
<g id="graph0" class="graph" transform="scale(1 1) rotate(0) translate(21.6 464.05)">
<title>G</title>
<polygon fill="#111111" stroke="transparent" points="-21.6,21.6 -21.6,-464.05 3423.6,-464.05 3423.6,21.6 -21.6,21.6"/>
<!-- app/app&#45;routing.module.ts -->
<g id="node1" class="node">
<title>app/app&#45;routing.module.ts</title>
<path fill="none" stroke="#c6c5fe" d="M449.83,-144C449.83,-144 283.17,-144 283.17,-144 279.33,-144 275.5,-140.17 275.5,-136.33 275.5,-136.33 275.5,-128.67 275.5,-128.67 275.5,-124.83 279.33,-121 283.17,-121 283.17,-121 449.83,-121 449.83,-121 453.67,-121 457.5,-124.83 457.5,-128.67 457.5,-128.67 457.5,-136.33 457.5,-136.33 457.5,-140.17 453.67,-144 449.83,-144"/>
<text text-anchor="middle" x="366.5" y="-128.8" font-family="Arial" font-size="14.00" fill="#c6c5fe">app/app&#45;routing.module.ts</text>
</g>
<!-- app/pages/filter/filter.component.ts -->
<g id="node2" class="node">
<title>app/pages/filter/filter.component.ts</title>
<path fill="none" stroke="#c6c5fe" d="M753.33,-262C753.33,-262 532.67,-262 532.67,-262 528.83,-262 525,-258.17 525,-254.33 525,-254.33 525,-246.67 525,-246.67 525,-242.83 528.83,-239 532.67,-239 532.67,-239 753.33,-239 753.33,-239 757.17,-239 761,-242.83 761,-246.67 761,-246.67 761,-254.33 761,-254.33 761,-258.17 757.17,-262 753.33,-262"/>
<text text-anchor="middle" x="643" y="-246.8" font-family="Arial" font-size="14.00" fill="#c6c5fe">app/pages/filter/filter.component.ts</text>
</g>
<!-- app/app&#45;routing.module.ts&#45;&gt;app/pages/filter/filter.component.ts -->
<g id="edge1" class="edge">
<title>app/app&#45;routing.module.ts&#45;&gt;app/pages/filter/filter.component.ts</title>
<path fill="none" stroke="#757575" d="M380.41,-144.24C403.03,-164.12 452.11,-204.24 501,-224.5 512.82,-229.4 525.58,-233.38 538.42,-236.61"/>
<polygon fill="#757575" stroke="#757575" points="537.7,-240.04 548.24,-238.94 539.32,-233.23 537.7,-240.04"/>
</g>
<!-- app/pages/progress&#45;filter/progress&#45;filter.component.ts -->
<g id="node3" class="node">
<title>app/pages/progress&#45;filter/progress&#45;filter.component.ts</title>
<path fill="none" stroke="#c6c5fe" d="M1539.33,-220C1539.33,-220 1195.67,-220 1195.67,-220 1191.83,-220 1188,-216.17 1188,-212.33 1188,-212.33 1188,-204.67 1188,-204.67 1188,-200.83 1191.83,-197 1195.67,-197 1195.67,-197 1539.33,-197 1539.33,-197 1543.17,-197 1547,-200.83 1547,-204.67 1547,-204.67 1547,-212.33 1547,-212.33 1547,-216.17 1543.17,-220 1539.33,-220"/>
<text text-anchor="middle" x="1367.5" y="-204.8" font-family="Arial" font-size="14.00" fill="#c6c5fe">app/pages/progress&#45;filter/progress&#45;filter.component.ts</text>
</g>
<!-- app/app&#45;routing.module.ts&#45;&gt;app/pages/progress&#45;filter/progress&#45;filter.component.ts -->
<g id="edge2" class="edge">
<title>app/app&#45;routing.module.ts&#45;&gt;app/pages/progress&#45;filter/progress&#45;filter.component.ts</title>
<path fill="none" stroke="#757575" d="M446.89,-144.02C464.68,-146.55 483.48,-149.16 501,-151.5 643.07,-170.49 678.1,-180.37 821,-191.5 939.39,-200.72 1072.61,-204.99 1177.76,-206.94"/>
<polygon fill="#757575" stroke="#757575" points="1177.78,-210.44 1187.85,-207.13 1177.91,-203.45 1177.78,-210.44"/>
</g>
<!-- app/pages/user&#45;table/user&#45;table.module.ts -->
<g id="node4" class="node">
<title>app/pages/user&#45;table/user&#45;table.module.ts</title>
<path fill="none" stroke="#c6c5fe" d="M777.33,-142C777.33,-142 508.67,-142 508.67,-142 504.83,-142 501,-138.17 501,-134.33 501,-134.33 501,-126.67 501,-126.67 501,-122.83 504.83,-119 508.67,-119 508.67,-119 777.33,-119 777.33,-119 781.17,-119 785,-122.83 785,-126.67 785,-126.67 785,-134.33 785,-134.33 785,-138.17 781.17,-142 777.33,-142"/>
<text text-anchor="middle" x="643" y="-126.8" font-family="Arial" font-size="14.00" fill="#c6c5fe">app/pages/user&#45;table/user&#45;table.module.ts</text>
</g>
<!-- app/app&#45;routing.module.ts&#45;&gt;app/pages/user&#45;table/user&#45;table.module.ts -->
<g id="edge3" class="edge">
<title>app/app&#45;routing.module.ts&#45;&gt;app/pages/user&#45;table/user&#45;table.module.ts</title>
<path fill="none" stroke="#757575" d="M457.76,-131.84C468.29,-131.77 479.24,-131.69 490.31,-131.61"/>
<polygon fill="#757575" stroke="#757575" points="490.54,-135.1 500.51,-131.53 490.48,-128.1 490.54,-135.1"/>
</g>
<!-- app/pages/welcome/welcome.module.ts -->
<g id="node5" class="node">
<title>app/pages/welcome/welcome.module.ts</title>
<path fill="none" stroke="#c6c5fe" d="M771.33,-63C771.33,-63 514.67,-63 514.67,-63 510.83,-63 507,-59.17 507,-55.33 507,-55.33 507,-47.67 507,-47.67 507,-43.83 510.83,-40 514.67,-40 514.67,-40 771.33,-40 771.33,-40 775.17,-40 779,-43.83 779,-47.67 779,-47.67 779,-55.33 779,-55.33 779,-59.17 775.17,-63 771.33,-63"/>
<text text-anchor="middle" x="643" y="-47.8" font-family="Arial" font-size="14.00" fill="#c6c5fe">app/pages/welcome/welcome.module.ts</text>
</g>
<!-- app/app&#45;routing.module.ts&#45;&gt;app/pages/welcome/welcome.module.ts -->
<g id="edge4" class="edge">
<title>app/app&#45;routing.module.ts&#45;&gt;app/pages/welcome/welcome.module.ts</title>
<path fill="none" stroke="#757575" d="M429.94,-120.95C441.65,-118.42 453.75,-115.58 465,-112.5 513.14,-99.33 567.22,-80.01 602.78,-66.66"/>
<polygon fill="#757575" stroke="#757575" points="604.19,-69.87 612.3,-63.06 601.71,-63.32 604.19,-69.87"/>
</g>
<!-- app/shared/state/users&#45;query.service.ts -->
<g id="node8" class="node">
<title>app/shared/state/users&#45;query.service.ts</title>
<path fill="none" stroke="#c6c5fe" d="M1841.33,-300C1841.33,-300 1590.67,-300 1590.67,-300 1586.83,-300 1583,-296.17 1583,-292.33 1583,-292.33 1583,-284.67 1583,-284.67 1583,-280.83 1586.83,-277 1590.67,-277 1590.67,-277 1841.33,-277 1841.33,-277 1845.17,-277 1849,-280.83 1849,-284.67 1849,-284.67 1849,-292.33 1849,-292.33 1849,-296.17 1845.17,-300 1841.33,-300"/>
<text text-anchor="middle" x="1716" y="-284.8" font-family="Arial" font-size="14.00" fill="#c6c5fe">app/shared/state/users&#45;query.service.ts</text>
</g>
<!-- app/pages/filter/filter.component.ts&#45;&gt;app/shared/state/users&#45;query.service.ts -->
<g id="edge14" class="edge">
<title>app/pages/filter/filter.component.ts&#45;&gt;app/shared/state/users&#45;query.service.ts</title>
<path fill="none" stroke="#757575" d="M761.07,-259.08C781.06,-260.36 801.62,-261.56 821,-262.5 1086.29,-275.35 1396.2,-282.63 1572.65,-286.05"/>
<polygon fill="#757575" stroke="#757575" points="1572.71,-289.56 1582.78,-286.25 1572.85,-282.56 1572.71,-289.56"/>
</g>
<!-- app/shared/state/filters.ts -->
<g id="node13" class="node">
<title>app/shared/state/filters.ts</title>
<path fill="none" stroke="#c6c5fe" d="M2097.83,-182C2097.83,-182 1937.17,-182 1937.17,-182 1933.33,-182 1929.5,-178.17 1929.5,-174.33 1929.5,-174.33 1929.5,-166.67 1929.5,-166.67 1929.5,-162.83 1933.33,-159 1937.17,-159 1937.17,-159 2097.83,-159 2097.83,-159 2101.67,-159 2105.5,-162.83 2105.5,-166.67 2105.5,-166.67 2105.5,-174.33 2105.5,-174.33 2105.5,-178.17 2101.67,-182 2097.83,-182"/>
<text text-anchor="middle" x="2017.5" y="-166.8" font-family="Arial" font-size="14.00" fill="#c6c5fe">app/shared/state/filters.ts</text>
</g>
<!-- app/pages/filter/filter.component.ts&#45;&gt;app/shared/state/filters.ts -->
<g id="edge13" class="edge">
<title>app/pages/filter/filter.component.ts&#45;&gt;app/shared/state/filters.ts</title>
<path fill="none" stroke="#757575" d="M761.2,-253.74C1044.8,-260.82 1751.93,-273.75 1849,-229.5 1870.76,-219.58 1863.91,-200.77 1885,-189.5 1895.57,-183.85 1907.27,-179.71 1919.19,-176.71"/>
<polygon fill="#757575" stroke="#757575" points="1920.27,-180.05 1929.25,-174.44 1918.72,-173.22 1920.27,-180.05"/>
</g>
<!-- app/pages/progress&#45;filter/progress&#45;filter.component.ts&#45;&gt;app/shared/state/users&#45;query.service.ts -->
<g id="edge16" class="edge">
<title>app/pages/progress&#45;filter/progress&#45;filter.component.ts&#45;&gt;app/shared/state/users&#45;query.service.ts</title>
<path fill="none" stroke="#757575" d="M1418.51,-220.05C1481.08,-234.49 1588.12,-259.21 1655.03,-274.65"/>
<polygon fill="#757575" stroke="#757575" points="1654.47,-278.12 1665,-276.96 1656.04,-271.3 1654.47,-278.12"/>
</g>
<!-- app/pages/progress&#45;filter/utils.ts -->
<g id="node14" class="node">
<title>app/pages/progress&#45;filter/utils.ts</title>
<path fill="none" stroke="#cfffac" d="M1818.33,-220C1818.33,-220 1613.67,-220 1613.67,-220 1609.83,-220 1606,-216.17 1606,-212.33 1606,-212.33 1606,-204.67 1606,-204.67 1606,-200.83 1609.83,-197 1613.67,-197 1613.67,-197 1818.33,-197 1818.33,-197 1822.17,-197 1826,-200.83 1826,-204.67 1826,-204.67 1826,-212.33 1826,-212.33 1826,-216.17 1822.17,-220 1818.33,-220"/>
<text text-anchor="middle" x="1716" y="-204.8" font-family="Arial" font-size="14.00" fill="#cfffac">app/pages/progress&#45;filter/utils.ts</text>
</g>
<!-- app/pages/progress&#45;filter/progress&#45;filter.component.ts&#45;&gt;app/pages/progress&#45;filter/utils.ts -->
<g id="edge15" class="edge">
<title>app/pages/progress&#45;filter/progress&#45;filter.component.ts&#45;&gt;app/pages/progress&#45;filter/utils.ts</title>
<path fill="none" stroke="#757575" d="M1547.08,-208.5C1563.52,-208.5 1579.9,-208.5 1595.62,-208.5"/>
<polygon fill="#757575" stroke="#757575" points="1595.85,-212 1605.85,-208.5 1595.85,-205 1595.85,-212"/>
</g>
<!-- app/shared/shared.module.ts -->
<g id="node11" class="node">
<title>app/shared/shared.module.ts</title>
<path fill="none" stroke="#c6c5fe" d="M1079.33,-182C1079.33,-182 893.67,-182 893.67,-182 889.83,-182 886,-178.17 886,-174.33 886,-174.33 886,-166.67 886,-166.67 886,-162.83 889.83,-159 893.67,-159 893.67,-159 1079.33,-159 1079.33,-159 1083.17,-159 1087,-162.83 1087,-166.67 1087,-166.67 1087,-174.33 1087,-174.33 1087,-178.17 1083.17,-182 1079.33,-182"/>
<text text-anchor="middle" x="986.5" y="-166.8" font-family="Arial" font-size="14.00" fill="#c6c5fe">app/shared/shared.module.ts</text>
</g>
<!-- app/pages/user&#45;table/user&#45;table.module.ts&#45;&gt;app/shared/shared.module.ts -->
<g id="edge25" class="edge">
<title>app/pages/user&#45;table/user&#45;table.module.ts&#45;&gt;app/shared/shared.module.ts</title>
<path fill="none" stroke="#757575" d="M742.32,-142.02C784.55,-146.96 834.03,-152.76 877.29,-157.83"/>
<polygon fill="#757575" stroke="#757575" points="876.95,-161.31 887.29,-159 877.76,-154.36 876.95,-161.31"/>
</g>
<!-- app/pages/user&#45;table/user&#45;table&#45;routing.module.ts -->
<g id="node15" class="node">
<title>app/pages/user&#45;table/user&#45;table&#45;routing.module.ts</title>
<path fill="none" stroke="#c6c5fe" d="M1144.33,-141C1144.33,-141 828.67,-141 828.67,-141 824.83,-141 821,-137.17 821,-133.33 821,-133.33 821,-125.67 821,-125.67 821,-121.83 824.83,-118 828.67,-118 828.67,-118 1144.33,-118 1144.33,-118 1148.17,-118 1152,-121.83 1152,-125.67 1152,-125.67 1152,-133.33 1152,-133.33 1152,-137.17 1148.17,-141 1144.33,-141"/>
<text text-anchor="middle" x="986.5" y="-125.8" font-family="Arial" font-size="14.00" fill="#c6c5fe">app/pages/user&#45;table/user&#45;table&#45;routing.module.ts</text>
</g>
<!-- app/pages/user&#45;table/user&#45;table.module.ts&#45;&gt;app/pages/user&#45;table/user&#45;table&#45;routing.module.ts -->
<g id="edge23" class="edge">
<title>app/pages/user&#45;table/user&#45;table.module.ts&#45;&gt;app/pages/user&#45;table/user&#45;table&#45;routing.module.ts</title>
<path fill="none" stroke="#757575" d="M785.37,-130.09C793.81,-130.06 802.35,-130.04 810.9,-130.01"/>
<polygon fill="#757575" stroke="#757575" points="810.95,-133.51 820.94,-129.98 810.93,-126.51 810.95,-133.51"/>
</g>
<!-- app/pages/user&#45;table/user&#45;table.component.ts -->
<g id="node16" class="node">
<title>app/pages/user&#45;table/user&#45;table.component.ts</title>
<path fill="none" stroke="#c6c5fe" d="M1513.83,-138C1513.83,-138 1221.17,-138 1221.17,-138 1217.33,-138 1213.5,-134.17 1213.5,-130.33 1213.5,-130.33 1213.5,-122.67 1213.5,-122.67 1213.5,-118.83 1217.33,-115 1221.17,-115 1221.17,-115 1513.83,-115 1513.83,-115 1517.67,-115 1521.5,-118.83 1521.5,-122.67 1521.5,-122.67 1521.5,-130.33 1521.5,-130.33 1521.5,-134.17 1517.67,-138 1513.83,-138"/>
<text text-anchor="middle" x="1367.5" y="-122.8" font-family="Arial" font-size="14.00" fill="#c6c5fe">app/pages/user&#45;table/user&#45;table.component.ts</text>
</g>
<!-- app/pages/user&#45;table/user&#45;table.module.ts&#45;&gt;app/pages/user&#45;table/user&#45;table.component.ts -->
<g id="edge24" class="edge">
<title>app/pages/user&#45;table/user&#45;table.module.ts&#45;&gt;app/pages/user&#45;table/user&#45;table.component.ts</title>
<path fill="none" stroke="#757575" d="M724,-118.98C754.32,-115.15 789.18,-111.38 821,-109.5 967.85,-100.82 1005,-103.68 1152,-109.5 1177.98,-110.53 1205.69,-112.25 1232.27,-114.22"/>
<polygon fill="#757575" stroke="#757575" points="1232.16,-117.72 1242.4,-114.99 1232.69,-110.74 1232.16,-117.72"/>
</g>
<!-- app/pages/welcome/welcome&#45;routing.module.ts -->
<g id="node20" class="node">
<title>app/pages/welcome/welcome&#45;routing.module.ts</title>
<path fill="none" stroke="#c6c5fe" d="M1138.33,-23C1138.33,-23 834.67,-23 834.67,-23 830.83,-23 827,-19.17 827,-15.33 827,-15.33 827,-7.67 827,-7.67 827,-3.83 830.83,0 834.67,0 834.67,0 1138.33,0 1138.33,0 1142.17,0 1146,-3.83 1146,-7.67 1146,-7.67 1146,-15.33 1146,-15.33 1146,-19.17 1142.17,-23 1138.33,-23"/>
<text text-anchor="middle" x="986.5" y="-7.8" font-family="Arial" font-size="14.00" fill="#c6c5fe">app/pages/welcome/welcome&#45;routing.module.ts</text>
</g>
<!-- app/pages/welcome/welcome.module.ts&#45;&gt;app/pages/welcome/welcome&#45;routing.module.ts -->
<g id="edge27" class="edge">
<title>app/pages/welcome/welcome.module.ts&#45;&gt;app/pages/welcome/welcome&#45;routing.module.ts</title>
<path fill="none" stroke="#757575" d="M742.32,-39.98C784.55,-35.04 834.03,-29.24 877.29,-24.17"/>
<polygon fill="#757575" stroke="#757575" points="877.76,-27.64 887.29,-23 876.95,-20.69 877.76,-27.64"/>
</g>
<!-- app/pages/welcome/welcome.component.ts -->
<g id="node21" class="node">
<title>app/pages/welcome/welcome.component.ts</title>
<path fill="none" stroke="#cfffac" d="M1507.83,-43C1507.83,-43 1227.17,-43 1227.17,-43 1223.33,-43 1219.5,-39.17 1219.5,-35.33 1219.5,-35.33 1219.5,-27.67 1219.5,-27.67 1219.5,-23.83 1223.33,-20 1227.17,-20 1227.17,-20 1507.83,-20 1507.83,-20 1511.67,-20 1515.5,-23.83 1515.5,-27.67 1515.5,-27.67 1515.5,-35.33 1515.5,-35.33 1515.5,-39.17 1511.67,-43 1507.83,-43"/>
<text text-anchor="middle" x="1367.5" y="-27.8" font-family="Arial" font-size="14.00" fill="#cfffac">app/pages/welcome/welcome.component.ts</text>
</g>
<!-- app/pages/welcome/welcome.module.ts&#45;&gt;app/pages/welcome/welcome.component.ts -->
<g id="edge28" class="edge">
<title>app/pages/welcome/welcome.module.ts&#45;&gt;app/pages/welcome/welcome.component.ts</title>
<path fill="none" stroke="#757575" d="M779.05,-47.76C901.03,-44.38 1080.59,-39.41 1209.05,-35.86"/>
<polygon fill="#757575" stroke="#757575" points="1209.48,-39.35 1219.38,-35.57 1209.28,-32.35 1209.48,-39.35"/>
</g>
<!-- app/app.component.ts -->
<g id="node6" class="node">
<title>app/app.component.ts</title>
<path fill="none" stroke="#c6c5fe" d="M1438.83,-338C1438.83,-338 1296.17,-338 1296.17,-338 1292.33,-338 1288.5,-334.17 1288.5,-330.33 1288.5,-330.33 1288.5,-322.67 1288.5,-322.67 1288.5,-318.83 1292.33,-315 1296.17,-315 1296.17,-315 1438.83,-315 1438.83,-315 1442.67,-315 1446.5,-318.83 1446.5,-322.67 1446.5,-322.67 1446.5,-330.33 1446.5,-330.33 1446.5,-334.17 1442.67,-338 1438.83,-338"/>
<text text-anchor="middle" x="1367.5" y="-322.8" font-family="Arial" font-size="14.00" fill="#c6c5fe">app/app.component.ts</text>
</g>
<!-- app/shared/state/types.ts -->
<g id="node7" class="node">
<title>app/shared/state/types.ts</title>
<path fill="none" stroke="#c6c5fe" d="M2780.33,-260C2780.33,-260 2619.67,-260 2619.67,-260 2615.83,-260 2612,-256.17 2612,-252.33 2612,-252.33 2612,-244.67 2612,-244.67 2612,-240.83 2615.83,-237 2619.67,-237 2619.67,-237 2780.33,-237 2780.33,-237 2784.17,-237 2788,-240.83 2788,-244.67 2788,-244.67 2788,-252.33 2788,-252.33 2788,-256.17 2784.17,-260 2780.33,-260"/>
<text text-anchor="middle" x="2700" y="-244.8" font-family="Arial" font-size="14.00" fill="#c6c5fe">app/shared/state/types.ts</text>
</g>
<!-- app/app.component.ts&#45;&gt;app/shared/state/types.ts -->
<g id="edge5" class="edge">
<title>app/app.component.ts&#45;&gt;app/shared/state/types.ts</title>
<path fill="none" stroke="#757575" d="M1403.12,-338.04C1546.57,-383.74 2105.01,-540.48 2494,-350.5 2516.09,-339.71 2509.73,-322.42 2530,-308.5 2561.4,-286.94 2601.39,-272.28 2634.58,-262.86"/>
<polygon fill="#757575" stroke="#757575" points="2635.93,-266.12 2644.65,-260.1 2634.08,-259.37 2635.93,-266.12"/>
</g>
<!-- app/app.component.ts&#45;&gt;app/shared/state/users&#45;query.service.ts -->
<g id="edge6" class="edge">
<title>app/app.component.ts&#45;&gt;app/shared/state/users&#45;query.service.ts</title>
<path fill="none" stroke="#757575" d="M1446.69,-317.92C1491.88,-312.97 1549.57,-306.64 1599.87,-301.13"/>
<polygon fill="#757575" stroke="#757575" points="1600.27,-304.6 1609.83,-300.03 1599.5,-297.65 1600.27,-304.6"/>
</g>
<!-- app/shared/in&#45;memory&#45;api/types.ts -->
<g id="node23" class="node">
<title>app/shared/in&#45;memory&#45;api/types.ts</title>
<path fill="none" stroke="#cfffac" d="M3394.33,-240C3394.33,-240 3174.67,-240 3174.67,-240 3170.83,-240 3167,-236.17 3167,-232.33 3167,-232.33 3167,-224.67 3167,-224.67 3167,-220.83 3170.83,-217 3174.67,-217 3174.67,-217 3394.33,-217 3394.33,-217 3398.17,-217 3402,-220.83 3402,-224.67 3402,-224.67 3402,-232.33 3402,-232.33 3402,-236.17 3398.17,-240 3394.33,-240"/>
<text text-anchor="middle" x="3284.5" y="-224.8" font-family="Arial" font-size="14.00" fill="#cfffac">app/shared/in&#45;memory&#45;api/types.ts</text>
</g>
<!-- app/shared/state/types.ts&#45;&gt;app/shared/in&#45;memory&#45;api/types.ts -->
<g id="edge40" class="edge">
<title>app/shared/state/types.ts&#45;&gt;app/shared/in&#45;memory&#45;api/types.ts</title>
<path fill="none" stroke="#757575" d="M2788.21,-245.51C2885.85,-242.15 3044.97,-236.69 3156.44,-232.86"/>
<polygon fill="#757575" stroke="#757575" points="3156.86,-236.35 3166.74,-232.51 3156.62,-229.35 3156.86,-236.35"/>
</g>
<!-- app/shared/state/users&#45;query.service.ts&#45;&gt;app/shared/state/types.ts -->
<g id="edge45" class="edge">
<title>app/shared/state/users&#45;query.service.ts&#45;&gt;app/shared/state/types.ts</title>
<path fill="none" stroke="#757575" d="M1849.16,-282.74C1943.12,-278.67 2072.3,-273.14 2186,-268.5 2330.79,-262.59 2498.59,-256.12 2601.77,-252.18"/>
<polygon fill="#757575" stroke="#757575" points="2602,-255.68 2611.86,-251.8 2601.73,-248.68 2602,-255.68"/>
</g>
<!-- app/shared/state/users&#45;query.service.ts&#45;&gt;app/shared/state/filters.ts -->
<g id="edge42" class="edge">
<title>app/shared/state/users&#45;query.service.ts&#45;&gt;app/shared/state/filters.ts</title>
<path fill="none" stroke="#757575" d="M1821.93,-276.92C1831.59,-273.23 1840.81,-268.51 1849,-262.5 1875.94,-242.73 1858.07,-216.27 1885,-196.5 1895.21,-189 1907.03,-183.52 1919.31,-179.53"/>
<polygon fill="#757575" stroke="#757575" points="1920.61,-182.79 1929.23,-176.64 1918.65,-176.07 1920.61,-182.79"/>
</g>
<!-- app/shared/state/users/users.store.ts -->
<g id="node19" class="node">
<title>app/shared/state/users/users.store.ts</title>
<path fill="none" stroke="#c6c5fe" d="M2457.83,-220C2457.83,-220 2222.17,-220 2222.17,-220 2218.33,-220 2214.5,-216.17 2214.5,-212.33 2214.5,-212.33 2214.5,-204.67 2214.5,-204.67 2214.5,-200.83 2218.33,-197 2222.17,-197 2222.17,-197 2457.83,-197 2457.83,-197 2461.67,-197 2465.5,-200.83 2465.5,-204.67 2465.5,-204.67 2465.5,-212.33 2465.5,-212.33 2465.5,-216.17 2461.67,-220 2457.83,-220"/>
<text text-anchor="middle" x="2340" y="-204.8" font-family="Arial" font-size="14.00" fill="#c6c5fe">app/shared/state/users/users.store.ts</text>
</g>
<!-- app/shared/state/users&#45;query.service.ts&#45;&gt;app/shared/state/users/users.store.ts -->
<g id="edge47" class="edge">
<title>app/shared/state/users&#45;query.service.ts&#45;&gt;app/shared/state/users/users.store.ts</title>
<path fill="none" stroke="#757575" d="M1805.77,-276.94C1820.58,-273.35 1835.5,-268.65 1849,-262.5 1867.44,-254.09 1866.02,-241.62 1885,-234.5 1993.22,-193.87 2126.16,-191.21 2220.14,-196.38"/>
<polygon fill="#757575" stroke="#757575" points="2220.07,-199.88 2230.25,-196.98 2220.48,-192.89 2220.07,-199.88"/>
</g>
<!-- app/shared/state/users&#45;query.service.ts&#45;&gt;app/shared/in&#45;memory&#45;api/types.ts -->
<g id="edge41" class="edge">
<title>app/shared/state/users&#45;query.service.ts&#45;&gt;app/shared/in&#45;memory&#45;api/types.ts</title>
<path fill="none" stroke="#757575" d="M1735.19,-300.21C1765.04,-318.65 1826.91,-353.67 1885,-366.5 1969.39,-385.14 2346.91,-374.7 2870,-349.5 2986.17,-343.9 3021.01,-368.31 3131,-330.5 3183.96,-312.3 3236.1,-270.99 3263.57,-246.9"/>
<polygon fill="#757575" stroke="#757575" points="3266.15,-249.29 3271.28,-240.02 3261.49,-244.06 3266.15,-249.29"/>
</g>
<!-- app/shared/state/progress/progress.query.ts -->
<g id="node25" class="node">
<title>app/shared/state/progress/progress.query.ts</title>
<path fill="none" stroke="#c6c5fe" d="M2481.33,-341C2481.33,-341 2198.67,-341 2198.67,-341 2194.83,-341 2191,-337.17 2191,-333.33 2191,-333.33 2191,-325.67 2191,-325.67 2191,-321.83 2194.83,-318 2198.67,-318 2198.67,-318 2481.33,-318 2481.33,-318 2485.17,-318 2489,-321.83 2489,-325.67 2489,-325.67 2489,-333.33 2489,-333.33 2489,-337.17 2485.17,-341 2481.33,-341"/>
<text text-anchor="middle" x="2340" y="-325.8" font-family="Arial" font-size="14.00" fill="#c6c5fe">app/shared/state/progress/progress.query.ts</text>
</g>
<!-- app/shared/state/users&#45;query.service.ts&#45;&gt;app/shared/state/progress/progress.query.ts -->
<g id="edge43" class="edge">
<title>app/shared/state/users&#45;query.service.ts&#45;&gt;app/shared/state/progress/progress.query.ts</title>
<path fill="none" stroke="#757575" d="M1741.62,-300.12C1773.76,-314.59 1832.13,-338.49 1885,-347.5 2015.23,-369.7 2169.36,-355.15 2260.39,-342.43"/>
<polygon fill="#757575" stroke="#757575" points="2260.95,-345.89 2270.36,-341.01 2259.97,-338.96 2260.95,-345.89"/>
</g>
<!-- app/shared/state/progress/progress.service.ts -->
<g id="node27" class="node">
<title>app/shared/state/progress/progress.service.ts</title>
<path fill="none" stroke="#c6c5fe" d="M2486.33,-300C2486.33,-300 2193.67,-300 2193.67,-300 2189.83,-300 2186,-296.17 2186,-292.33 2186,-292.33 2186,-284.67 2186,-284.67 2186,-280.83 2189.83,-277 2193.67,-277 2193.67,-277 2486.33,-277 2486.33,-277 2490.17,-277 2494,-280.83 2494,-284.67 2494,-284.67 2494,-292.33 2494,-292.33 2494,-296.17 2490.17,-300 2486.33,-300"/>
<text text-anchor="middle" x="2340" y="-284.8" font-family="Arial" font-size="14.00" fill="#c6c5fe">app/shared/state/progress/progress.service.ts</text>
</g>
<!-- app/shared/state/users&#45;query.service.ts&#45;&gt;app/shared/state/progress/progress.service.ts -->
<g id="edge44" class="edge">
<title>app/shared/state/users&#45;query.service.ts&#45;&gt;app/shared/state/progress/progress.service.ts</title>
<path fill="none" stroke="#757575" d="M1849.29,-288.5C1944.65,-288.5 2073.95,-288.5 2175.74,-288.5"/>
<polygon fill="#757575" stroke="#757575" points="2175.81,-292 2185.81,-288.5 2175.81,-285 2175.81,-292"/>
</g>
<!-- app/shared/state/users/users.query.ts -->
<g id="node28" class="node">
<title>app/shared/state/users/users.query.ts</title>
<path fill="none" stroke="#c6c5fe" d="M2136.83,-338C2136.83,-338 1898.17,-338 1898.17,-338 1894.33,-338 1890.5,-334.17 1890.5,-330.33 1890.5,-330.33 1890.5,-322.67 1890.5,-322.67 1890.5,-318.83 1894.33,-315 1898.17,-315 1898.17,-315 2136.83,-315 2136.83,-315 2140.67,-315 2144.5,-318.83 2144.5,-322.67 2144.5,-322.67 2144.5,-330.33 2144.5,-330.33 2144.5,-334.17 2140.67,-338 2136.83,-338"/>
<text text-anchor="middle" x="2017.5" y="-322.8" font-family="Arial" font-size="14.00" fill="#c6c5fe">app/shared/state/users/users.query.ts</text>
</g>
<!-- app/shared/state/users&#45;query.service.ts&#45;&gt;app/shared/state/users/users.query.ts -->
<g id="edge46" class="edge">
<title>app/shared/state/users&#45;query.service.ts&#45;&gt;app/shared/state/users/users.query.ts</title>
<path fill="none" stroke="#757575" d="M1807.67,-300C1841.68,-304.32 1880.52,-309.25 1915.41,-313.67"/>
<polygon fill="#757575" stroke="#757575" points="1915.26,-317.18 1925.62,-314.97 1916.14,-310.24 1915.26,-317.18"/>
</g>
<!-- app/app.module.ts -->
<g id="node9" class="node">
<title>app/app.module.ts</title>
<path fill="none" stroke="#c6c5fe" d="M224.33,-184C224.33,-184 105.67,-184 105.67,-184 101.83,-184 98,-180.17 98,-176.33 98,-176.33 98,-168.67 98,-168.67 98,-164.83 101.83,-161 105.67,-161 105.67,-161 224.33,-161 224.33,-161 228.17,-161 232,-164.83 232,-168.67 232,-168.67 232,-176.33 232,-176.33 232,-180.17 228.17,-184 224.33,-184"/>
<text text-anchor="middle" x="165" y="-168.8" font-family="Arial" font-size="14.00" fill="#c6c5fe">app/app.module.ts</text>
</g>
<!-- app/app.module.ts&#45;&gt;app/app&#45;routing.module.ts -->
<g id="edge7" class="edge">
<title>app/app.module.ts&#45;&gt;app/app&#45;routing.module.ts</title>
<path fill="none" stroke="#757575" d="M223.44,-160.98C246.81,-156.3 273.98,-150.85 298.27,-145.98"/>
<polygon fill="#757575" stroke="#757575" points="299.01,-149.4 308.12,-144 297.63,-142.54 299.01,-149.4"/>
</g>
<!-- app/app.module.ts&#45;&gt;app/pages/filter/filter.component.ts -->
<g id="edge10" class="edge">
<title>app/app.module.ts&#45;&gt;app/pages/filter/filter.component.ts</title>
<path fill="none" stroke="#757575" d="M232.19,-183.35C318.45,-197.48 469.2,-222.18 561.84,-237.37"/>
<polygon fill="#757575" stroke="#757575" points="561.3,-240.82 571.73,-238.99 562.43,-233.91 561.3,-240.82"/>
</g>
<!-- app/app.module.ts&#45;&gt;app/app.component.ts -->
<g id="edge8" class="edge">
<title>app/app.module.ts&#45;&gt;app/app.component.ts</title>
<path fill="none" stroke="#757575" d="M188.17,-184.06C208.49,-194.27 239.64,-208.99 268,-218.5 368.69,-252.28 395.89,-256.31 501,-271.5 783.15,-312.29 1121.39,-322.83 1278.41,-325.55"/>
<polygon fill="#757575" stroke="#757575" points="1278.43,-329.05 1288.49,-325.72 1278.55,-322.05 1278.43,-329.05"/>
</g>
<!-- app/configuration.provider.ts -->
<g id="node10" class="node">
<title>app/configuration.provider.ts</title>
<path fill="none" stroke="#cfffac" d="M456.83,-376C456.83,-376 276.17,-376 276.17,-376 272.33,-376 268.5,-372.17 268.5,-368.33 268.5,-368.33 268.5,-360.67 268.5,-360.67 268.5,-356.83 272.33,-353 276.17,-353 276.17,-353 456.83,-353 456.83,-353 460.67,-353 464.5,-356.83 464.5,-360.67 464.5,-360.67 464.5,-368.33 464.5,-368.33 464.5,-372.17 460.67,-376 456.83,-376"/>
<text text-anchor="middle" x="366.5" y="-360.8" font-family="Arial" font-size="14.00" fill="#cfffac">app/configuration.provider.ts</text>
</g>
<!-- app/app.module.ts&#45;&gt;app/configuration.provider.ts -->
<g id="edge9" class="edge">
<title>app/app.module.ts&#45;&gt;app/configuration.provider.ts</title>
<path fill="none" stroke="#757575" d="M169.76,-184.26C180.12,-214.75 212.12,-296.88 268,-338.5 273.57,-342.65 279.75,-346.14 286.22,-349.07"/>
<polygon fill="#757575" stroke="#757575" points="285.29,-352.47 295.88,-352.98 287.92,-345.98 285.29,-352.47"/>
</g>
<!-- app/app.module.ts&#45;&gt;app/shared/shared.module.ts -->
<g id="edge11" class="edge">
<title>app/app.module.ts&#45;&gt;app/shared/shared.module.ts</title>
<path fill="none" stroke="#757575" d="M232.02,-172.34C372.64,-172 702.94,-171.19 875.75,-170.77"/>
<polygon fill="#757575" stroke="#757575" points="875.89,-174.27 885.89,-170.74 875.88,-167.27 875.89,-174.27"/>
</g>
<!-- environments/environment.ts -->
<g id="node12" class="node">
<title>environments/environment.ts</title>
<path fill="none" stroke="#cfffac" d="M457.33,-103C457.33,-103 275.67,-103 275.67,-103 271.83,-103 268,-99.17 268,-95.33 268,-95.33 268,-87.67 268,-87.67 268,-83.83 271.83,-80 275.67,-80 275.67,-80 457.33,-80 457.33,-80 461.17,-80 465,-83.83 465,-87.67 465,-87.67 465,-95.33 465,-95.33 465,-99.17 461.17,-103 457.33,-103"/>
<text text-anchor="middle" x="366.5" y="-87.8" font-family="Arial" font-size="14.00" fill="#cfffac">environments/environment.ts</text>
</g>
<!-- app/app.module.ts&#45;&gt;environments/environment.ts -->
<g id="edge12" class="edge">
<title>app/app.module.ts&#45;&gt;environments/environment.ts</title>
<path fill="none" stroke="#757575" d="M182.13,-160.79C201.56,-147.22 235.65,-125.12 268,-112.5 274.6,-109.93 281.58,-107.64 288.65,-105.61"/>
<polygon fill="#757575" stroke="#757575" points="289.57,-108.99 298.32,-103.01 287.75,-102.23 289.57,-108.99"/>
</g>
<!-- app/shared/shared.module.ts&#45;&gt;app/pages/progress&#45;filter/progress&#45;filter.component.ts -->
<g id="edge32" class="edge">
<title>app/shared/shared.module.ts&#45;&gt;app/pages/progress&#45;filter/progress&#45;filter.component.ts</title>
<path fill="none" stroke="#757575" d="M1087.08,-180.48C1134.27,-185.22 1191.15,-190.92 1241.24,-195.94"/>
<polygon fill="#757575" stroke="#757575" points="1241.19,-199.45 1251.49,-196.97 1241.88,-192.49 1241.19,-199.45"/>
</g>
<!-- app/shared/icons&#45;provider.module.ts -->
<g id="node22" class="node">
<title>app/shared/icons&#45;provider.module.ts</title>
<path fill="none" stroke="#cfffac" d="M1483.83,-179C1483.83,-179 1251.17,-179 1251.17,-179 1247.33,-179 1243.5,-175.17 1243.5,-171.33 1243.5,-171.33 1243.5,-163.67 1243.5,-163.67 1243.5,-159.83 1247.33,-156 1251.17,-156 1251.17,-156 1483.83,-156 1483.83,-156 1487.67,-156 1491.5,-159.83 1491.5,-163.67 1491.5,-163.67 1491.5,-171.33 1491.5,-171.33 1491.5,-175.17 1487.67,-179 1483.83,-179"/>
<text text-anchor="middle" x="1367.5" y="-163.8" font-family="Arial" font-size="14.00" fill="#cfffac">app/shared/icons&#45;provider.module.ts</text>
</g>
<!-- app/shared/shared.module.ts&#45;&gt;app/shared/icons&#45;provider.module.ts -->
<g id="edge33" class="edge">
<title>app/shared/shared.module.ts&#45;&gt;app/shared/icons&#45;provider.module.ts</title>
<path fill="none" stroke="#757575" d="M1087.08,-169.71C1131.71,-169.36 1185.02,-168.94 1233.04,-168.56"/>
<polygon fill="#757575" stroke="#757575" points="1233.23,-172.06 1243.2,-168.48 1233.18,-165.06 1233.23,-172.06"/>
</g>
<!-- app/shared/state/filters.ts&#45;&gt;app/shared/state/users/users.store.ts -->
<g id="edge34" class="edge">
<title>app/shared/state/filters.ts&#45;&gt;app/shared/state/users/users.store.ts</title>
<path fill="none" stroke="#757575" d="M2105.65,-180.83C2144.61,-185.45 2190.91,-190.94 2231.95,-195.81"/>
<polygon fill="#757575" stroke="#757575" points="2231.64,-199.3 2241.99,-197 2232.47,-192.34 2231.64,-199.3"/>
</g>
<!-- app/pages/user&#45;table/user&#45;table&#45;routing.module.ts&#45;&gt;app/pages/user&#45;table/user&#45;table.component.ts -->
<g id="edge17" class="edge">
<title>app/pages/user&#45;table/user&#45;table&#45;routing.module.ts&#45;&gt;app/pages/user&#45;table/user&#45;table.component.ts</title>
<path fill="none" stroke="#757575" d="M1152.08,-128.2C1168.96,-128.06 1186.1,-127.93 1202.96,-127.79"/>
<polygon fill="#757575" stroke="#757575" points="1203.45,-131.29 1213.42,-127.71 1203.39,-124.29 1203.45,-131.29"/>
</g>
<!-- app/pages/user&#45;table/user&#45;table.component.ts&#45;&gt;app/shared/state/users&#45;query.service.ts -->
<g id="edge20" class="edge">
<title>app/pages/user&#45;table/user&#45;table.component.ts&#45;&gt;app/shared/state/users&#45;query.service.ts</title>
<path fill="none" stroke="#757575" d="M1521.76,-133.32C1530.71,-137.08 1539.22,-141.75 1547,-147.5 1578.99,-171.18 1554.95,-201.26 1583,-229.5 1603.71,-250.34 1633.07,-264.46 1658.85,-273.65"/>
<polygon fill="#757575" stroke="#757575" points="1657.93,-277.03 1668.53,-276.93 1660.18,-270.4 1657.93,-277.03"/>
</g>
<!-- app/pages/user&#45;table/user&#45;table.component.ts&#45;&gt;app/shared/state/filters.ts -->
<g id="edge19" class="edge">
<title>app/pages/user&#45;table/user&#45;table.component.ts&#45;&gt;app/shared/state/filters.ts</title>
<path fill="none" stroke="#757575" d="M1499.76,-138.01C1527.25,-140.29 1556.07,-142.56 1583,-144.5 1698.38,-152.8 1831.16,-160.49 1919.05,-165.32"/>
<polygon fill="#757575" stroke="#757575" points="1919.1,-168.83 1929.28,-165.88 1919.48,-161.84 1919.1,-168.83"/>
</g>
<!-- app/shared/in&#45;memory&#45;api/in&#45;memory&#45;api.service.ts -->
<g id="node17" class="node">
<title>app/shared/in&#45;memory&#45;api/in&#45;memory&#45;api.service.ts</title>
<path fill="none" stroke="#c6c5fe" d="M2862.33,-102C2862.33,-102 2537.67,-102 2537.67,-102 2533.83,-102 2530,-98.17 2530,-94.33 2530,-94.33 2530,-86.67 2530,-86.67 2530,-82.83 2533.83,-79 2537.67,-79 2537.67,-79 2862.33,-79 2862.33,-79 2866.17,-79 2870,-82.83 2870,-86.67 2870,-86.67 2870,-94.33 2870,-94.33 2870,-98.17 2866.17,-102 2862.33,-102"/>
<text text-anchor="middle" x="2700" y="-86.8" font-family="Arial" font-size="14.00" fill="#c6c5fe">app/shared/in&#45;memory&#45;api/in&#45;memory&#45;api.service.ts</text>
</g>
<!-- app/pages/user&#45;table/user&#45;table.component.ts&#45;&gt;app/shared/in&#45;memory&#45;api/in&#45;memory&#45;api.service.ts -->
<g id="edge18" class="edge">
<title>app/pages/user&#45;table/user&#45;table.component.ts&#45;&gt;app/shared/in&#45;memory&#45;api/in&#45;memory&#45;api.service.ts</title>
<path fill="none" stroke="#757575" d="M1440.84,-114.98C1482.37,-108.64 1535.53,-100.97 1583,-95.5 1833.61,-66.63 1897.78,-64.68 2150,-69.5 2273.45,-71.86 2412.43,-77.2 2519.66,-81.91"/>
<polygon fill="#757575" stroke="#757575" points="2519.8,-85.42 2529.94,-82.36 2520.1,-78.42 2519.8,-85.42"/>
</g>
<!-- app/shared/state/users/users.service.ts -->
<g id="node18" class="node">
<title>app/shared/state/users/users.service.ts</title>
<path fill="none" stroke="#c6c5fe" d="M2142.33,-102C2142.33,-102 1892.67,-102 1892.67,-102 1888.83,-102 1885,-98.17 1885,-94.33 1885,-94.33 1885,-86.67 1885,-86.67 1885,-82.83 1888.83,-79 1892.67,-79 1892.67,-79 2142.33,-79 2142.33,-79 2146.17,-79 2150,-82.83 2150,-86.67 2150,-86.67 2150,-94.33 2150,-94.33 2150,-98.17 2146.17,-102 2142.33,-102"/>
<text text-anchor="middle" x="2017.5" y="-86.8" font-family="Arial" font-size="14.00" fill="#c6c5fe">app/shared/state/users/users.service.ts</text>
</g>
<!-- app/pages/user&#45;table/user&#45;table.component.ts&#45;&gt;app/shared/state/users/users.service.ts -->
<g id="edge21" class="edge">
<title>app/pages/user&#45;table/user&#45;table.component.ts&#45;&gt;app/shared/state/users/users.service.ts</title>
<path fill="none" stroke="#757575" d="M1521.66,-117.99C1628.58,-112.05 1770.28,-104.18 1874.64,-98.38"/>
<polygon fill="#757575" stroke="#757575" points="1875.15,-101.86 1884.94,-97.81 1874.76,-94.87 1875.15,-101.86"/>
</g>
<!-- app/pages/user&#45;table/user&#45;table.component.ts&#45;&gt;app/shared/state/users/users.store.ts -->
<g id="edge22" class="edge">
<title>app/pages/user&#45;table/user&#45;table.component.ts&#45;&gt;app/shared/state/users/users.store.ts</title>
<path fill="none" stroke="#757575" d="M1521.87,-125.61C1732.96,-125.25 2093.48,-128.01 2150,-150.5 2169.89,-158.41 2166.7,-173.24 2186,-182.5 2195.76,-187.19 2206.23,-191.04 2216.95,-194.21"/>
<polygon fill="#757575" stroke="#757575" points="2216.27,-197.66 2226.84,-196.93 2218.13,-190.91 2216.27,-197.66"/>
</g>
<!-- app/shared/in&#45;memory&#45;api/in&#45;memory&#45;api.service.ts&#45;&gt;app/shared/in&#45;memory&#45;api/types.ts -->
<g id="edge29" class="edge">
<title>app/shared/in&#45;memory&#45;api/in&#45;memory&#45;api.service.ts&#45;&gt;app/shared/in&#45;memory&#45;api/types.ts</title>
<path fill="none" stroke="#757575" d="M2802.82,-102.04C2910.08,-114.84 3071.51,-136.11 3131,-154.5 3176.67,-168.61 3225.77,-194.61 3255.57,-211.72"/>
<polygon fill="#757575" stroke="#757575" points="3254.14,-214.94 3264.54,-216.94 3257.66,-208.89 3254.14,-214.94"/>
</g>
<!-- app/shared/in&#45;memory&#45;api/utils.ts -->
<g id="node24" class="node">
<title>app/shared/in&#45;memory&#45;api/utils.ts</title>
<path fill="none" stroke="#c6c5fe" d="M3123.33,-102C3123.33,-102 2913.67,-102 2913.67,-102 2909.83,-102 2906,-98.17 2906,-94.33 2906,-94.33 2906,-86.67 2906,-86.67 2906,-82.83 2909.83,-79 2913.67,-79 2913.67,-79 3123.33,-79 3123.33,-79 3127.17,-79 3131,-82.83 3131,-86.67 3131,-86.67 3131,-94.33 3131,-94.33 3131,-98.17 3127.17,-102 3123.33,-102"/>
<text text-anchor="middle" x="3018.5" y="-86.8" font-family="Arial" font-size="14.00" fill="#c6c5fe">app/shared/in&#45;memory&#45;api/utils.ts</text>
</g>
<!-- app/shared/in&#45;memory&#45;api/in&#45;memory&#45;api.service.ts&#45;&gt;app/shared/in&#45;memory&#45;api/utils.ts -->
<g id="edge30" class="edge">
<title>app/shared/in&#45;memory&#45;api/in&#45;memory&#45;api.service.ts&#45;&gt;app/shared/in&#45;memory&#45;api/utils.ts</title>
<path fill="none" stroke="#757575" d="M2870.37,-90.5C2878.94,-90.5 2887.46,-90.5 2895.84,-90.5"/>
<polygon fill="#757575" stroke="#757575" points="2895.98,-94 2905.98,-90.5 2895.98,-87 2895.98,-94"/>
</g>
<!-- app/shared/state/users/users.service.ts&#45;&gt;app/shared/in&#45;memory&#45;api/in&#45;memory&#45;api.service.ts -->
<g id="edge51" class="edge">
<title>app/shared/state/users/users.service.ts&#45;&gt;app/shared/in&#45;memory&#45;api/in&#45;memory&#45;api.service.ts</title>
<path fill="none" stroke="#757575" d="M2150.11,-90.5C2255.32,-90.5 2403.89,-90.5 2519.93,-90.5"/>
<polygon fill="#757575" stroke="#757575" points="2519.99,-94 2529.99,-90.5 2519.99,-87 2519.99,-94"/>
</g>
<!-- app/shared/state/users/users.service.ts&#45;&gt;app/shared/state/users/users.store.ts -->
<g id="edge53" class="edge">
<title>app/shared/state/users/users.service.ts&#45;&gt;app/shared/state/users/users.store.ts</title>
<path fill="none" stroke="#757575" d="M2123.03,-102.12C2132.66,-105.8 2141.84,-110.51 2150,-116.5 2176.93,-136.27 2158.8,-163.09 2186,-182.5 2191.96,-186.75 2198.37,-190.39 2205.08,-193.51"/>
<polygon fill="#757575" stroke="#757575" points="2203.82,-196.77 2214.39,-197.43 2206.54,-190.32 2203.82,-196.77"/>
</g>
<!-- app/shared/state/users/users.service.ts&#45;&gt;app/shared/in&#45;memory&#45;api/types.ts -->
<g id="edge52" class="edge">
<title>app/shared/state/users/users.service.ts&#45;&gt;app/shared/in&#45;memory&#45;api/types.ts</title>
<path fill="none" stroke="#757575" d="M2124.18,-102.03C2359.19,-127.67 2923.57,-189.23 3167.71,-215.87"/>
<polygon fill="#757575" stroke="#757575" points="3167.36,-219.35 3177.68,-216.96 3168.12,-212.39 3167.36,-219.35"/>
</g>
<!-- app/shared/state/users/users.store.ts&#45;&gt;app/shared/state/types.ts -->
<g id="edge55" class="edge">
<title>app/shared/state/users/users.store.ts&#45;&gt;app/shared/state/types.ts</title>
<path fill="none" stroke="#757575" d="M2444.07,-220.02C2493.73,-225.57 2552.97,-232.18 2601.84,-237.64"/>
<polygon fill="#757575" stroke="#757575" points="2601.46,-241.12 2611.79,-238.76 2602.24,-234.17 2601.46,-241.12"/>
</g>
<!-- app/shared/state/users/users.store.ts&#45;&gt;app/shared/in&#45;memory&#45;api/types.ts -->
<g id="edge54" class="edge">
<title>app/shared/state/users/users.store.ts&#45;&gt;app/shared/in&#45;memory&#45;api/types.ts</title>
<path fill="none" stroke="#757575" d="M2465.67,-211.15C2645.51,-214.96 2975.93,-221.97 3156.86,-225.81"/>
<polygon fill="#757575" stroke="#757575" points="3156.89,-229.31 3166.96,-226.03 3157.03,-222.32 3156.89,-229.31"/>
</g>
<!-- app/pages/welcome/welcome&#45;routing.module.ts&#45;&gt;app/pages/welcome/welcome.component.ts -->
<g id="edge26" class="edge">
<title>app/pages/welcome/welcome&#45;routing.module.ts&#45;&gt;app/pages/welcome/welcome.component.ts</title>
<path fill="none" stroke="#757575" d="M1146.03,-19.87C1166.95,-20.97 1188.39,-22.1 1209.28,-23.2"/>
<polygon fill="#757575" stroke="#757575" points="1209.32,-26.71 1219.49,-23.74 1209.69,-19.72 1209.32,-26.71"/>
</g>
<!-- app/shared/in&#45;memory&#45;api/utils.ts&#45;&gt;app/shared/in&#45;memory&#45;api/types.ts -->
<g id="edge31" class="edge">
<title>app/shared/in&#45;memory&#45;api/utils.ts&#45;&gt;app/shared/in&#45;memory&#45;api/types.ts</title>
<path fill="none" stroke="#757575" d="M3088.76,-102.06C3103.09,-105.71 3117.82,-110.43 3131,-116.5 3183.69,-140.75 3236.24,-184.83 3263.78,-209.85"/>
<polygon fill="#757575" stroke="#757575" points="3261.46,-212.46 3271.18,-216.66 3266.2,-207.31 3261.46,-212.46"/>
</g>
<!-- app/shared/state/progress/progress.store.ts -->
<g id="node26" class="node">
<title>app/shared/state/progress/progress.store.ts</title>
<path fill="none" stroke="#c6c5fe" d="M2839.83,-340C2839.83,-340 2560.17,-340 2560.17,-340 2556.33,-340 2552.5,-336.17 2552.5,-332.33 2552.5,-332.33 2552.5,-324.67 2552.5,-324.67 2552.5,-320.83 2556.33,-317 2560.17,-317 2560.17,-317 2839.83,-317 2839.83,-317 2843.67,-317 2847.5,-320.83 2847.5,-324.67 2847.5,-324.67 2847.5,-332.33 2847.5,-332.33 2847.5,-336.17 2843.67,-340 2839.83,-340"/>
<text text-anchor="middle" x="2700" y="-324.8" font-family="Arial" font-size="14.00" fill="#c6c5fe">app/shared/state/progress/progress.store.ts</text>
</g>
<!-- app/shared/state/progress/progress.query.ts&#45;&gt;app/shared/state/progress/progress.store.ts -->
<g id="edge35" class="edge">
<title>app/shared/state/progress/progress.query.ts&#45;&gt;app/shared/state/progress/progress.store.ts</title>
<path fill="none" stroke="#757575" d="M2489.2,-329.09C2506.64,-329.04 2524.49,-328.99 2542.05,-328.94"/>
<polygon fill="#757575" stroke="#757575" points="2542.37,-332.44 2552.36,-328.91 2542.35,-325.44 2542.37,-332.44"/>
</g>
<!-- app/shared/state/progress/progress.store.ts&#45;&gt;app/shared/in&#45;memory&#45;api/types.ts -->
<g id="edge39" class="edge">
<title>app/shared/state/progress/progress.store.ts&#45;&gt;app/shared/in&#45;memory&#45;api/types.ts</title>
<path fill="none" stroke="#757575" d="M2847.53,-333.68C2931.73,-333.2 3038.75,-326.65 3131,-302.5 3177.75,-290.26 3227.28,-263.27 3256.78,-245.49"/>
<polygon fill="#757575" stroke="#757575" points="3258.93,-248.28 3265.63,-240.07 3255.27,-242.31 3258.93,-248.28"/>
</g>
<!-- app/shared/state/progress/progress.service.ts&#45;&gt;app/shared/in&#45;memory&#45;api/in&#45;memory&#45;api.service.ts -->
<g id="edge36" class="edge">
<title>app/shared/state/progress/progress.service.ts&#45;&gt;app/shared/in&#45;memory&#45;api/in&#45;memory&#45;api.service.ts</title>
<path fill="none" stroke="#757575" d="M2377.88,-276.92C2409.52,-266.37 2455.91,-249.43 2494,-229.5 2564.2,-192.78 2639.53,-136.92 2676.25,-108.49"/>
<polygon fill="#757575" stroke="#757575" points="2678.58,-111.11 2684.31,-102.21 2674.27,-105.59 2678.58,-111.11"/>
</g>
<!-- app/shared/state/progress/progress.service.ts&#45;&gt;app/shared/in&#45;memory&#45;api/types.ts -->
<g id="edge37" class="edge">
<title>app/shared/state/progress/progress.service.ts&#45;&gt;app/shared/in&#45;memory&#45;api/types.ts</title>
<path fill="none" stroke="#757575" d="M2494.36,-286.98C2653.86,-284.08 2910.58,-275.68 3131,-251.5 3155.1,-248.86 3181.24,-245.2 3204.95,-241.59"/>
<polygon fill="#757575" stroke="#757575" points="3205.6,-245.03 3214.95,-240.04 3204.53,-238.11 3205.6,-245.03"/>
</g>
<!-- app/shared/state/progress/progress.service.ts&#45;&gt;app/shared/state/progress/progress.store.ts -->
<g id="edge38" class="edge">
<title>app/shared/state/progress/progress.service.ts&#45;&gt;app/shared/state/progress/progress.store.ts</title>
<path fill="none" stroke="#757575" d="M2444.07,-300.02C2488.43,-304.97 2540.43,-310.78 2585.85,-315.86"/>
<polygon fill="#757575" stroke="#757575" points="2585.71,-319.36 2596.04,-317 2586.49,-312.41 2585.71,-319.36"/>
</g>
<!-- app/shared/state/users/users.query.ts&#45;&gt;app/shared/state/users/users.store.ts -->
<g id="edge50" class="edge">
<title>app/shared/state/users/users.query.ts&#45;&gt;app/shared/state/users/users.store.ts</title>
<path fill="none" stroke="#757575" d="M2049.81,-314.97C2108.09,-293.51 2233.17,-247.46 2298.06,-223.57"/>
<polygon fill="#757575" stroke="#757575" points="2299.38,-226.82 2307.56,-220.08 2296.96,-220.25 2299.38,-226.82"/>
</g>
<!-- app/shared/state/users/users.query.ts&#45;&gt;app/shared/state/progress/progress.query.ts -->
<g id="edge48" class="edge">
<title>app/shared/state/users/users.query.ts&#45;&gt;app/shared/state/progress/progress.query.ts</title>
<path fill="none" stroke="#757575" d="M2144.71,-327.68C2156.55,-327.79 2168.65,-327.91 2180.73,-328.02"/>
<polygon fill="#757575" stroke="#757575" points="2180.84,-331.52 2190.87,-328.11 2180.9,-324.52 2180.84,-331.52"/>
</g>
<!-- app/shared/state/users/users.query.ts&#45;&gt;app/shared/state/progress/progress.service.ts -->
<g id="edge49" class="edge">
<title>app/shared/state/users/users.query.ts&#45;&gt;app/shared/state/progress/progress.service.ts</title>
<path fill="none" stroke="#757575" d="M2115.53,-315C2152.23,-310.64 2194.2,-305.67 2231.78,-301.21"/>
<polygon fill="#757575" stroke="#757575" points="2232.23,-304.68 2241.75,-300.03 2231.4,-297.73 2232.23,-304.68"/>
</g>
<!-- main.ts -->
<g id="node29" class="node">
<title>main.ts</title>
<path fill="none" stroke="#c6c5fe" d="M54.33,-144C54.33,-144 7.67,-144 7.67,-144 3.83,-144 0,-140.17 0,-136.33 0,-136.33 0,-128.67 0,-128.67 0,-124.83 3.83,-121 7.67,-121 7.67,-121 54.33,-121 54.33,-121 58.17,-121 62,-124.83 62,-128.67 62,-128.67 62,-136.33 62,-136.33 62,-140.17 58.17,-144 54.33,-144"/>
<text text-anchor="middle" x="31" y="-128.8" font-family="Arial" font-size="14.00" fill="#c6c5fe">main.ts</text>
</g>
<!-- main.ts&#45;&gt;app/app.module.ts -->
<g id="edge56" class="edge">
<title>main.ts&#45;&gt;app/app.module.ts</title>
<path fill="none" stroke="#757575" d="M62.28,-141.68C78.21,-146.5 98.11,-152.53 116.07,-157.98"/>
<polygon fill="#757575" stroke="#757575" points="115.23,-161.38 125.81,-160.93 117.26,-154.68 115.23,-161.38"/>
</g>
<!-- main.ts&#45;&gt;environments/environment.ts -->
<g id="edge57" class="edge">
<title>main.ts&#45;&gt;environments/environment.ts</title>
<path fill="none" stroke="#757575" d="M62.18,-128.79C106.89,-123.29 192.84,-112.73 261.86,-104.24"/>
<polygon fill="#757575" stroke="#757575" points="262.42,-107.7 271.92,-103.01 261.56,-100.75 262.42,-107.7"/>
</g>
</g>
</svg>
