<?xml version="1.0" encoding="UTF-8" standalone="no"?>
<!DOCTYPE svg PUBLIC "-//W3C//DTD SVG 1.1//EN"
 "http://www.w3.org/Graphics/SVG/1.1/DTD/svg11.dtd">
<!-- Generated by graphviz version 2.47.1 (20210417.1919)
 -->
<!-- Title: G Pages: 1 -->
<svg width="3445pt" height="534pt"
 viewBox="0.00 0.00 3445.20 534.38" xmlns="http://www.w3.org/2000/svg" xmlns:xlink="http://www.w3.org/1999/xlink">
<g id="graph0" class="graph" transform="scale(1 1) rotate(0) translate(21.6 512.78)">
<title>G</title>
<polygon fill="#111111" stroke="transparent" points="-21.6,21.6 -21.6,-512.78 3423.6,-512.78 3423.6,21.6 -21.6,21.6"/>
<!-- app/app&#45;routing.module.ts -->
<g id="node1" class="node">
<title>app/app&#45;routing.module.ts</title>
<path fill="none" stroke="#c6c5fe" d="M449.83,-161C449.83,-161 283.17,-161 283.17,-161 279.33,-161 275.5,-157.17 275.5,-153.33 275.5,-153.33 275.5,-145.67 275.5,-145.67 275.5,-141.83 279.33,-138 283.17,-138 283.17,-138 449.83,-138 449.83,-138 453.67,-138 457.5,-141.83 457.5,-145.67 457.5,-145.67 457.5,-153.33 457.5,-153.33 457.5,-157.17 453.67,-161 449.83,-161"/>
<text text-anchor="middle" x="366.5" y="-145.8" font-family="Arial" font-size="14.00" fill="#c6c5fe">app/app&#45;routing.module.ts</text>
</g>
<!-- app/pages/filter/filter.component.ts -->
<g id="node2" class="node">
<title>app/pages/filter/filter.component.ts</title>
<path fill="none" stroke="#c6c5fe" d="M753.33,-311C753.33,-311 532.67,-311 532.67,-311 528.83,-311 525,-307.17 525,-303.33 525,-303.33 525,-295.67 525,-295.67 525,-291.83 528.83,-288 532.67,-288 532.67,-288 753.33,-288 753.33,-288 757.17,-288 761,-291.83 761,-295.67 761,-295.67 761,-303.33 761,-303.33 761,-307.17 757.17,-311 753.33,-311"/>
<text text-anchor="middle" x="643" y="-295.8" font-family="Arial" font-size="14.00" fill="#c6c5fe">app/pages/filter/filter.component.ts</text>
</g>
<!-- app/app&#45;routing.module.ts&#45;&gt;app/pages/filter/filter.component.ts -->
<g id="edge1" class="edge">
<title>app/app&#45;routing.module.ts&#45;&gt;app/pages/filter/filter.component.ts</title>
<path fill="none" stroke="#757575" d="M439.71,-161.05C448.85,-164.65 457.58,-169.35 465,-175.5 493.47,-199.09 473.42,-225.87 501,-250.5 519.27,-266.81 543.26,-277.76 566.27,-285.08"/>
<polygon fill="#757575" stroke="#757575" points="565.46,-288.49 576.04,-288 567.46,-281.78 565.46,-288.49"/>
</g>
<!-- app/pages/progress&#45;filter/progress&#45;filter.component.ts -->
<g id="node3" class="node">
<title>app/pages/progress&#45;filter/progress&#45;filter.component.ts</title>
<path fill="none" stroke="#c6c5fe" d="M1539.33,-101C1539.33,-101 1195.67,-101 1195.67,-101 1191.83,-101 1188,-97.17 1188,-93.33 1188,-93.33 1188,-85.67 1188,-85.67 1188,-81.83 1191.83,-78 1195.67,-78 1195.67,-78 1539.33,-78 1539.33,-78 1543.17,-78 1547,-81.83 1547,-85.67 1547,-85.67 1547,-93.33 1547,-93.33 1547,-97.17 1543.17,-101 1539.33,-101"/>
<text text-anchor="middle" x="1367.5" y="-85.8" font-family="Arial" font-size="14.00" fill="#c6c5fe">app/pages/progress&#45;filter/progress&#45;filter.component.ts</text>
</g>
<!-- app/app&#45;routing.module.ts&#45;&gt;app/pages/progress&#45;filter/progress&#45;filter.component.ts -->
<g id="edge2" class="edge">
<title>app/app&#45;routing.module.ts&#45;&gt;app/pages/progress&#45;filter/progress&#45;filter.component.ts</title>
<path fill="none" stroke="#757575" d="M457.73,-139.86C549.17,-130.44 694.76,-116.4 821,-108.5 939.54,-101.08 1072.76,-96.37 1177.87,-93.5"/>
<polygon fill="#757575" stroke="#757575" points="1178.05,-97 1187.95,-93.23 1177.86,-90 1178.05,-97"/>
</g>
<!-- app/pages/user&#45;table/user&#45;table.module.ts -->
<g id="node4" class="node">
<title>app/pages/user&#45;table/user&#45;table.module.ts</title>
<path fill="none" stroke="#c6c5fe" d="M777.33,-241C777.33,-241 508.67,-241 508.67,-241 504.83,-241 501,-237.17 501,-233.33 501,-233.33 501,-225.67 501,-225.67 501,-221.83 504.83,-218 508.67,-218 508.67,-218 777.33,-218 777.33,-218 781.17,-218 785,-221.83 785,-225.67 785,-225.67 785,-233.33 785,-233.33 785,-237.17 781.17,-241 777.33,-241"/>
<text text-anchor="middle" x="643" y="-225.8" font-family="Arial" font-size="14.00" fill="#c6c5fe">app/pages/user&#45;table/user&#45;table.module.ts</text>
</g>
<!-- app/app&#45;routing.module.ts&#45;&gt;app/pages/user&#45;table/user&#45;table.module.ts -->
<g id="edge3" class="edge">
<title>app/app&#45;routing.module.ts&#45;&gt;app/pages/user&#45;table/user&#45;table.module.ts</title>
<path fill="none" stroke="#757575" d="M417.06,-161.1C432.57,-165.16 449.64,-170.08 465,-175.5 481.51,-181.33 484.5,-185.65 501,-191.5 527.16,-200.77 556.73,-209.07 582.01,-215.52"/>
<polygon fill="#757575" stroke="#757575" points="581.28,-218.94 591.83,-217.99 582.99,-212.16 581.28,-218.94"/>
</g>
<!-- app/pages/welcome/welcome.module.ts -->
<g id="node5" class="node">
<title>app/pages/welcome/welcome.module.ts</title>
<path fill="none" stroke="#c6c5fe" d="M771.33,-182C771.33,-182 514.67,-182 514.67,-182 510.83,-182 507,-178.17 507,-174.33 507,-174.33 507,-166.67 507,-166.67 507,-162.83 510.83,-159 514.67,-159 514.67,-159 771.33,-159 771.33,-159 775.17,-159 779,-162.83 779,-166.67 779,-166.67 779,-174.33 779,-174.33 779,-178.17 775.17,-182 771.33,-182"/>
<text text-anchor="middle" x="643" y="-166.8" font-family="Arial" font-size="14.00" fill="#c6c5fe">app/pages/welcome/welcome.module.ts</text>
</g>
<!-- app/app&#45;routing.module.ts&#45;&gt;app/pages/welcome/welcome.module.ts -->
<g id="edge4" class="edge">
<title>app/app&#45;routing.module.ts&#45;&gt;app/pages/welcome/welcome.module.ts</title>
<path fill="none" stroke="#757575" d="M457.76,-156.41C470.34,-157.37 483.51,-158.38 496.79,-159.39"/>
<polygon fill="#757575" stroke="#757575" points="496.71,-162.9 506.95,-160.17 497.25,-155.92 496.71,-162.9"/>
</g>
<!-- app/shared/state/filters.ts -->
<g id="node10" class="node">
<title>app/shared/state/filters.ts</title>
<path fill="none" stroke="#c6c5fe" d="M2097.83,-301C2097.83,-301 1937.17,-301 1937.17,-301 1933.33,-301 1929.5,-297.17 1929.5,-293.33 1929.5,-293.33 1929.5,-285.67 1929.5,-285.67 1929.5,-281.83 1933.33,-278 1937.17,-278 1937.17,-278 2097.83,-278 2097.83,-278 2101.67,-278 2105.5,-281.83 2105.5,-285.67 2105.5,-285.67 2105.5,-293.33 2105.5,-293.33 2105.5,-297.17 2101.67,-301 2097.83,-301"/>
<text text-anchor="middle" x="2017.5" y="-285.8" font-family="Arial" font-size="14.00" fill="#c6c5fe">app/shared/state/filters.ts</text>
</g>
<!-- app/pages/filter/filter.component.ts&#45;&gt;app/shared/state/filters.ts -->
<g id="edge11" class="edge">
<title>app/pages/filter/filter.component.ts&#45;&gt;app/shared/state/filters.ts</title>
<path fill="none" stroke="#757575" d="M761.07,-307.05C781.06,-308.07 801.62,-308.95 821,-309.5 1229.11,-321.02 1715.78,-303.03 1919.41,-294.08"/>
<polygon fill="#757575" stroke="#757575" points="1919.65,-297.57 1929.48,-293.63 1919.34,-290.58 1919.65,-297.57"/>
</g>
<!-- app/shared/state/users&#45;query.service.ts -->
<g id="node11" class="node">
<title>app/shared/state/users&#45;query.service.ts</title>
<path fill="none" stroke="#c6c5fe" d="M1841.33,-380C1841.33,-380 1590.67,-380 1590.67,-380 1586.83,-380 1583,-376.17 1583,-372.33 1583,-372.33 1583,-364.67 1583,-364.67 1583,-360.83 1586.83,-357 1590.67,-357 1590.67,-357 1841.33,-357 1841.33,-357 1845.17,-357 1849,-360.83 1849,-364.67 1849,-364.67 1849,-372.33 1849,-372.33 1849,-376.17 1845.17,-380 1841.33,-380"/>
<text text-anchor="middle" x="1716" y="-364.8" font-family="Arial" font-size="14.00" fill="#c6c5fe">app/shared/state/users&#45;query.service.ts</text>
</g>
<!-- app/pages/filter/filter.component.ts&#45;&gt;app/shared/state/users&#45;query.service.ts -->
<g id="edge12" class="edge">
<title>app/pages/filter/filter.component.ts&#45;&gt;app/shared/state/users&#45;query.service.ts</title>
<path fill="none" stroke="#757575" d="M681.54,-311.05C717.08,-321.4 772.11,-335.92 821,-342.5 1084.61,-377.96 1395.72,-377.6 1572.74,-373.49"/>
<polygon fill="#757575" stroke="#757575" points="1572.98,-376.98 1582.89,-373.25 1572.81,-369.99 1572.98,-376.98"/>
</g>
<!-- app/pages/progress&#45;filter/progress&#45;filter.component.ts&#45;&gt;app/shared/state/users&#45;query.service.ts -->
<g id="edge14" class="edge">
<title>app/pages/progress&#45;filter/progress&#45;filter.component.ts&#45;&gt;app/shared/state/users&#45;query.service.ts</title>
<path fill="none" stroke="#757575" d="M1531.24,-101.18C1536.68,-103.62 1541.96,-106.39 1547,-109.5 1639.58,-166.71 1690.99,-296.11 1708.3,-347.19"/>
<polygon fill="#757575" stroke="#757575" points="1705.02,-348.44 1711.47,-356.85 1711.67,-346.25 1705.02,-348.44"/>
</g>
<!-- app/pages/progress&#45;filter/utils.ts -->
<g id="node12" class="node">
<title>app/pages/progress&#45;filter/utils.ts</title>
<path fill="none" stroke="#cfffac" d="M1818.33,-101C1818.33,-101 1613.67,-101 1613.67,-101 1609.83,-101 1606,-97.17 1606,-93.33 1606,-93.33 1606,-85.67 1606,-85.67 1606,-81.83 1609.83,-78 1613.67,-78 1613.67,-78 1818.33,-78 1818.33,-78 1822.17,-78 1826,-81.83 1826,-85.67 1826,-85.67 1826,-93.33 1826,-93.33 1826,-97.17 1822.17,-101 1818.33,-101"/>
<text text-anchor="middle" x="1716" y="-85.8" font-family="Arial" font-size="14.00" fill="#cfffac">app/pages/progress&#45;filter/utils.ts</text>
</g>
<!-- app/pages/progress&#45;filter/progress&#45;filter.component.ts&#45;&gt;app/pages/progress&#45;filter/utils.ts -->
<g id="edge13" class="edge">
<title>app/pages/progress&#45;filter/progress&#45;filter.component.ts&#45;&gt;app/pages/progress&#45;filter/utils.ts</title>
<path fill="none" stroke="#757575" d="M1547.08,-89.5C1563.52,-89.5 1579.9,-89.5 1595.62,-89.5"/>
<polygon fill="#757575" stroke="#757575" points="1595.85,-93 1605.85,-89.5 1595.85,-86 1595.85,-93"/>
</g>
<!-- app/shared/shared.module.ts -->
<g id="node8" class="node">
<title>app/shared/shared.module.ts</title>
<path fill="none" stroke="#c6c5fe" d="M1079.33,-141C1079.33,-141 893.67,-141 893.67,-141 889.83,-141 886,-137.17 886,-133.33 886,-133.33 886,-125.67 886,-125.67 886,-121.83 889.83,-118 893.67,-118 893.67,-118 1079.33,-118 1079.33,-118 1083.17,-118 1087,-121.83 1087,-125.67 1087,-125.67 1087,-133.33 1087,-133.33 1087,-137.17 1083.17,-141 1079.33,-141"/>
<text text-anchor="middle" x="986.5" y="-125.8" font-family="Arial" font-size="14.00" fill="#c6c5fe">app/shared/shared.module.ts</text>
</g>
<!-- app/pages/user&#45;table/user&#45;table.module.ts&#45;&gt;app/shared/shared.module.ts -->
<g id="edge23" class="edge">
<title>app/pages/user&#45;table/user&#45;table.module.ts&#45;&gt;app/shared/shared.module.ts</title>
<path fill="none" stroke="#757575" d="M719.53,-217.92C741.77,-212.26 765.38,-203.88 785,-191.5 805.79,-178.38 799.33,-161.1 821,-149.5 837.74,-140.54 856.78,-134.87 875.82,-131.39"/>
<polygon fill="#757575" stroke="#757575" points="876.47,-134.83 885.77,-129.76 875.34,-127.92 876.47,-134.83"/>
</g>
<!-- app/pages/user&#45;table/user&#45;table&#45;routing.module.ts -->
<g id="node13" class="node">
<title>app/pages/user&#45;table/user&#45;table&#45;routing.module.ts</title>
<path fill="none" stroke="#c6c5fe" d="M1144.33,-300C1144.33,-300 828.67,-300 828.67,-300 824.83,-300 821,-296.17 821,-292.33 821,-292.33 821,-284.67 821,-284.67 821,-280.83 824.83,-277 828.67,-277 828.67,-277 1144.33,-277 1144.33,-277 1148.17,-277 1152,-280.83 1152,-284.67 1152,-284.67 1152,-292.33 1152,-292.33 1152,-296.17 1148.17,-300 1144.33,-300"/>
<text text-anchor="middle" x="986.5" y="-284.8" font-family="Arial" font-size="14.00" fill="#c6c5fe">app/pages/user&#45;table/user&#45;table&#45;routing.module.ts</text>
</g>
<!-- app/pages/user&#45;table/user&#45;table.module.ts&#45;&gt;app/pages/user&#45;table/user&#45;table&#45;routing.module.ts -->
<g id="edge21" class="edge">
<title>app/pages/user&#45;table/user&#45;table.module.ts&#45;&gt;app/pages/user&#45;table/user&#45;table&#45;routing.module.ts</title>
<path fill="none" stroke="#757575" d="M703.73,-241.06C738.01,-247.59 781.88,-255.76 821,-262.5 846.53,-266.9 874.34,-271.4 899.71,-275.4"/>
<polygon fill="#757575" stroke="#757575" points="899.25,-278.87 909.67,-276.96 900.34,-271.95 899.25,-278.87"/>
</g>
<!-- app/pages/user&#45;table/user&#45;table.component.ts -->
<g id="node14" class="node">
<title>app/pages/user&#45;table/user&#45;table.component.ts</title>
<path fill="none" stroke="#c6c5fe" d="M1513.83,-261C1513.83,-261 1221.17,-261 1221.17,-261 1217.33,-261 1213.5,-257.17 1213.5,-253.33 1213.5,-253.33 1213.5,-245.67 1213.5,-245.67 1213.5,-241.83 1217.33,-238 1221.17,-238 1221.17,-238 1513.83,-238 1513.83,-238 1517.67,-238 1521.5,-241.83 1521.5,-245.67 1521.5,-245.67 1521.5,-253.33 1521.5,-253.33 1521.5,-257.17 1517.67,-261 1513.83,-261"/>
<text text-anchor="middle" x="1367.5" y="-245.8" font-family="Arial" font-size="14.00" fill="#c6c5fe">app/pages/user&#45;table/user&#45;table.component.ts</text>
</g>
<!-- app/pages/user&#45;table/user&#45;table.module.ts&#45;&gt;app/pages/user&#45;table/user&#45;table.component.ts -->
<g id="edge22" class="edge">
<title>app/pages/user&#45;table/user&#45;table.module.ts&#45;&gt;app/pages/user&#45;table/user&#45;table.component.ts</title>
<path fill="none" stroke="#757575" d="M785.02,-233.4C904.97,-236.72 1077.31,-241.49 1203.22,-244.98"/>
<polygon fill="#757575" stroke="#757575" points="1203.25,-248.48 1213.35,-245.26 1203.45,-241.48 1203.25,-248.48"/>
</g>
<!-- app/pages/welcome/welcome&#45;routing.module.ts -->
<g id="node18" class="node">
<title>app/pages/welcome/welcome&#45;routing.module.ts</title>
<path fill="none" stroke="#c6c5fe" d="M1138.33,-182C1138.33,-182 834.67,-182 834.67,-182 830.83,-182 827,-178.17 827,-174.33 827,-174.33 827,-166.67 827,-166.67 827,-162.83 830.83,-159 834.67,-159 834.67,-159 1138.33,-159 1138.33,-159 1142.17,-159 1146,-162.83 1146,-166.67 1146,-166.67 1146,-174.33 1146,-174.33 1146,-178.17 1142.17,-182 1138.33,-182"/>
<text text-anchor="middle" x="986.5" y="-166.8" font-family="Arial" font-size="14.00" fill="#c6c5fe">app/pages/welcome/welcome&#45;routing.module.ts</text>
</g>
<!-- app/pages/welcome/welcome.module.ts&#45;&gt;app/pages/welcome/welcome&#45;routing.module.ts -->
<g id="edge25" class="edge">
<title>app/pages/welcome/welcome.module.ts&#45;&gt;app/pages/welcome/welcome&#45;routing.module.ts</title>
<path fill="none" stroke="#757575" d="M779.46,-170.5C791.73,-170.5 804.25,-170.5 816.76,-170.5"/>
<polygon fill="#757575" stroke="#757575" points="816.79,-174 826.79,-170.5 816.79,-167 816.79,-174"/>
</g>
<!-- app/pages/welcome/welcome.component.ts -->
<g id="node19" class="node">
<title>app/pages/welcome/welcome.component.ts</title>
<path fill="none" stroke="#cfffac" d="M1507.83,-202C1507.83,-202 1227.17,-202 1227.17,-202 1223.33,-202 1219.5,-198.17 1219.5,-194.33 1219.5,-194.33 1219.5,-186.67 1219.5,-186.67 1219.5,-182.83 1223.33,-179 1227.17,-179 1227.17,-179 1507.83,-179 1507.83,-179 1511.67,-179 1515.5,-182.83 1515.5,-186.67 1515.5,-186.67 1515.5,-194.33 1515.5,-194.33 1515.5,-198.17 1511.67,-202 1507.83,-202"/>
<text text-anchor="middle" x="1367.5" y="-186.8" font-family="Arial" font-size="14.00" fill="#cfffac">app/pages/welcome/welcome.component.ts</text>
</g>
<!-- app/pages/welcome/welcome.module.ts&#45;&gt;app/pages/welcome/welcome.component.ts -->
<g id="edge26" class="edge">
<title>app/pages/welcome/welcome.module.ts&#45;&gt;app/pages/welcome/welcome.component.ts</title>
<path fill="none" stroke="#757575" d="M724,-182.02C754.32,-185.85 789.18,-189.62 821,-191.5 951.64,-199.22 1100.19,-198.32 1209.25,-195.85"/>
<polygon fill="#757575" stroke="#757575" points="1209.43,-199.34 1219.34,-195.61 1209.26,-192.35 1209.43,-199.34"/>
</g>
<!-- app/app.component.ts -->
<g id="node6" class="node">
<title>app/app.component.ts</title>
<path fill="none" stroke="#cfffac" d="M437.83,-241C437.83,-241 295.17,-241 295.17,-241 291.33,-241 287.5,-237.17 287.5,-233.33 287.5,-233.33 287.5,-225.67 287.5,-225.67 287.5,-221.83 291.33,-218 295.17,-218 295.17,-218 437.83,-218 437.83,-218 441.67,-218 445.5,-221.83 445.5,-225.67 445.5,-225.67 445.5,-233.33 445.5,-233.33 445.5,-237.17 441.67,-241 437.83,-241"/>
<text text-anchor="middle" x="366.5" y="-225.8" font-family="Arial" font-size="14.00" fill="#cfffac">app/app.component.ts</text>
</g>
<!-- app/app.module.ts -->
<g id="node7" class="node">
<title>app/app.module.ts</title>
<path fill="none" stroke="#c6c5fe" d="M224.33,-101C224.33,-101 105.67,-101 105.67,-101 101.83,-101 98,-97.17 98,-93.33 98,-93.33 98,-85.67 98,-85.67 98,-81.83 101.83,-78 105.67,-78 105.67,-78 224.33,-78 224.33,-78 228.17,-78 232,-81.83 232,-85.67 232,-85.67 232,-93.33 232,-93.33 232,-97.17 228.17,-101 224.33,-101"/>
<text text-anchor="middle" x="165" y="-85.8" font-family="Arial" font-size="14.00" fill="#c6c5fe">app/app.module.ts</text>
</g>
<!-- app/app.module.ts&#45;&gt;app/app&#45;routing.module.ts -->
<g id="edge5" class="edge">
<title>app/app.module.ts&#45;&gt;app/app&#45;routing.module.ts</title>
<path fill="none" stroke="#757575" d="M204.47,-101.07C236.62,-110.74 282.64,-124.58 317.26,-134.99"/>
<polygon fill="#757575" stroke="#757575" points="316.57,-138.44 327.15,-137.97 318.58,-131.74 316.57,-138.44"/>
</g>
<!-- app/app.module.ts&#45;&gt;app/pages/filter/filter.component.ts -->
<g id="edge7" class="edge">
<title>app/app.module.ts&#45;&gt;app/pages/filter/filter.component.ts</title>
<path fill="none" stroke="#757575" d="M177.03,-101.09C194.55,-118.77 230.61,-152.23 268,-169.5 349.11,-206.96 387.7,-164.7 465,-209.5 485.98,-221.66 480.88,-236.96 501,-250.5 524.45,-266.28 553.51,-277.51 579.15,-285.2"/>
<polygon fill="#757575" stroke="#757575" points="578.21,-288.57 588.78,-287.98 580.14,-281.84 578.21,-288.57"/>
</g>
<!-- app/app.module.ts&#45;&gt;app/pages/progress&#45;filter/progress&#45;filter.component.ts -->
<g id="edge8" class="edge">
<title>app/app.module.ts&#45;&gt;app/pages/progress&#45;filter/progress&#45;filter.component.ts</title>
<path fill="none" stroke="#757575" d="M232.25,-89.5C410.33,-89.5 904.26,-89.5 1177.92,-89.5"/>
<polygon fill="#757575" stroke="#757575" points="1177.96,-93 1187.96,-89.5 1177.96,-86 1177.96,-93"/>
</g>
<!-- app/app.module.ts&#45;&gt;app/app.component.ts -->
<g id="edge6" class="edge">
<title>app/app.module.ts&#45;&gt;app/app.component.ts</title>
<path fill="none" stroke="#757575" d="M173.1,-101.22C187.79,-124.44 223.87,-176.4 268,-203.5 275.19,-207.91 283.12,-211.59 291.27,-214.64"/>
<polygon fill="#757575" stroke="#757575" points="290.3,-218.01 300.89,-217.95 292.58,-211.39 290.3,-218.01"/>
</g>
<!-- app/app.module.ts&#45;&gt;app/shared/shared.module.ts -->
<g id="edge9" class="edge">
<title>app/app.module.ts&#45;&gt;app/shared/shared.module.ts</title>
<path fill="none" stroke="#757575" d="M232.02,-92.72C372.64,-99.59 702.94,-115.71 875.75,-124.14"/>
<polygon fill="#757575" stroke="#757575" points="875.73,-127.65 885.89,-124.64 876.07,-120.65 875.73,-127.65"/>
</g>
<!-- environments/environment.ts -->
<g id="node9" class="node">
<title>environments/environment.ts</title>
<path fill="none" stroke="#cfffac" d="M457.33,-23C457.33,-23 275.67,-23 275.67,-23 271.83,-23 268,-19.17 268,-15.33 268,-15.33 268,-7.67 268,-7.67 268,-3.83 271.83,0 275.67,0 275.67,0 457.33,0 457.33,0 461.17,0 465,-3.83 465,-7.67 465,-7.67 465,-15.33 465,-15.33 465,-19.17 461.17,-23 457.33,-23"/>
<text text-anchor="middle" x="366.5" y="-7.8" font-family="Arial" font-size="14.00" fill="#cfffac">environments/environment.ts</text>
</g>
<!-- app/app.module.ts&#45;&gt;environments/environment.ts -->
<g id="edge10" class="edge">
<title>app/app.module.ts&#45;&gt;environments/environment.ts</title>
<path fill="none" stroke="#757575" d="M185.75,-77.85C205.88,-66.35 238.3,-48.88 268,-37.5 279.62,-33.05 292.29,-29.06 304.54,-25.63"/>
<polygon fill="#757575" stroke="#757575" points="305.51,-29 314.25,-23 303.68,-22.24 305.51,-29"/>
</g>
<!-- app/shared/shared.module.ts&#45;&gt;app/pages/progress&#45;filter/progress&#45;filter.component.ts -->
<g id="edge30" class="edge">
<title>app/shared/shared.module.ts&#45;&gt;app/pages/progress&#45;filter/progress&#45;filter.component.ts</title>
<path fill="none" stroke="#757575" d="M1087.08,-118.99C1136.12,-113.81 1195.61,-107.54 1247.08,-102.1"/>
<polygon fill="#757575" stroke="#757575" points="1247.69,-105.56 1257.26,-101.03 1246.95,-98.6 1247.69,-105.56"/>
</g>
<!-- app/shared/icons&#45;provider.module.ts -->
<g id="node20" class="node">
<title>app/shared/icons&#45;provider.module.ts</title>
<path fill="none" stroke="#cfffac" d="M1483.83,-142C1483.83,-142 1251.17,-142 1251.17,-142 1247.33,-142 1243.5,-138.17 1243.5,-134.33 1243.5,-134.33 1243.5,-126.67 1243.5,-126.67 1243.5,-122.83 1247.33,-119 1251.17,-119 1251.17,-119 1483.83,-119 1483.83,-119 1487.67,-119 1491.5,-122.83 1491.5,-126.67 1491.5,-126.67 1491.5,-134.33 1491.5,-134.33 1491.5,-138.17 1487.67,-142 1483.83,-142"/>
<text text-anchor="middle" x="1367.5" y="-126.8" font-family="Arial" font-size="14.00" fill="#cfffac">app/shared/icons&#45;provider.module.ts</text>
</g>
<!-- app/shared/shared.module.ts&#45;&gt;app/shared/icons&#45;provider.module.ts -->
<g id="edge31" class="edge">
<title>app/shared/shared.module.ts&#45;&gt;app/shared/icons&#45;provider.module.ts</title>
<path fill="none" stroke="#757575" d="M1087.08,-129.76C1131.71,-129.88 1185.02,-130.02 1233.04,-130.15"/>
<polygon fill="#757575" stroke="#757575" points="1233.19,-133.65 1243.2,-130.17 1233.21,-126.65 1233.19,-133.65"/>
</g>
<!-- app/shared/state/users/users.store.ts -->
<g id="node17" class="node">
<title>app/shared/state/users/users.store.ts</title>
<path fill="none" stroke="#c6c5fe" d="M2457.83,-337C2457.83,-337 2222.17,-337 2222.17,-337 2218.33,-337 2214.5,-333.17 2214.5,-329.33 2214.5,-329.33 2214.5,-321.67 2214.5,-321.67 2214.5,-317.83 2218.33,-314 2222.17,-314 2222.17,-314 2457.83,-314 2457.83,-314 2461.67,-314 2465.5,-317.83 2465.5,-321.67 2465.5,-321.67 2465.5,-329.33 2465.5,-329.33 2465.5,-333.17 2461.67,-337 2457.83,-337"/>
<text text-anchor="middle" x="2340" y="-321.8" font-family="Arial" font-size="14.00" fill="#c6c5fe">app/shared/state/users/users.store.ts</text>
</g>
<!-- app/shared/state/filters.ts&#45;&gt;app/shared/state/users/users.store.ts -->
<g id="edge32" class="edge">
<title>app/shared/state/filters.ts&#45;&gt;app/shared/state/users/users.store.ts</title>
<path fill="none" stroke="#757575" d="M2105.65,-299.29C2142.91,-303.47 2186.87,-308.41 2226.53,-312.87"/>
<polygon fill="#757575" stroke="#757575" points="2226.18,-316.35 2236.51,-313.99 2226.97,-309.39 2226.18,-316.35"/>
</g>
<!-- app/shared/state/users&#45;query.service.ts&#45;&gt;app/shared/state/filters.ts -->
<g id="edge40" class="edge">
<title>app/shared/state/users&#45;query.service.ts&#45;&gt;app/shared/state/filters.ts</title>
<path fill="none" stroke="#757575" d="M1804.63,-356.99C1819.8,-353.39 1835.13,-348.68 1849,-342.5 1867.27,-334.36 1866.73,-323.64 1885,-315.5 1895.79,-310.69 1907.48,-306.76 1919.28,-303.56"/>
<polygon fill="#757575" stroke="#757575" points="1920.37,-306.89 1929.2,-301.04 1918.65,-300.11 1920.37,-306.89"/>
</g>
<!-- app/shared/state/users&#45;query.service.ts&#45;&gt;app/shared/state/users/users.store.ts -->
<g id="edge44" class="edge">
<title>app/shared/state/users&#45;query.service.ts&#45;&gt;app/shared/state/users/users.store.ts</title>
<path fill="none" stroke="#757575" d="M1810.21,-356.95C1834.53,-354.22 1860.72,-351.51 1885,-349.5 1992.09,-340.62 2113.68,-334.4 2204.06,-330.52"/>
<polygon fill="#757575" stroke="#757575" points="2204.25,-334.01 2214.09,-330.09 2203.95,-327.02 2204.25,-334.01"/>
</g>
<!-- app/shared/in&#45;memory&#45;api/types.ts -->
<g id="node21" class="node">
<title>app/shared/in&#45;memory&#45;api/types.ts</title>
<path fill="none" stroke="#cfffac" d="M3394.33,-357C3394.33,-357 3174.67,-357 3174.67,-357 3170.83,-357 3167,-353.17 3167,-349.33 3167,-349.33 3167,-341.67 3167,-341.67 3167,-337.83 3170.83,-334 3174.67,-334 3174.67,-334 3394.33,-334 3394.33,-334 3398.17,-334 3402,-337.83 3402,-341.67 3402,-341.67 3402,-349.33 3402,-349.33 3402,-353.17 3398.17,-357 3394.33,-357"/>
<text text-anchor="middle" x="3284.5" y="-341.8" font-family="Arial" font-size="14.00" fill="#cfffac">app/shared/in&#45;memory&#45;api/types.ts</text>
</g>
<!-- app/shared/state/users&#45;query.service.ts&#45;&gt;app/shared/in&#45;memory&#45;api/types.ts -->
<g id="edge39" class="edge">
<title>app/shared/state/users&#45;query.service.ts&#45;&gt;app/shared/in&#45;memory&#45;api/types.ts</title>
<path fill="none" stroke="#757575" d="M1739.4,-380.12C1770.96,-395.92 1830.74,-423.79 1885,-437.5 2081.72,-487.21 2136.1,-485.5 2339,-485.5 2339,-485.5 2339,-485.5 2701,-485.5 2892.86,-485.5 2950.05,-511.27 3131,-447.5 3183.54,-428.98 3235.48,-388.15 3263.1,-364.15"/>
<polygon fill="#757575" stroke="#757575" points="3265.7,-366.52 3270.87,-357.28 3261.06,-361.28 3265.7,-366.52"/>
</g>
<!-- app/shared/state/progress/progress.query.ts -->
<g id="node23" class="node">
<title>app/shared/state/progress/progress.query.ts</title>
<path fill="none" stroke="#c6c5fe" d="M2481.33,-457C2481.33,-457 2198.67,-457 2198.67,-457 2194.83,-457 2191,-453.17 2191,-449.33 2191,-449.33 2191,-441.67 2191,-441.67 2191,-437.83 2194.83,-434 2198.67,-434 2198.67,-434 2481.33,-434 2481.33,-434 2485.17,-434 2489,-437.83 2489,-441.67 2489,-441.67 2489,-449.33 2489,-449.33 2489,-453.17 2485.17,-457 2481.33,-457"/>
<text text-anchor="middle" x="2340" y="-441.8" font-family="Arial" font-size="14.00" fill="#c6c5fe">app/shared/state/progress/progress.query.ts</text>
</g>
<!-- app/shared/state/users&#45;query.service.ts&#45;&gt;app/shared/state/progress/progress.query.ts -->
<g id="edge41" class="edge">
<title>app/shared/state/users&#45;query.service.ts&#45;&gt;app/shared/state/progress/progress.query.ts</title>
<path fill="none" stroke="#757575" d="M1755.32,-380.04C1789.12,-389.74 1839.89,-403.18 1885,-410.5 1982.58,-426.34 2093.17,-435.06 2180.76,-439.83"/>
<polygon fill="#757575" stroke="#757575" points="2180.61,-443.33 2190.78,-440.37 2180.99,-436.34 2180.61,-443.33"/>
</g>
<!-- app/shared/state/progress/progress.service.ts -->
<g id="node25" class="node">
<title>app/shared/state/progress/progress.service.ts</title>
<path fill="none" stroke="#c6c5fe" d="M2486.33,-416C2486.33,-416 2193.67,-416 2193.67,-416 2189.83,-416 2186,-412.17 2186,-408.33 2186,-408.33 2186,-400.67 2186,-400.67 2186,-396.83 2189.83,-393 2193.67,-393 2193.67,-393 2486.33,-393 2486.33,-393 2490.17,-393 2494,-396.83 2494,-400.67 2494,-400.67 2494,-408.33 2494,-408.33 2494,-412.17 2490.17,-416 2486.33,-416"/>
<text text-anchor="middle" x="2340" y="-400.8" font-family="Arial" font-size="14.00" fill="#c6c5fe">app/shared/state/progress/progress.service.ts</text>
</g>
<!-- app/shared/state/users&#45;query.service.ts&#45;&gt;app/shared/state/progress/progress.service.ts -->
<g id="edge42" class="edge">
<title>app/shared/state/users&#45;query.service.ts&#45;&gt;app/shared/state/progress/progress.service.ts</title>
<path fill="none" stroke="#757575" d="M1792.52,-380.01C1821.38,-383.99 1854.65,-388.05 1885,-390.5 1981.21,-398.26 2089.21,-401.8 2175.73,-403.38"/>
<polygon fill="#757575" stroke="#757575" points="2175.84,-406.89 2185.9,-403.56 2175.96,-399.89 2175.84,-406.89"/>
</g>
<!-- app/shared/state/users/users.query.ts -->
<g id="node27" class="node">
<title>app/shared/state/users/users.query.ts</title>
<path fill="none" stroke="#c6c5fe" d="M2136.83,-381C2136.83,-381 1898.17,-381 1898.17,-381 1894.33,-381 1890.5,-377.17 1890.5,-373.33 1890.5,-373.33 1890.5,-365.67 1890.5,-365.67 1890.5,-361.83 1894.33,-358 1898.17,-358 1898.17,-358 2136.83,-358 2136.83,-358 2140.67,-358 2144.5,-361.83 2144.5,-365.67 2144.5,-365.67 2144.5,-373.33 2144.5,-373.33 2144.5,-377.17 2140.67,-381 2136.83,-381"/>
<text text-anchor="middle" x="2017.5" y="-365.8" font-family="Arial" font-size="14.00" fill="#c6c5fe">app/shared/state/users/users.query.ts</text>
</g>
<!-- app/shared/state/users&#45;query.service.ts&#45;&gt;app/shared/state/users/users.query.ts -->
<g id="edge43" class="edge">
<title>app/shared/state/users&#45;query.service.ts&#45;&gt;app/shared/state/users/users.query.ts</title>
<path fill="none" stroke="#757575" d="M1849.24,-368.94C1859.46,-368.98 1869.8,-369.01 1880.05,-369.04"/>
<polygon fill="#757575" stroke="#757575" points="1880.25,-372.55 1890.26,-369.08 1880.28,-365.55 1880.25,-372.55"/>
</g>
<!-- app/pages/user&#45;table/user&#45;table&#45;routing.module.ts&#45;&gt;app/pages/user&#45;table/user&#45;table.component.ts -->
<g id="edge15" class="edge">
<title>app/pages/user&#45;table/user&#45;table&#45;routing.module.ts&#45;&gt;app/pages/user&#45;table/user&#45;table.component.ts</title>
<path fill="none" stroke="#757575" d="M1099.42,-276.98C1144.98,-272.3 1197.77,-266.86 1244.33,-262.07"/>
<polygon fill="#757575" stroke="#757575" points="1244.88,-265.53 1254.47,-261.03 1244.16,-258.57 1244.88,-265.53"/>
</g>
<!-- app/pages/user&#45;table/user&#45;table.component.ts&#45;&gt;app/shared/state/filters.ts -->
<g id="edge17" class="edge">
<title>app/pages/user&#45;table/user&#45;table.component.ts&#45;&gt;app/shared/state/filters.ts</title>
<path fill="none" stroke="#757575" d="M1521.7,-259.6C1542.3,-260.93 1563.17,-262.26 1583,-263.5 1698.45,-270.73 1831.22,-278.63 1919.09,-283.8"/>
<polygon fill="#757575" stroke="#757575" points="1919.12,-287.31 1929.31,-284.41 1919.53,-280.32 1919.12,-287.31"/>
</g>
<!-- app/pages/user&#45;table/user&#45;table.component.ts&#45;&gt;app/shared/state/users&#45;query.service.ts -->
<g id="edge18" class="edge">
<title>app/pages/user&#45;table/user&#45;table.component.ts&#45;&gt;app/shared/state/users&#45;query.service.ts</title>
<path fill="none" stroke="#757575" d="M1402.04,-261.02C1465.17,-282.7 1601.59,-329.55 1671.61,-353.6"/>
<polygon fill="#757575" stroke="#757575" points="1670.85,-357.04 1681.44,-356.98 1673.12,-350.42 1670.85,-357.04"/>
</g>
<!-- app/shared/in&#45;memory&#45;api/in&#45;memory&#45;api.service.ts -->
<g id="node15" class="node">
<title>app/shared/in&#45;memory&#45;api/in&#45;memory&#45;api.service.ts</title>
<path fill="none" stroke="#c6c5fe" d="M2862.33,-259C2862.33,-259 2537.67,-259 2537.67,-259 2533.83,-259 2530,-255.17 2530,-251.33 2530,-251.33 2530,-243.67 2530,-243.67 2530,-239.83 2533.83,-236 2537.67,-236 2537.67,-236 2862.33,-236 2862.33,-236 2866.17,-236 2870,-239.83 2870,-243.67 2870,-243.67 2870,-251.33 2870,-251.33 2870,-255.17 2866.17,-259 2862.33,-259"/>
<text text-anchor="middle" x="2700" y="-243.8" font-family="Arial" font-size="14.00" fill="#c6c5fe">app/shared/in&#45;memory&#45;api/in&#45;memory&#45;api.service.ts</text>
</g>
<!-- app/pages/user&#45;table/user&#45;table.component.ts&#45;&gt;app/shared/in&#45;memory&#45;api/in&#45;memory&#45;api.service.ts -->
<g id="edge16" class="edge">
<title>app/pages/user&#45;table/user&#45;table.component.ts&#45;&gt;app/shared/in&#45;memory&#45;api/in&#45;memory&#45;api.service.ts</title>
<path fill="none" stroke="#757575" d="M1434.05,-237.92C1476.44,-230.73 1532.86,-221.71 1583,-215.5 1984.82,-165.75 2091.77,-171.16 2494,-217.5 2534.66,-222.19 2579.69,-228.63 2617.15,-234.35"/>
<polygon fill="#757575" stroke="#757575" points="2617.1,-237.88 2627.51,-235.94 2618.16,-230.96 2617.1,-237.88"/>
</g>
<!-- app/shared/state/users/users.service.ts -->
<g id="node16" class="node">
<title>app/shared/state/users/users.service.ts</title>
<path fill="none" stroke="#c6c5fe" d="M2142.33,-221C2142.33,-221 1892.67,-221 1892.67,-221 1888.83,-221 1885,-217.17 1885,-213.33 1885,-213.33 1885,-205.67 1885,-205.67 1885,-201.83 1888.83,-198 1892.67,-198 1892.67,-198 2142.33,-198 2142.33,-198 2146.17,-198 2150,-201.83 2150,-205.67 2150,-205.67 2150,-213.33 2150,-213.33 2150,-217.17 2146.17,-221 2142.33,-221"/>
<text text-anchor="middle" x="2017.5" y="-205.8" font-family="Arial" font-size="14.00" fill="#c6c5fe">app/shared/state/users/users.service.ts</text>
</g>
<!-- app/pages/user&#45;table/user&#45;table.component.ts&#45;&gt;app/shared/state/users/users.service.ts -->
<g id="edge19" class="edge">
<title>app/pages/user&#45;table/user&#45;table.component.ts&#45;&gt;app/shared/state/users/users.service.ts</title>
<path fill="none" stroke="#757575" d="M1521.7,-239.4C1542.3,-238.07 1563.17,-236.74 1583,-235.5 1680.26,-229.41 1789.8,-222.84 1874.44,-217.83"/>
<polygon fill="#757575" stroke="#757575" points="1874.86,-221.31 1884.64,-217.23 1874.45,-214.32 1874.86,-221.31"/>
</g>
<!-- app/pages/user&#45;table/user&#45;table.component.ts&#45;&gt;app/shared/state/users/users.store.ts -->
<g id="edge20" class="edge">
<title>app/pages/user&#45;table/user&#45;table.component.ts&#45;&gt;app/shared/state/users/users.store.ts</title>
<path fill="none" stroke="#757575" d="M1521.58,-241.64C1679.92,-236.26 1933.83,-235.32 2150,-269.5 2202.91,-277.87 2261.77,-296.93 2299.52,-310.49"/>
<polygon fill="#757575" stroke="#757575" points="2298.53,-313.85 2309.12,-313.98 2300.92,-307.27 2298.53,-313.85"/>
</g>
<!-- app/shared/in&#45;memory&#45;api/in&#45;memory&#45;api.service.ts&#45;&gt;app/shared/in&#45;memory&#45;api/types.ts -->
<g id="edge27" class="edge">
<title>app/shared/in&#45;memory&#45;api/in&#45;memory&#45;api.service.ts&#45;&gt;app/shared/in&#45;memory&#45;api/types.ts</title>
<path fill="none" stroke="#757575" d="M2791.5,-259.05C2878.73,-270.64 3014.31,-289.84 3131,-311.5 3162.61,-317.37 3197.64,-325.09 3226.15,-331.69"/>
<polygon fill="#757575" stroke="#757575" points="3225.41,-335.11 3235.94,-333.98 3227,-328.3 3225.41,-335.11"/>
</g>
<!-- app/shared/in&#45;memory&#45;api/utils.ts -->
<g id="node22" class="node">
<title>app/shared/in&#45;memory&#45;api/utils.ts</title>
<path fill="none" stroke="#c6c5fe" d="M3123.33,-259C3123.33,-259 2913.67,-259 2913.67,-259 2909.83,-259 2906,-255.17 2906,-251.33 2906,-251.33 2906,-243.67 2906,-243.67 2906,-239.83 2909.83,-236 2913.67,-236 2913.67,-236 3123.33,-236 3123.33,-236 3127.17,-236 3131,-239.83 3131,-243.67 3131,-243.67 3131,-251.33 3131,-251.33 3131,-255.17 3127.17,-259 3123.33,-259"/>
<text text-anchor="middle" x="3018.5" y="-243.8" font-family="Arial" font-size="14.00" fill="#c6c5fe">app/shared/in&#45;memory&#45;api/utils.ts</text>
</g>
<!-- app/shared/in&#45;memory&#45;api/in&#45;memory&#45;api.service.ts&#45;&gt;app/shared/in&#45;memory&#45;api/utils.ts -->
<g id="edge28" class="edge">
<title>app/shared/in&#45;memory&#45;api/in&#45;memory&#45;api.service.ts&#45;&gt;app/shared/in&#45;memory&#45;api/utils.ts</title>
<path fill="none" stroke="#757575" d="M2870.37,-247.5C2878.94,-247.5 2887.46,-247.5 2895.84,-247.5"/>
<polygon fill="#757575" stroke="#757575" points="2895.98,-251 2905.98,-247.5 2895.98,-244 2895.98,-251"/>
</g>
<!-- app/shared/state/users/users.service.ts&#45;&gt;app/shared/in&#45;memory&#45;api/in&#45;memory&#45;api.service.ts -->
<g id="edge48" class="edge">
<title>app/shared/state/users/users.service.ts&#45;&gt;app/shared/in&#45;memory&#45;api/in&#45;memory&#45;api.service.ts</title>
<path fill="none" stroke="#757575" d="M2150.15,-219.19C2162.27,-220.01 2174.36,-220.79 2186,-221.5 2296.9,-228.28 2421.37,-234.62 2519.93,-239.34"/>
<polygon fill="#757575" stroke="#757575" points="2519.84,-242.84 2529.99,-239.82 2520.17,-235.85 2519.84,-242.84"/>
</g>
<!-- app/shared/state/users/users.service.ts&#45;&gt;app/shared/state/users/users.store.ts -->
<g id="edge50" class="edge">
<title>app/shared/state/users/users.service.ts&#45;&gt;app/shared/state/users/users.store.ts</title>
<path fill="none" stroke="#757575" d="M2103.87,-221.05C2119.56,-224.66 2135.54,-229.37 2150,-235.5 2167.93,-243.11 2168.95,-251.09 2186,-260.5 2222.02,-280.38 2265.38,-298.28 2296.72,-310.24"/>
<polygon fill="#757575" stroke="#757575" points="2295.86,-313.65 2306.45,-313.9 2298.33,-307.1 2295.86,-313.65"/>
</g>
<!-- app/shared/state/users/users.service.ts&#45;&gt;app/shared/in&#45;memory&#45;api/types.ts -->
<g id="edge49" class="edge">
<title>app/shared/state/users/users.service.ts&#45;&gt;app/shared/in&#45;memory&#45;api/types.ts</title>
<path fill="none" stroke="#757575" d="M2076.57,-197.97C2245.42,-167.05 2748.44,-93.31 3131,-227.5 3188.21,-247.57 3240.81,-298.31 3266.68,-326.27"/>
<polygon fill="#757575" stroke="#757575" points="3264.22,-328.78 3273.54,-333.83 3269.41,-324.08 3264.22,-328.78"/>
</g>
<!-- app/shared/state/users/users.store.ts&#45;&gt;app/shared/in&#45;memory&#45;api/types.ts -->
<g id="edge51" class="edge">
<title>app/shared/state/users/users.store.ts&#45;&gt;app/shared/in&#45;memory&#45;api/types.ts</title>
<path fill="none" stroke="#757575" d="M2465.67,-328.15C2645.51,-331.96 2975.93,-338.97 3156.86,-342.81"/>
<polygon fill="#757575" stroke="#757575" points="3156.89,-346.31 3166.96,-343.03 3157.03,-339.32 3156.89,-346.31"/>
</g>
<!-- app/shared/state/types.ts -->
<g id="node26" class="node">
<title>app/shared/state/types.ts</title>
<path fill="none" stroke="#c6c5fe" d="M3098.83,-377C3098.83,-377 2938.17,-377 2938.17,-377 2934.33,-377 2930.5,-373.17 2930.5,-369.33 2930.5,-369.33 2930.5,-361.67 2930.5,-361.67 2930.5,-357.83 2934.33,-354 2938.17,-354 2938.17,-354 3098.83,-354 3098.83,-354 3102.67,-354 3106.5,-357.83 3106.5,-361.67 3106.5,-361.67 3106.5,-369.33 3106.5,-369.33 3106.5,-373.17 3102.67,-377 3098.83,-377"/>
<text text-anchor="middle" x="3018.5" y="-361.8" font-family="Arial" font-size="14.00" fill="#c6c5fe">app/shared/state/types.ts</text>
</g>
<!-- app/shared/state/users/users.store.ts&#45;&gt;app/shared/state/types.ts -->
<g id="edge52" class="edge">
<title>app/shared/state/users/users.store.ts&#45;&gt;app/shared/state/types.ts</title>
<path fill="none" stroke="#757575" d="M2465.51,-335.09C2487.01,-336.64 2509.15,-338.17 2530,-339.5 2665.2,-348.11 2821.62,-356.11 2920.06,-360.9"/>
<polygon fill="#757575" stroke="#757575" points="2920.13,-364.4 2930.29,-361.39 2920.47,-357.41 2920.13,-364.4"/>
</g>
<!-- app/pages/welcome/welcome&#45;routing.module.ts&#45;&gt;app/pages/welcome/welcome.component.ts -->
<g id="edge24" class="edge">
<title>app/pages/welcome/welcome&#45;routing.module.ts&#45;&gt;app/pages/welcome/welcome.component.ts</title>
<path fill="none" stroke="#757575" d="M1146.03,-178.87C1166.95,-179.97 1188.39,-181.1 1209.28,-182.2"/>
<polygon fill="#757575" stroke="#757575" points="1209.32,-185.71 1219.49,-182.74 1209.69,-178.72 1209.32,-185.71"/>
</g>
<!-- app/shared/in&#45;memory&#45;api/utils.ts&#45;&gt;app/shared/in&#45;memory&#45;api/types.ts -->
<g id="edge29" class="edge">
<title>app/shared/in&#45;memory&#45;api/utils.ts&#45;&gt;app/shared/in&#45;memory&#45;api/types.ts</title>
<path fill="none" stroke="#757575" d="M3079.48,-259.03C3096.35,-262.93 3114.58,-267.78 3131,-273.5 3174.91,-288.79 3223.03,-312.82 3253.24,-328.86"/>
<polygon fill="#757575" stroke="#757575" points="3251.92,-332.12 3262.39,-333.77 3255.23,-325.96 3251.92,-332.12"/>
</g>
<!-- app/shared/state/progress/progress.store.ts -->
<g id="node24" class="node">
<title>app/shared/state/progress/progress.store.ts</title>
<path fill="none" stroke="#c6c5fe" d="M2839.83,-457C2839.83,-457 2560.17,-457 2560.17,-457 2556.33,-457 2552.5,-453.17 2552.5,-449.33 2552.5,-449.33 2552.5,-441.67 2552.5,-441.67 2552.5,-437.83 2556.33,-434 2560.17,-434 2560.17,-434 2839.83,-434 2839.83,-434 2843.67,-434 2847.5,-437.83 2847.5,-441.67 2847.5,-441.67 2847.5,-449.33 2847.5,-449.33 2847.5,-453.17 2843.67,-457 2839.83,-457"/>
<text text-anchor="middle" x="2700" y="-441.8" font-family="Arial" font-size="14.00" fill="#c6c5fe">app/shared/state/progress/progress.store.ts</text>
</g>
<!-- app/shared/state/progress/progress.query.ts&#45;&gt;app/shared/state/progress/progress.store.ts -->
<g id="edge33" class="edge">
<title>app/shared/state/progress/progress.query.ts&#45;&gt;app/shared/state/progress/progress.store.ts</title>
<path fill="none" stroke="#757575" d="M2489.2,-445.5C2506.64,-445.5 2524.49,-445.5 2542.05,-445.5"/>
<polygon fill="#757575" stroke="#757575" points="2542.36,-449 2552.36,-445.5 2542.36,-442 2542.36,-449"/>
</g>
<!-- app/shared/state/progress/progress.store.ts&#45;&gt;app/shared/in&#45;memory&#45;api/types.ts -->
<g id="edge37" class="edge">
<title>app/shared/state/progress/progress.store.ts&#45;&gt;app/shared/in&#45;memory&#45;api/types.ts</title>
<path fill="none" stroke="#757575" d="M2847.53,-450.68C2931.73,-450.2 3038.75,-443.65 3131,-419.5 3177.75,-407.26 3227.28,-380.27 3256.78,-362.49"/>
<polygon fill="#757575" stroke="#757575" points="3258.93,-365.28 3265.63,-357.07 3255.27,-359.31 3258.93,-365.28"/>
</g>
<!-- app/shared/state/progress/progress.service.ts&#45;&gt;app/shared/in&#45;memory&#45;api/in&#45;memory&#45;api.service.ts -->
<g id="edge34" class="edge">
<title>app/shared/state/progress/progress.service.ts&#45;&gt;app/shared/in&#45;memory&#45;api/in&#45;memory&#45;api.service.ts</title>
<path fill="none" stroke="#757575" d="M2373.86,-392.98C2405.07,-381.83 2453.16,-364.06 2494,-346.5 2556.52,-319.61 2627.68,-284.11 2667.58,-263.74"/>
<polygon fill="#757575" stroke="#757575" points="2669.24,-266.82 2676.55,-259.14 2666.05,-260.59 2669.24,-266.82"/>
</g>
<!-- app/shared/state/progress/progress.service.ts&#45;&gt;app/shared/in&#45;memory&#45;api/types.ts -->
<g id="edge35" class="edge">
<title>app/shared/state/progress/progress.service.ts&#45;&gt;app/shared/in&#45;memory&#45;api/types.ts</title>
<path fill="none" stroke="#757575" d="M2494.08,-411.81C2653.89,-416.92 2911.35,-418.06 3131,-386.5 3168.42,-381.12 3209.78,-369.64 3239.98,-360.19"/>
<polygon fill="#757575" stroke="#757575" points="3241.3,-363.44 3249.77,-357.08 3239.18,-356.77 3241.3,-363.44"/>
</g>
<!-- app/shared/state/progress/progress.service.ts&#45;&gt;app/shared/state/progress/progress.store.ts -->
<g id="edge36" class="edge">
<title>app/shared/state/progress/progress.service.ts&#45;&gt;app/shared/state/progress/progress.store.ts</title>
<path fill="none" stroke="#757575" d="M2441.68,-416.03C2487.34,-421.26 2541.47,-427.46 2588.28,-432.82"/>
<polygon fill="#757575" stroke="#757575" points="2588.13,-436.33 2598.46,-433.99 2588.92,-429.37 2588.13,-436.33"/>
</g>
<!-- app/shared/state/types.ts&#45;&gt;app/shared/in&#45;memory&#45;api/types.ts -->
<g id="edge38" class="edge">
<title>app/shared/state/types.ts&#45;&gt;app/shared/in&#45;memory&#45;api/types.ts</title>
<path fill="none" stroke="#757575" d="M3106.68,-358.9C3122.6,-357.69 3139.5,-356.41 3156.31,-355.14"/>
<polygon fill="#757575" stroke="#757575" points="3157.04,-358.59 3166.75,-354.35 3156.51,-351.61 3157.04,-358.59"/>
</g>
<!-- app/shared/state/users/users.query.ts&#45;&gt;app/shared/state/users/users.store.ts -->
<g id="edge47" class="edge">
<title>app/shared/state/users/users.query.ts&#45;&gt;app/shared/state/users/users.store.ts</title>
<path fill="none" stroke="#757575" d="M2102.29,-358C2146.09,-351.98 2199.84,-344.61 2245.04,-338.4"/>
<polygon fill="#757575" stroke="#757575" points="2245.71,-341.84 2255.14,-337.01 2244.76,-334.9 2245.71,-341.84"/>
</g>
<!-- app/shared/state/users/users.query.ts&#45;&gt;app/shared/state/progress/progress.query.ts -->
<g id="edge45" class="edge">
<title>app/shared/state/users/users.query.ts&#45;&gt;app/shared/state/progress/progress.query.ts</title>
<path fill="none" stroke="#757575" d="M2047.36,-381.05C2080.36,-393.8 2136.25,-414.04 2186,-425.5 2197.22,-428.08 2208.98,-430.36 2220.79,-432.37"/>
<polygon fill="#757575" stroke="#757575" points="2220.27,-435.83 2230.71,-433.99 2221.4,-428.92 2220.27,-435.83"/>
</g>
<!-- app/shared/state/users/users.query.ts&#45;&gt;app/shared/state/progress/progress.service.ts -->
<g id="edge46" class="edge">
<title>app/shared/state/users/users.query.ts&#45;&gt;app/shared/state/progress/progress.service.ts</title>
<path fill="none" stroke="#757575" d="M2123.89,-381.01C2155.8,-384.49 2191.01,-388.34 2223.54,-391.89"/>
<polygon fill="#757575" stroke="#757575" points="2223.23,-395.38 2233.55,-392.98 2223.99,-388.42 2223.23,-395.38"/>
</g>
<!-- main.ts -->
<g id="node28" class="node">
<title>main.ts</title>
<path fill="none" stroke="#c6c5fe" d="M54.33,-62C54.33,-62 7.67,-62 7.67,-62 3.83,-62 0,-58.17 0,-54.33 0,-54.33 0,-46.67 0,-46.67 0,-42.83 3.83,-39 7.67,-39 7.67,-39 54.33,-39 54.33,-39 58.17,-39 62,-42.83 62,-46.67 62,-46.67 62,-54.33 62,-54.33 62,-58.17 58.17,-62 54.33,-62"/>
<text text-anchor="middle" x="31" y="-46.8" font-family="Arial" font-size="14.00" fill="#c6c5fe">main.ts</text>
</g>
<!-- main.ts&#45;&gt;app/app.module.ts -->
<g id="edge53" class="edge">
<title>main.ts&#45;&gt;app/app.module.ts</title>
<path fill="none" stroke="#757575" d="M62.28,-59.45C77.95,-64.08 97.47,-69.84 115.2,-75.08"/>
<polygon fill="#757575" stroke="#757575" points="114.25,-78.45 124.83,-77.93 116.24,-71.74 114.25,-78.45"/>
</g>
<!-- main.ts&#45;&gt;environments/environment.ts -->
<g id="edge54" class="edge">
<title>main.ts&#45;&gt;environments/environment.ts</title>
<path fill="none" stroke="#757575" d="M62.18,-46.97C106.04,-41.84 189.62,-32.07 257.95,-24.08"/>
<polygon fill="#757575" stroke="#757575" points="258.39,-27.55 267.92,-22.91 257.58,-20.6 258.39,-27.55"/>
</g>
</g>
</svg>
