<?xml version="1.0" encoding="UTF-8" standalone="no"?>
<!DOCTYPE svg PUBLIC "-//W3C//DTD SVG 1.1//EN"
 "http://www.w3.org/Graphics/SVG/1.1/DTD/svg11.dtd">
<!-- Generated by graphviz version 2.47.1 (20210417.1919)
 -->
<!-- Title: G Pages: 1 -->
<svg width="3539pt" height="629pt"
 viewBox="0.00 0.00 3539.20 628.79" xmlns="http://www.w3.org/2000/svg" xmlns:xlink="http://www.w3.org/1999/xlink">
<g id="graph0" class="graph" transform="scale(1 1) rotate(0) translate(21.6 607.19)">
<title>G</title>
<polygon fill="#111111" stroke="transparent" points="-21.6,21.6 -21.6,-607.19 3517.6,-607.19 3517.6,21.6 -21.6,21.6"/>
<!-- app/app&#45;routing.module.ts -->
<g id="node1" class="node">
<title>app/app&#45;routing.module.ts</title>
<path fill="none" stroke="#c6c5fe" d="M449.83,-261.59C449.83,-261.59 283.17,-261.59 283.17,-261.59 279.33,-261.59 275.5,-257.76 275.5,-253.92 275.5,-253.92 275.5,-246.26 275.5,-246.26 275.5,-242.42 279.33,-238.59 283.17,-238.59 283.17,-238.59 449.83,-238.59 449.83,-238.59 453.67,-238.59 457.5,-242.42 457.5,-246.26 457.5,-246.26 457.5,-253.92 457.5,-253.92 457.5,-257.76 453.67,-261.59 449.83,-261.59"/>
<text text-anchor="middle" x="366.5" y="-246.39" font-family="Arial" font-size="14.00" fill="#c6c5fe">app/app&#45;routing.module.ts</text>
</g>
<!-- app/pages/filter/filter.component.ts -->
<g id="node2" class="node">
<title>app/pages/filter/filter.component.ts</title>
<path fill="none" stroke="#c6c5fe" d="M753.33,-123.59C753.33,-123.59 532.67,-123.59 532.67,-123.59 528.83,-123.59 525,-119.76 525,-115.92 525,-115.92 525,-108.26 525,-108.26 525,-104.42 528.83,-100.59 532.67,-100.59 532.67,-100.59 753.33,-100.59 753.33,-100.59 757.17,-100.59 761,-104.42 761,-108.26 761,-108.26 761,-115.92 761,-115.92 761,-119.76 757.17,-123.59 753.33,-123.59"/>
<text text-anchor="middle" x="643" y="-108.39" font-family="Arial" font-size="14.00" fill="#c6c5fe">app/pages/filter/filter.component.ts</text>
</g>
<!-- app/app&#45;routing.module.ts&#45;&gt;app/pages/filter/filter.component.ts -->
<g id="edge1" class="edge">
<title>app/app&#45;routing.module.ts&#45;&gt;app/pages/filter/filter.component.ts</title>
<path fill="none" stroke="#757575" d="M400.49,-238.57C419.62,-231.56 443.99,-222.06 465,-212.09 519.65,-186.16 580.46,-150.13 614.68,-129.15"/>
<polygon fill="#757575" stroke="#757575" points="616.93,-131.87 623.61,-123.65 613.26,-125.91 616.93,-131.87"/>
</g>
<!-- app/pages/maps/maps.module.ts -->
<g id="node3" class="node">
<title>app/pages/maps/maps.module.ts</title>
<path fill="none" stroke="#c6c5fe" d="M749.33,-470.59C749.33,-470.59 536.67,-470.59 536.67,-470.59 532.83,-470.59 529,-466.76 529,-462.92 529,-462.92 529,-455.26 529,-455.26 529,-451.42 532.83,-447.59 536.67,-447.59 536.67,-447.59 749.33,-447.59 749.33,-447.59 753.17,-447.59 757,-451.42 757,-455.26 757,-455.26 757,-462.92 757,-462.92 757,-466.76 753.17,-470.59 749.33,-470.59"/>
<text text-anchor="middle" x="643" y="-455.39" font-family="Arial" font-size="14.00" fill="#c6c5fe">app/pages/maps/maps.module.ts</text>
</g>
<!-- app/app&#45;routing.module.ts&#45;&gt;app/pages/maps/maps.module.ts -->
<g id="edge2" class="edge">
<title>app/app&#45;routing.module.ts&#45;&gt;app/pages/maps/maps.module.ts</title>
<path fill="none" stroke="#757575" d="M381.28,-261.86C405.23,-282.2 456.25,-325.01 501,-359.09 540.43,-389.11 587.66,-422.01 616.22,-441.58"/>
<polygon fill="#757575" stroke="#757575" points="614.57,-444.7 624.8,-447.45 618.52,-438.92 614.57,-444.7"/>
</g>
<!-- app/pages/progress&#45;filter/progress&#45;filter.component.ts -->
<g id="node4" class="node">
<title>app/pages/progress&#45;filter/progress&#45;filter.component.ts</title>
<path fill="none" stroke="#c6c5fe" d="M1576.33,-231.59C1576.33,-231.59 1232.67,-231.59 1232.67,-231.59 1228.83,-231.59 1225,-227.76 1225,-223.92 1225,-223.92 1225,-216.26 1225,-216.26 1225,-212.42 1228.83,-208.59 1232.67,-208.59 1232.67,-208.59 1576.33,-208.59 1576.33,-208.59 1580.17,-208.59 1584,-212.42 1584,-216.26 1584,-216.26 1584,-223.92 1584,-223.92 1584,-227.76 1580.17,-231.59 1576.33,-231.59"/>
<text text-anchor="middle" x="1404.5" y="-216.39" font-family="Arial" font-size="14.00" fill="#c6c5fe">app/pages/progress&#45;filter/progress&#45;filter.component.ts</text>
</g>
<!-- app/app&#45;routing.module.ts&#45;&gt;app/pages/progress&#45;filter/progress&#45;filter.component.ts -->
<g id="edge3" class="edge">
<title>app/app&#45;routing.module.ts&#45;&gt;app/pages/progress&#45;filter/progress&#45;filter.component.ts</title>
<path fill="none" stroke="#757575" d="M457.56,-241.13C472.07,-239.94 486.94,-238.86 501,-238.09 747.3,-224.58 1031.9,-220.88 1214.6,-220.03"/>
<polygon fill="#757575" stroke="#757575" points="1214.86,-223.53 1224.85,-219.99 1214.83,-216.53 1214.86,-223.53"/>
</g>
<!-- app/pages/user&#45;table/user&#45;table.module.ts -->
<g id="node5" class="node">
<title>app/pages/user&#45;table/user&#45;table.module.ts</title>
<path fill="none" stroke="#c6c5fe" d="M777.33,-270.59C777.33,-270.59 508.67,-270.59 508.67,-270.59 504.83,-270.59 501,-266.76 501,-262.92 501,-262.92 501,-255.26 501,-255.26 501,-251.42 504.83,-247.59 508.67,-247.59 508.67,-247.59 777.33,-247.59 777.33,-247.59 781.17,-247.59 785,-251.42 785,-255.26 785,-255.26 785,-262.92 785,-262.92 785,-266.76 781.17,-270.59 777.33,-270.59"/>
<text text-anchor="middle" x="643" y="-255.39" font-family="Arial" font-size="14.00" fill="#c6c5fe">app/pages/user&#45;table/user&#45;table.module.ts</text>
</g>
<!-- app/app&#45;routing.module.ts&#45;&gt;app/pages/user&#45;table/user&#45;table.module.ts -->
<g id="edge4" class="edge">
<title>app/app&#45;routing.module.ts&#45;&gt;app/pages/user&#45;table/user&#45;table.module.ts</title>
<path fill="none" stroke="#757575" d="M457.76,-253.05C468.29,-253.4 479.24,-253.75 490.31,-254.12"/>
<polygon fill="#757575" stroke="#757575" points="490.4,-257.62 500.51,-254.45 490.63,-250.63 490.4,-257.62"/>
</g>
<!-- app/pages/welcome/welcome.module.ts -->
<g id="node6" class="node">
<title>app/pages/welcome/welcome.module.ts</title>
<path fill="none" stroke="#c6c5fe" d="M771.33,-349.59C771.33,-349.59 514.67,-349.59 514.67,-349.59 510.83,-349.59 507,-345.76 507,-341.92 507,-341.92 507,-334.26 507,-334.26 507,-330.42 510.83,-326.59 514.67,-326.59 514.67,-326.59 771.33,-326.59 771.33,-326.59 775.17,-326.59 779,-330.42 779,-334.26 779,-334.26 779,-341.92 779,-341.92 779,-345.76 775.17,-349.59 771.33,-349.59"/>
<text text-anchor="middle" x="643" y="-334.39" font-family="Arial" font-size="14.00" fill="#c6c5fe">app/pages/welcome/welcome.module.ts</text>
</g>
<!-- app/app&#45;routing.module.ts&#45;&gt;app/pages/welcome/welcome.module.ts -->
<g id="edge5" class="edge">
<title>app/app&#45;routing.module.ts&#45;&gt;app/pages/welcome/welcome.module.ts</title>
<path fill="none" stroke="#757575" d="M403.39,-261.6C452.91,-277.47 542.22,-306.1 596.41,-323.48"/>
<polygon fill="#757575" stroke="#757575" points="595.51,-326.86 606.11,-326.58 597.65,-320.2 595.51,-326.86"/>
</g>
<!-- app/shared/state/users&#45;query.service.ts -->
<g id="node9" class="node">
<title>app/shared/state/users&#45;query.service.ts</title>
<path fill="none" stroke="#c6c5fe" d="M1886.33,-112.59C1886.33,-112.59 1635.67,-112.59 1635.67,-112.59 1631.83,-112.59 1628,-108.76 1628,-104.92 1628,-104.92 1628,-97.26 1628,-97.26 1628,-93.42 1631.83,-89.59 1635.67,-89.59 1635.67,-89.59 1886.33,-89.59 1886.33,-89.59 1890.17,-89.59 1894,-93.42 1894,-97.26 1894,-97.26 1894,-104.92 1894,-104.92 1894,-108.76 1890.17,-112.59 1886.33,-112.59"/>
<text text-anchor="middle" x="1761" y="-97.39" font-family="Arial" font-size="14.00" fill="#c6c5fe">app/shared/state/users&#45;query.service.ts</text>
</g>
<!-- app/pages/filter/filter.component.ts&#45;&gt;app/shared/state/users&#45;query.service.ts -->
<g id="edge15" class="edge">
<title>app/pages/filter/filter.component.ts&#45;&gt;app/shared/state/users&#45;query.service.ts</title>
<path fill="none" stroke="#757575" d="M761.06,-110.94C967.34,-108.9 1394.81,-104.69 1617.75,-102.49"/>
<polygon fill="#757575" stroke="#757575" points="1617.91,-105.99 1627.88,-102.39 1617.84,-98.99 1617.91,-105.99"/>
</g>
<!-- app/shared/state/filters.ts -->
<g id="node14" class="node">
<title>app/shared/state/filters.ts</title>
<path fill="none" stroke="#c6c5fe" d="M2171.33,-269.59C2171.33,-269.59 2010.67,-269.59 2010.67,-269.59 2006.83,-269.59 2003,-265.76 2003,-261.92 2003,-261.92 2003,-254.26 2003,-254.26 2003,-250.42 2006.83,-246.59 2010.67,-246.59 2010.67,-246.59 2171.33,-246.59 2171.33,-246.59 2175.17,-246.59 2179,-250.42 2179,-254.26 2179,-254.26 2179,-261.92 2179,-261.92 2179,-265.76 2175.17,-269.59 2171.33,-269.59"/>
<text text-anchor="middle" x="2091" y="-254.39" font-family="Arial" font-size="14.00" fill="#c6c5fe">app/shared/state/filters.ts</text>
</g>
<!-- app/pages/filter/filter.component.ts&#45;&gt;app/shared/state/filters.ts -->
<g id="edge14" class="edge">
<title>app/pages/filter/filter.component.ts&#45;&gt;app/shared/state/filters.ts</title>
<path fill="none" stroke="#757575" d="M761.09,-119.64C781.08,-120.85 801.63,-122.05 821,-123.09 1061.46,-136.08 1682.85,-99.26 1902,-199.09 1921.48,-207.97 1918.74,-221.76 1938,-231.09 1954.87,-239.26 1973.86,-244.99 1992.56,-248.99"/>
<polygon fill="#757575" stroke="#757575" points="1992.11,-252.47 2002.6,-250.98 1993.48,-245.6 1992.11,-252.47"/>
</g>
<!-- app/pages/maps/globe&#45;component/globe.component.ts -->
<g id="node17" class="node">
<title>app/pages/maps/globe&#45;component/globe.component.ts</title>
<path fill="none" stroke="#c6c5fe" d="M1181.33,-429.59C1181.33,-429.59 828.67,-429.59 828.67,-429.59 824.83,-429.59 821,-425.76 821,-421.92 821,-421.92 821,-414.26 821,-414.26 821,-410.42 824.83,-406.59 828.67,-406.59 828.67,-406.59 1181.33,-406.59 1181.33,-406.59 1185.17,-406.59 1189,-410.42 1189,-414.26 1189,-414.26 1189,-421.92 1189,-421.92 1189,-425.76 1185.17,-429.59 1181.33,-429.59"/>
<text text-anchor="middle" x="1005" y="-414.39" font-family="Arial" font-size="14.00" fill="#c6c5fe">app/pages/maps/globe&#45;component/globe.component.ts</text>
</g>
<!-- app/pages/maps/maps.module.ts&#45;&gt;app/pages/maps/globe&#45;component/globe.component.ts -->
<g id="edge25" class="edge">
<title>app/pages/maps/maps.module.ts&#45;&gt;app/pages/maps/globe&#45;component/globe.component.ts</title>
<path fill="none" stroke="#757575" d="M745.24,-447.56C791.25,-442.32 845.82,-436.11 892.96,-430.74"/>
<polygon fill="#757575" stroke="#757575" points="893.36,-434.21 902.9,-429.61 892.57,-427.26 893.36,-434.21"/>
</g>
<!-- app/pages/maps/maps&#45;routing.module.ts -->
<g id="node19" class="node">
<title>app/pages/maps/maps&#45;routing.module.ts</title>
<path fill="none" stroke="#c6c5fe" d="M1134.83,-470.59C1134.83,-470.59 875.17,-470.59 875.17,-470.59 871.33,-470.59 867.5,-466.76 867.5,-462.92 867.5,-462.92 867.5,-455.26 867.5,-455.26 867.5,-451.42 871.33,-447.59 875.17,-447.59 875.17,-447.59 1134.83,-447.59 1134.83,-447.59 1138.67,-447.59 1142.5,-451.42 1142.5,-455.26 1142.5,-455.26 1142.5,-462.92 1142.5,-462.92 1142.5,-466.76 1138.67,-470.59 1134.83,-470.59"/>
<text text-anchor="middle" x="1005" y="-455.39" font-family="Arial" font-size="14.00" fill="#c6c5fe">app/pages/maps/maps&#45;routing.module.ts</text>
</g>
<!-- app/pages/maps/maps.module.ts&#45;&gt;app/pages/maps/maps&#45;routing.module.ts -->
<g id="edge26" class="edge">
<title>app/pages/maps/maps.module.ts&#45;&gt;app/pages/maps/maps&#45;routing.module.ts</title>
<path fill="none" stroke="#757575" d="M757.41,-459.09C789.07,-459.09 823.93,-459.09 857.22,-459.09"/>
<polygon fill="#757575" stroke="#757575" points="857.49,-462.59 867.49,-459.09 857.49,-455.59 857.49,-462.59"/>
</g>
<!-- app/pages/maps/maps.component.ts -->
<g id="node20" class="node">
<title>app/pages/maps/maps.component.ts</title>
<path fill="none" stroke="#c6c5fe" d="M1522.83,-507.59C1522.83,-507.59 1286.17,-507.59 1286.17,-507.59 1282.33,-507.59 1278.5,-503.76 1278.5,-499.92 1278.5,-499.92 1278.5,-492.26 1278.5,-492.26 1278.5,-488.42 1282.33,-484.59 1286.17,-484.59 1286.17,-484.59 1522.83,-484.59 1522.83,-484.59 1526.67,-484.59 1530.5,-488.42 1530.5,-492.26 1530.5,-492.26 1530.5,-499.92 1530.5,-499.92 1530.5,-503.76 1526.67,-507.59 1522.83,-507.59"/>
<text text-anchor="middle" x="1404.5" y="-492.39" font-family="Arial" font-size="14.00" fill="#c6c5fe">app/pages/maps/maps.component.ts</text>
</g>
<!-- app/pages/maps/maps.module.ts&#45;&gt;app/pages/maps/maps.component.ts -->
<g id="edge27" class="edge">
<title>app/pages/maps/maps.module.ts&#45;&gt;app/pages/maps/maps.component.ts</title>
<path fill="none" stroke="#757575" d="M728.03,-470.64C757.39,-474.26 790.6,-477.87 821,-480.09 973.94,-491.24 1149.99,-494.8 1268.16,-495.84"/>
<polygon fill="#757575" stroke="#757575" points="1268.32,-499.34 1278.35,-495.93 1268.37,-492.34 1268.32,-499.34"/>
</g>
<!-- app/pages/maps/providers.ts -->
<g id="node21" class="node">
<title>app/pages/maps/providers.ts</title>
<path fill="none" stroke="#cfffac" d="M1853.83,-585.59C1853.83,-585.59 1668.17,-585.59 1668.17,-585.59 1664.33,-585.59 1660.5,-581.76 1660.5,-577.92 1660.5,-577.92 1660.5,-570.26 1660.5,-570.26 1660.5,-566.42 1664.33,-562.59 1668.17,-562.59 1668.17,-562.59 1853.83,-562.59 1853.83,-562.59 1857.67,-562.59 1861.5,-566.42 1861.5,-570.26 1861.5,-570.26 1861.5,-577.92 1861.5,-577.92 1861.5,-581.76 1857.67,-585.59 1853.83,-585.59"/>
<text text-anchor="middle" x="1761" y="-570.39" font-family="Arial" font-size="14.00" fill="#cfffac">app/pages/maps/providers.ts</text>
</g>
<!-- app/pages/maps/maps.module.ts&#45;&gt;app/pages/maps/providers.ts -->
<g id="edge28" class="edge">
<title>app/pages/maps/maps.module.ts&#45;&gt;app/pages/maps/providers.ts</title>
<path fill="none" stroke="#757575" d="M684.77,-470.67C720.42,-480.34 773.73,-493.69 821,-501.09 1118.72,-547.7 1474.44,-565.03 1650.34,-571.09"/>
<polygon fill="#757575" stroke="#757575" points="1650.27,-574.59 1660.38,-571.43 1650.5,-567.59 1650.27,-574.59"/>
</g>
<!-- app/pages/progress&#45;filter/progress&#45;filter.component.ts&#45;&gt;app/shared/state/users&#45;query.service.ts -->
<g id="edge30" class="edge">
<title>app/pages/progress&#45;filter/progress&#45;filter.component.ts&#45;&gt;app/shared/state/users&#45;query.service.ts</title>
<path fill="none" stroke="#757575" d="M1547.4,-208.57C1559.91,-206 1572.27,-202.88 1584,-199.09 1642.1,-180.31 1702.81,-141.57 1735.55,-118.82"/>
<polygon fill="#757575" stroke="#757575" points="1737.85,-121.48 1744.02,-112.86 1733.82,-115.76 1737.85,-121.48"/>
</g>
<!-- app/pages/progress&#45;filter/utils.ts -->
<g id="node24" class="node">
<title>app/pages/progress&#45;filter/utils.ts</title>
<path fill="none" stroke="#cfffac" d="M1863.33,-231.59C1863.33,-231.59 1658.67,-231.59 1658.67,-231.59 1654.83,-231.59 1651,-227.76 1651,-223.92 1651,-223.92 1651,-216.26 1651,-216.26 1651,-212.42 1654.83,-208.59 1658.67,-208.59 1658.67,-208.59 1863.33,-208.59 1863.33,-208.59 1867.17,-208.59 1871,-212.42 1871,-216.26 1871,-216.26 1871,-223.92 1871,-223.92 1871,-227.76 1867.17,-231.59 1863.33,-231.59"/>
<text text-anchor="middle" x="1761" y="-216.39" font-family="Arial" font-size="14.00" fill="#cfffac">app/pages/progress&#45;filter/utils.ts</text>
</g>
<!-- app/pages/progress&#45;filter/progress&#45;filter.component.ts&#45;&gt;app/pages/progress&#45;filter/utils.ts -->
<g id="edge29" class="edge">
<title>app/pages/progress&#45;filter/progress&#45;filter.component.ts&#45;&gt;app/pages/progress&#45;filter/utils.ts</title>
<path fill="none" stroke="#757575" d="M1584.05,-220.09C1603.23,-220.09 1622.4,-220.09 1640.64,-220.09"/>
<polygon fill="#757575" stroke="#757575" points="1640.68,-223.59 1650.68,-220.09 1640.68,-216.59 1640.68,-223.59"/>
</g>
<!-- app/shared/shared.module.ts -->
<g id="node12" class="node">
<title>app/shared/shared.module.ts</title>
<path fill="none" stroke="#c6c5fe" d="M1097.83,-190.59C1097.83,-190.59 912.17,-190.59 912.17,-190.59 908.33,-190.59 904.5,-186.76 904.5,-182.92 904.5,-182.92 904.5,-175.26 904.5,-175.26 904.5,-171.42 908.33,-167.59 912.17,-167.59 912.17,-167.59 1097.83,-167.59 1097.83,-167.59 1101.67,-167.59 1105.5,-171.42 1105.5,-175.26 1105.5,-175.26 1105.5,-182.92 1105.5,-182.92 1105.5,-186.76 1101.67,-190.59 1097.83,-190.59"/>
<text text-anchor="middle" x="1005" y="-175.39" font-family="Arial" font-size="14.00" fill="#c6c5fe">app/shared/shared.module.ts</text>
</g>
<!-- app/pages/user&#45;table/user&#45;table.module.ts&#45;&gt;app/shared/shared.module.ts -->
<g id="edge39" class="edge">
<title>app/pages/user&#45;table/user&#45;table.module.ts&#45;&gt;app/shared/shared.module.ts</title>
<path fill="none" stroke="#757575" d="M695.96,-247.54C761.1,-233.07 872.63,-208.28 942.12,-192.84"/>
<polygon fill="#757575" stroke="#757575" points="943.05,-196.22 952.05,-190.63 941.53,-189.39 943.05,-196.22"/>
</g>
<!-- app/pages/user&#45;table/user&#45;table&#45;routing.module.ts -->
<g id="node25" class="node">
<title>app/pages/user&#45;table/user&#45;table&#45;routing.module.ts</title>
<path fill="none" stroke="#c6c5fe" d="M1162.83,-308.59C1162.83,-308.59 847.17,-308.59 847.17,-308.59 843.33,-308.59 839.5,-304.76 839.5,-300.92 839.5,-300.92 839.5,-293.26 839.5,-293.26 839.5,-289.42 843.33,-285.59 847.17,-285.59 847.17,-285.59 1162.83,-285.59 1162.83,-285.59 1166.67,-285.59 1170.5,-289.42 1170.5,-293.26 1170.5,-293.26 1170.5,-300.92 1170.5,-300.92 1170.5,-304.76 1166.67,-308.59 1162.83,-308.59"/>
<text text-anchor="middle" x="1005" y="-293.39" font-family="Arial" font-size="14.00" fill="#c6c5fe">app/pages/user&#45;table/user&#45;table&#45;routing.module.ts</text>
</g>
<!-- app/pages/user&#45;table/user&#45;table.module.ts&#45;&gt;app/pages/user&#45;table/user&#45;table&#45;routing.module.ts -->
<g id="edge37" class="edge">
<title>app/pages/user&#45;table/user&#45;table.module.ts&#45;&gt;app/pages/user&#45;table/user&#45;table&#45;routing.module.ts</title>
<path fill="none" stroke="#757575" d="M752.99,-270.6C794.56,-274.98 842.16,-280.01 884.65,-284.49"/>
<polygon fill="#757575" stroke="#757575" points="884.45,-287.99 894.76,-285.56 885.18,-281.03 884.45,-287.99"/>
</g>
<!-- app/pages/user&#45;table/user&#45;table.component.ts -->
<g id="node26" class="node">
<title>app/pages/user&#45;table/user&#45;table.component.ts</title>
<path fill="none" stroke="#c6c5fe" d="M1550.83,-290.59C1550.83,-290.59 1258.17,-290.59 1258.17,-290.59 1254.33,-290.59 1250.5,-286.76 1250.5,-282.92 1250.5,-282.92 1250.5,-275.26 1250.5,-275.26 1250.5,-271.42 1254.33,-267.59 1258.17,-267.59 1258.17,-267.59 1550.83,-267.59 1550.83,-267.59 1554.67,-267.59 1558.5,-271.42 1558.5,-275.26 1558.5,-275.26 1558.5,-282.92 1558.5,-282.92 1558.5,-286.76 1554.67,-290.59 1550.83,-290.59"/>
<text text-anchor="middle" x="1404.5" y="-275.39" font-family="Arial" font-size="14.00" fill="#c6c5fe">app/pages/user&#45;table/user&#45;table.component.ts</text>
</g>
<!-- app/pages/user&#45;table/user&#45;table.module.ts&#45;&gt;app/pages/user&#45;table/user&#45;table.component.ts -->
<g id="edge38" class="edge">
<title>app/pages/user&#45;table/user&#45;table.module.ts&#45;&gt;app/pages/user&#45;table/user&#45;table.component.ts</title>
<path fill="none" stroke="#757575" d="M785.08,-262.81C914.08,-266.2 1104.89,-271.23 1240.4,-274.8"/>
<polygon fill="#757575" stroke="#757575" points="1240.37,-278.3 1250.46,-275.06 1240.56,-271.3 1240.37,-278.3"/>
</g>
<!-- app/pages/welcome/welcome&#45;routing.module.ts -->
<g id="node27" class="node">
<title>app/pages/welcome/welcome&#45;routing.module.ts</title>
<path fill="none" stroke="#c6c5fe" d="M1156.83,-349.59C1156.83,-349.59 853.17,-349.59 853.17,-349.59 849.33,-349.59 845.5,-345.76 845.5,-341.92 845.5,-341.92 845.5,-334.26 845.5,-334.26 845.5,-330.42 849.33,-326.59 853.17,-326.59 853.17,-326.59 1156.83,-326.59 1156.83,-326.59 1160.67,-326.59 1164.5,-330.42 1164.5,-334.26 1164.5,-334.26 1164.5,-341.92 1164.5,-341.92 1164.5,-345.76 1160.67,-349.59 1156.83,-349.59"/>
<text text-anchor="middle" x="1005" y="-334.39" font-family="Arial" font-size="14.00" fill="#c6c5fe">app/pages/welcome/welcome&#45;routing.module.ts</text>
</g>
<!-- app/pages/welcome/welcome.module.ts&#45;&gt;app/pages/welcome/welcome&#45;routing.module.ts -->
<g id="edge41" class="edge">
<title>app/pages/welcome/welcome.module.ts&#45;&gt;app/pages/welcome/welcome&#45;routing.module.ts</title>
<path fill="none" stroke="#757575" d="M779.07,-338.09C797.42,-338.09 816.44,-338.09 835.29,-338.09"/>
<polygon fill="#757575" stroke="#757575" points="835.43,-341.59 845.43,-338.09 835.43,-334.59 835.43,-341.59"/>
</g>
<!-- app/pages/welcome/welcome.component.ts -->
<g id="node28" class="node">
<title>app/pages/welcome/welcome.component.ts</title>
<path fill="none" stroke="#cfffac" d="M1544.83,-331.59C1544.83,-331.59 1264.17,-331.59 1264.17,-331.59 1260.33,-331.59 1256.5,-327.76 1256.5,-323.92 1256.5,-323.92 1256.5,-316.26 1256.5,-316.26 1256.5,-312.42 1260.33,-308.59 1264.17,-308.59 1264.17,-308.59 1544.83,-308.59 1544.83,-308.59 1548.67,-308.59 1552.5,-312.42 1552.5,-316.26 1552.5,-316.26 1552.5,-323.92 1552.5,-323.92 1552.5,-327.76 1548.67,-331.59 1544.83,-331.59"/>
<text text-anchor="middle" x="1404.5" y="-316.39" font-family="Arial" font-size="14.00" fill="#cfffac">app/pages/welcome/welcome.component.ts</text>
</g>
<!-- app/pages/welcome/welcome.module.ts&#45;&gt;app/pages/welcome/welcome.component.ts -->
<g id="edge42" class="edge">
<title>app/pages/welcome/welcome.module.ts&#45;&gt;app/pages/welcome/welcome.component.ts</title>
<path fill="none" stroke="#757575" d="M724,-349.61C754.32,-353.44 789.18,-357.21 821,-359.09 984.27,-368.74 1027.89,-387.29 1189,-359.09 1205.76,-356.16 1208.5,-350.23 1225,-346.09 1245.59,-340.93 1267.78,-336.68 1289.29,-333.22"/>
<polygon fill="#757575" stroke="#757575" points="1290.11,-336.64 1299.45,-331.64 1289.03,-329.72 1290.11,-336.64"/>
</g>
<!-- app/app.component.ts -->
<g id="node7" class="node">
<title>app/app.component.ts</title>
<path fill="none" stroke="#c6c5fe" d="M1475.83,-72.59C1475.83,-72.59 1333.17,-72.59 1333.17,-72.59 1329.33,-72.59 1325.5,-68.76 1325.5,-64.92 1325.5,-64.92 1325.5,-57.26 1325.5,-57.26 1325.5,-53.42 1329.33,-49.59 1333.17,-49.59 1333.17,-49.59 1475.83,-49.59 1475.83,-49.59 1479.67,-49.59 1483.5,-53.42 1483.5,-57.26 1483.5,-57.26 1483.5,-64.92 1483.5,-64.92 1483.5,-68.76 1479.67,-72.59 1475.83,-72.59"/>
<text text-anchor="middle" x="1404.5" y="-57.39" font-family="Arial" font-size="14.00" fill="#c6c5fe">app/app.component.ts</text>
</g>
<!-- app/shared/state/types.ts -->
<g id="node8" class="node">
<title>app/shared/state/types.ts</title>
<path fill="none" stroke="#c6c5fe" d="M2874.33,-33.59C2874.33,-33.59 2713.67,-33.59 2713.67,-33.59 2709.83,-33.59 2706,-29.76 2706,-25.92 2706,-25.92 2706,-18.26 2706,-18.26 2706,-14.42 2709.83,-10.59 2713.67,-10.59 2713.67,-10.59 2874.33,-10.59 2874.33,-10.59 2878.17,-10.59 2882,-14.42 2882,-18.26 2882,-18.26 2882,-25.92 2882,-25.92 2882,-29.76 2878.17,-33.59 2874.33,-33.59"/>
<text text-anchor="middle" x="2794" y="-18.39" font-family="Arial" font-size="14.00" fill="#c6c5fe">app/shared/state/types.ts</text>
</g>
<!-- app/app.component.ts&#45;&gt;app/shared/state/types.ts -->
<g id="edge6" class="edge">
<title>app/app.component.ts&#45;&gt;app/shared/state/types.ts</title>
<path fill="none" stroke="#757575" d="M1483.87,-52.43C1587.61,-41.37 1776.28,-22.64 1938,-14.09 2226.5,1.15 2299.27,1.76 2588,-8.09 2623.06,-9.29 2661.43,-11.63 2695.39,-14.06"/>
<polygon fill="#757575" stroke="#757575" points="2695.56,-17.58 2705.78,-14.82 2696.06,-10.6 2695.56,-17.58"/>
</g>
<!-- app/app.component.ts&#45;&gt;app/shared/state/users&#45;query.service.ts -->
<g id="edge7" class="edge">
<title>app/app.component.ts&#45;&gt;app/shared/state/users&#45;query.service.ts</title>
<path fill="none" stroke="#757575" d="M1483.74,-69.92C1531.91,-75.35 1594.46,-82.41 1647.85,-88.44"/>
<polygon fill="#757575" stroke="#757575" points="1647.72,-91.94 1658.05,-89.59 1648.51,-84.99 1647.72,-91.94"/>
</g>
<!-- app/shared/in&#45;memory&#45;api/types.ts -->
<g id="node30" class="node">
<title>app/shared/in&#45;memory&#45;api/types.ts</title>
<path fill="none" stroke="#cfffac" d="M3488.33,-251.59C3488.33,-251.59 3268.67,-251.59 3268.67,-251.59 3264.83,-251.59 3261,-247.76 3261,-243.92 3261,-243.92 3261,-236.26 3261,-236.26 3261,-232.42 3264.83,-228.59 3268.67,-228.59 3268.67,-228.59 3488.33,-228.59 3488.33,-228.59 3492.17,-228.59 3496,-232.42 3496,-236.26 3496,-236.26 3496,-243.92 3496,-243.92 3496,-247.76 3492.17,-251.59 3488.33,-251.59"/>
<text text-anchor="middle" x="3378.5" y="-236.39" font-family="Arial" font-size="14.00" fill="#cfffac">app/shared/in&#45;memory&#45;api/types.ts</text>
</g>
<!-- app/shared/state/types.ts&#45;&gt;app/shared/in&#45;memory&#45;api/types.ts -->
<g id="edge54" class="edge">
<title>app/shared/state/types.ts&#45;&gt;app/shared/in&#45;memory&#45;api/types.ts</title>
<path fill="none" stroke="#757575" d="M2858.66,-10.58C2946.52,2.03 3107.42,13.12 3225,-48.09 3298.78,-86.5 3348.77,-178.12 3368.31,-219.36"/>
<polygon fill="#757575" stroke="#757575" points="3365.15,-220.86 3372.52,-228.47 3371.5,-217.93 3365.15,-220.86"/>
</g>
<!-- app/shared/state/users&#45;query.service.ts&#45;&gt;app/shared/state/types.ts -->
<g id="edge59" class="edge">
<title>app/shared/state/users&#45;query.service.ts&#45;&gt;app/shared/state/types.ts</title>
<path fill="none" stroke="#757575" d="M1791.64,-89.55C1826.18,-76.72 1885.24,-56.68 1938,-48.09 2209.61,-3.85 2536,-10.04 2695.55,-16.82"/>
<polygon fill="#757575" stroke="#757575" points="2695.67,-20.33 2705.81,-17.27 2695.97,-13.34 2695.67,-20.33"/>
</g>
<!-- app/shared/state/users&#45;query.service.ts&#45;&gt;app/shared/state/filters.ts -->
<g id="edge56" class="edge">
<title>app/shared/state/users&#45;query.service.ts&#45;&gt;app/shared/state/filters.ts</title>
<path fill="none" stroke="#757575" d="M1879.21,-112.65C1887.44,-116.45 1895.17,-121.2 1902,-127.09 1939.35,-159.33 1900.43,-200.12 1938,-232.09 1953.35,-245.15 1972.82,-252.78 1992.65,-257.04"/>
<polygon fill="#757575" stroke="#757575" points="1992.25,-260.52 2002.72,-258.92 1993.53,-253.64 1992.25,-260.52"/>
</g>
<!-- app/shared/state/users/users.store.ts -->
<g id="node16" class="node">
<title>app/shared/state/users/users.store.ts</title>
<path fill="none" stroke="#c6c5fe" d="M2551.83,-270.59C2551.83,-270.59 2316.17,-270.59 2316.17,-270.59 2312.33,-270.59 2308.5,-266.76 2308.5,-262.92 2308.5,-262.92 2308.5,-255.26 2308.5,-255.26 2308.5,-251.42 2312.33,-247.59 2316.17,-247.59 2316.17,-247.59 2551.83,-247.59 2551.83,-247.59 2555.67,-247.59 2559.5,-251.42 2559.5,-255.26 2559.5,-255.26 2559.5,-262.92 2559.5,-262.92 2559.5,-266.76 2555.67,-270.59 2551.83,-270.59"/>
<text text-anchor="middle" x="2434" y="-255.39" font-family="Arial" font-size="14.00" fill="#c6c5fe">app/shared/state/users/users.store.ts</text>
</g>
<!-- app/shared/state/users&#45;query.service.ts&#45;&gt;app/shared/state/users/users.store.ts -->
<g id="edge61" class="edge">
<title>app/shared/state/users&#45;query.service.ts&#45;&gt;app/shared/state/users/users.store.ts</title>
<path fill="none" stroke="#757575" d="M1875.91,-112.73C1885.22,-116.46 1894.08,-121.17 1902,-127.09 1930.32,-148.29 1909.04,-177.76 1938,-198.09 1941.94,-200.86 2179.98,-229.3 2324.49,-246.35"/>
<polygon fill="#757575" stroke="#757575" points="2324.38,-249.86 2334.72,-247.56 2325.2,-242.91 2324.38,-249.86"/>
</g>
<!-- app/shared/state/users&#45;query.service.ts&#45;&gt;app/shared/in&#45;memory&#45;api/types.ts -->
<g id="edge55" class="edge">
<title>app/shared/state/users&#45;query.service.ts&#45;&gt;app/shared/in&#45;memory&#45;api/types.ts</title>
<path fill="none" stroke="#757575" d="M1885.85,-89.57C2020.41,-78.07 2241.77,-62.09 2433,-62.09 2433,-62.09 2433,-62.09 2795,-62.09 3015.19,-62.09 3262.56,-179.85 3347.22,-223.81"/>
<polygon fill="#757575" stroke="#757575" points="3345.79,-227.01 3356.27,-228.55 3349.04,-220.81 3345.79,-227.01"/>
</g>
<!-- app/shared/state/progress/progress.query.ts -->
<g id="node32" class="node">
<title>app/shared/state/progress/progress.query.ts</title>
<path fill="none" stroke="#c6c5fe" d="M2575.33,-170.59C2575.33,-170.59 2292.67,-170.59 2292.67,-170.59 2288.83,-170.59 2285,-166.76 2285,-162.92 2285,-162.92 2285,-155.26 2285,-155.26 2285,-151.42 2288.83,-147.59 2292.67,-147.59 2292.67,-147.59 2575.33,-147.59 2575.33,-147.59 2579.17,-147.59 2583,-151.42 2583,-155.26 2583,-155.26 2583,-162.92 2583,-162.92 2583,-166.76 2579.17,-170.59 2575.33,-170.59"/>
<text text-anchor="middle" x="2434" y="-155.39" font-family="Arial" font-size="14.00" fill="#c6c5fe">app/shared/state/progress/progress.query.ts</text>
</g>
<!-- app/shared/state/users&#45;query.service.ts&#45;&gt;app/shared/state/progress/progress.query.ts -->
<g id="edge57" class="edge">
<title>app/shared/state/users&#45;query.service.ts&#45;&gt;app/shared/state/progress/progress.query.ts</title>
<path fill="none" stroke="#757575" d="M1894.09,-102.58C1991.17,-104.85 2126.14,-110.43 2244,-124.09 2286.72,-129.04 2334.33,-137.88 2371.08,-145.44"/>
<polygon fill="#757575" stroke="#757575" points="2370.64,-148.92 2381.14,-147.53 2372.06,-142.07 2370.64,-148.92"/>
</g>
<!-- app/shared/state/progress/progress.service.ts -->
<g id="node34" class="node">
<title>app/shared/state/progress/progress.service.ts</title>
<path fill="none" stroke="#c6c5fe" d="M2580.33,-211.59C2580.33,-211.59 2287.67,-211.59 2287.67,-211.59 2283.83,-211.59 2280,-207.76 2280,-203.92 2280,-203.92 2280,-196.26 2280,-196.26 2280,-192.42 2283.83,-188.59 2287.67,-188.59 2287.67,-188.59 2580.33,-188.59 2580.33,-188.59 2584.17,-188.59 2588,-192.42 2588,-196.26 2588,-196.26 2588,-203.92 2588,-203.92 2588,-207.76 2584.17,-211.59 2580.33,-211.59"/>
<text text-anchor="middle" x="2434" y="-196.39" font-family="Arial" font-size="14.00" fill="#c6c5fe">app/shared/state/progress/progress.service.ts</text>
</g>
<!-- app/shared/state/users&#45;query.service.ts&#45;&gt;app/shared/state/progress/progress.service.ts -->
<g id="edge58" class="edge">
<title>app/shared/state/users&#45;query.service.ts&#45;&gt;app/shared/state/progress/progress.service.ts</title>
<path fill="none" stroke="#757575" d="M1847,-112.59C1875.86,-116.39 1908.32,-120.55 1938,-124.09 2073.83,-140.29 2114.5,-113.03 2244,-157.09 2261.75,-163.13 2262.34,-172.79 2280,-179.09 2287.54,-181.78 2295.4,-184.13 2303.41,-186.18"/>
<polygon fill="#757575" stroke="#757575" points="2302.7,-189.6 2313.24,-188.53 2304.33,-182.8 2302.7,-189.6"/>
</g>
<!-- app/shared/state/users/users.query.ts -->
<g id="node35" class="node">
<title>app/shared/state/users/users.query.ts</title>
<path fill="none" stroke="#c6c5fe" d="M2210.33,-189.59C2210.33,-189.59 1971.67,-189.59 1971.67,-189.59 1967.83,-189.59 1964,-185.76 1964,-181.92 1964,-181.92 1964,-174.26 1964,-174.26 1964,-170.42 1967.83,-166.59 1971.67,-166.59 1971.67,-166.59 2210.33,-166.59 2210.33,-166.59 2214.17,-166.59 2218,-170.42 2218,-174.26 2218,-174.26 2218,-181.92 2218,-181.92 2218,-185.76 2214.17,-189.59 2210.33,-189.59"/>
<text text-anchor="middle" x="2091" y="-174.39" font-family="Arial" font-size="14.00" fill="#c6c5fe">app/shared/state/users/users.query.ts</text>
</g>
<!-- app/shared/state/users&#45;query.service.ts&#45;&gt;app/shared/state/users/users.query.ts -->
<g id="edge60" class="edge">
<title>app/shared/state/users&#45;query.service.ts&#45;&gt;app/shared/state/users/users.query.ts</title>
<path fill="none" stroke="#757575" d="M1855.11,-112.66C1871.1,-116.25 1887.28,-120.95 1902,-127.09 1919.98,-134.59 1919.97,-144.72 1938,-152.09 1950.05,-157.02 1963,-161.01 1976.08,-164.25"/>
<polygon fill="#757575" stroke="#757575" points="1975.56,-167.72 1986.09,-166.58 1977.14,-160.9 1975.56,-167.72"/>
</g>
<!-- app/app.module.ts -->
<g id="node10" class="node">
<title>app/app.module.ts</title>
<path fill="none" stroke="#c6c5fe" d="M224.33,-123.59C224.33,-123.59 105.67,-123.59 105.67,-123.59 101.83,-123.59 98,-119.76 98,-115.92 98,-115.92 98,-108.26 98,-108.26 98,-104.42 101.83,-100.59 105.67,-100.59 105.67,-100.59 224.33,-100.59 224.33,-100.59 228.17,-100.59 232,-104.42 232,-108.26 232,-108.26 232,-115.92 232,-115.92 232,-119.76 228.17,-123.59 224.33,-123.59"/>
<text text-anchor="middle" x="165" y="-108.39" font-family="Arial" font-size="14.00" fill="#c6c5fe">app/app.module.ts</text>
</g>
<!-- app/app.module.ts&#45;&gt;app/app&#45;routing.module.ts -->
<g id="edge8" class="edge">
<title>app/app.module.ts&#45;&gt;app/app&#45;routing.module.ts</title>
<path fill="none" stroke="#757575" d="M175.21,-123.83C191.8,-144.27 228.63,-186.66 268,-212.09 282.53,-221.48 299.75,-229.14 315.63,-235.06"/>
<polygon fill="#757575" stroke="#757575" points="314.73,-238.45 325.32,-238.52 317.08,-231.86 314.73,-238.45"/>
</g>
<!-- app/app.module.ts&#45;&gt;app/pages/filter/filter.component.ts -->
<g id="edge11" class="edge">
<title>app/app.module.ts&#45;&gt;app/pages/filter/filter.component.ts</title>
<path fill="none" stroke="#757575" d="M232.19,-112.09C304.94,-112.09 423.58,-112.09 514.53,-112.09"/>
<polygon fill="#757575" stroke="#757575" points="514.63,-115.59 524.63,-112.09 514.63,-108.59 514.63,-115.59"/>
</g>
<!-- app/app.module.ts&#45;&gt;app/app.component.ts -->
<g id="edge9" class="edge">
<title>app/app.module.ts&#45;&gt;app/app.component.ts</title>
<path fill="none" stroke="#757575" d="M232.07,-107.37C299.62,-102.69 407.58,-95.57 501,-91.09 799.22,-76.79 1153.19,-67.16 1314.93,-63.17"/>
<polygon fill="#757575" stroke="#757575" points="1315.39,-66.66 1325.3,-62.92 1315.22,-59.66 1315.39,-66.66"/>
</g>
<!-- app/configuration.provider.ts -->
<g id="node11" class="node">
<title>app/configuration.provider.ts</title>
<path fill="none" stroke="#cfffac" d="M456.83,-203.59C456.83,-203.59 276.17,-203.59 276.17,-203.59 272.33,-203.59 268.5,-199.76 268.5,-195.92 268.5,-195.92 268.5,-188.26 268.5,-188.26 268.5,-184.42 272.33,-180.59 276.17,-180.59 276.17,-180.59 456.83,-180.59 456.83,-180.59 460.67,-180.59 464.5,-184.42 464.5,-188.26 464.5,-188.26 464.5,-195.92 464.5,-195.92 464.5,-199.76 460.67,-203.59 456.83,-203.59"/>
<text text-anchor="middle" x="366.5" y="-188.39" font-family="Arial" font-size="14.00" fill="#cfffac">app/configuration.provider.ts</text>
</g>
<!-- app/app.module.ts&#45;&gt;app/configuration.provider.ts -->
<g id="edge10" class="edge">
<title>app/app.module.ts&#45;&gt;app/configuration.provider.ts</title>
<path fill="none" stroke="#757575" d="M184.93,-123.79C204.96,-135.76 237.78,-154.24 268,-166.09 279.28,-170.51 291.57,-174.44 303.52,-177.82"/>
<polygon fill="#757575" stroke="#757575" points="302.87,-181.28 313.44,-180.53 304.71,-174.52 302.87,-181.28"/>
</g>
<!-- app/app.module.ts&#45;&gt;app/shared/shared.module.ts -->
<g id="edge12" class="edge">
<title>app/app.module.ts&#45;&gt;app/shared/shared.module.ts</title>
<path fill="none" stroke="#757575" d="M232.04,-121.79C243.99,-123.36 256.36,-124.87 268,-126.09 489.79,-149.27 750.26,-165.43 894.25,-173.4"/>
<polygon fill="#757575" stroke="#757575" points="894.24,-176.91 904.42,-173.96 894.63,-169.92 894.24,-176.91"/>
</g>
<!-- environments/environment.ts -->
<g id="node13" class="node">
<title>environments/environment.ts</title>
<path fill="none" stroke="#cfffac" d="M457.33,-34.59C457.33,-34.59 275.67,-34.59 275.67,-34.59 271.83,-34.59 268,-30.76 268,-26.92 268,-26.92 268,-19.26 268,-19.26 268,-15.42 271.83,-11.59 275.67,-11.59 275.67,-11.59 457.33,-11.59 457.33,-11.59 461.17,-11.59 465,-15.42 465,-19.26 465,-19.26 465,-26.92 465,-26.92 465,-30.76 461.17,-34.59 457.33,-34.59"/>
<text text-anchor="middle" x="366.5" y="-19.39" font-family="Arial" font-size="14.00" fill="#cfffac">environments/environment.ts</text>
</g>
<!-- app/app.module.ts&#45;&gt;environments/environment.ts -->
<g id="edge13" class="edge">
<title>app/app.module.ts&#45;&gt;environments/environment.ts</title>
<path fill="none" stroke="#757575" d="M181.46,-100.53C200.78,-86.56 235.32,-63.18 268,-49.09 278.45,-44.59 289.88,-40.69 301.11,-37.39"/>
<polygon fill="#757575" stroke="#757575" points="302.22,-40.72 310.9,-34.64 300.33,-33.98 302.22,-40.72"/>
</g>
<!-- app/shared/shared.module.ts&#45;&gt;app/pages/progress&#45;filter/progress&#45;filter.component.ts -->
<g id="edge46" class="edge">
<title>app/shared/shared.module.ts&#45;&gt;app/pages/progress&#45;filter/progress&#45;filter.component.ts</title>
<path fill="none" stroke="#757575" d="M1105.54,-189.36C1159.01,-194.87 1225.38,-201.72 1281.89,-207.55"/>
<polygon fill="#757575" stroke="#757575" points="1281.65,-211.04 1291.96,-208.59 1282.37,-204.08 1281.65,-211.04"/>
</g>
<!-- app/shared/icons&#45;provider.module.ts -->
<g id="node29" class="node">
<title>app/shared/icons&#45;provider.module.ts</title>
<path fill="none" stroke="#cfffac" d="M1520.83,-190.59C1520.83,-190.59 1288.17,-190.59 1288.17,-190.59 1284.33,-190.59 1280.5,-186.76 1280.5,-182.92 1280.5,-182.92 1280.5,-175.26 1280.5,-175.26 1280.5,-171.42 1284.33,-167.59 1288.17,-167.59 1288.17,-167.59 1520.83,-167.59 1520.83,-167.59 1524.67,-167.59 1528.5,-171.42 1528.5,-175.26 1528.5,-175.26 1528.5,-182.92 1528.5,-182.92 1528.5,-186.76 1524.67,-190.59 1520.83,-190.59"/>
<text text-anchor="middle" x="1404.5" y="-175.39" font-family="Arial" font-size="14.00" fill="#cfffac">app/shared/icons&#45;provider.module.ts</text>
</g>
<!-- app/shared/shared.module.ts&#45;&gt;app/shared/icons&#45;provider.module.ts -->
<g id="edge47" class="edge">
<title>app/shared/shared.module.ts&#45;&gt;app/shared/icons&#45;provider.module.ts</title>
<path fill="none" stroke="#757575" d="M1105.54,-179.09C1155.33,-179.09 1216.31,-179.09 1270.1,-179.09"/>
<polygon fill="#757575" stroke="#757575" points="1270.4,-182.59 1280.4,-179.09 1270.4,-175.59 1270.4,-182.59"/>
</g>
<!-- app/shared/state/filters.ts&#45;&gt;app/shared/state/users/users.store.ts -->
<g id="edge48" class="edge">
<title>app/shared/state/filters.ts&#45;&gt;app/shared/state/users/users.store.ts</title>
<path fill="none" stroke="#757575" d="M2179.37,-258.35C2215.48,-258.45 2258.18,-258.58 2298.14,-258.7"/>
<polygon fill="#757575" stroke="#757575" points="2298.23,-262.2 2308.24,-258.73 2298.25,-255.2 2298.23,-262.2"/>
</g>
<!-- app/pages/maps/globe&#45;component/d3&#45;map.ts -->
<g id="node15" class="node">
<title>app/pages/maps/globe&#45;component/d3&#45;map.ts</title>
<path fill="none" stroke="#c6c5fe" d="M2236.33,-349.59C2236.33,-349.59 1945.67,-349.59 1945.67,-349.59 1941.83,-349.59 1938,-345.76 1938,-341.92 1938,-341.92 1938,-334.26 1938,-334.26 1938,-330.42 1941.83,-326.59 1945.67,-326.59 1945.67,-326.59 2236.33,-326.59 2236.33,-326.59 2240.17,-326.59 2244,-330.42 2244,-334.26 2244,-334.26 2244,-341.92 2244,-341.92 2244,-345.76 2240.17,-349.59 2236.33,-349.59"/>
<text text-anchor="middle" x="2091" y="-334.39" font-family="Arial" font-size="14.00" fill="#c6c5fe">app/pages/maps/globe&#45;component/d3&#45;map.ts</text>
</g>
<!-- app/pages/maps/globe&#45;component/d3&#45;map.ts&#45;&gt;app/shared/state/users/users.store.ts -->
<g id="edge16" class="edge">
<title>app/pages/maps/globe&#45;component/d3&#45;map.ts&#45;&gt;app/shared/state/users/users.store.ts</title>
<path fill="none" stroke="#757575" d="M2168.85,-326.54C2193.01,-322.49 2219.71,-317.56 2244,-312.09 2293.14,-301.03 2348.53,-285.08 2386.58,-273.57"/>
<polygon fill="#757575" stroke="#757575" points="2387.8,-276.85 2396.35,-270.59 2385.76,-270.16 2387.8,-276.85"/>
</g>
<!-- app/shared/state/users/users.store.ts&#45;&gt;app/shared/state/types.ts -->
<g id="edge69" class="edge">
<title>app/shared/state/users/users.store.ts&#45;&gt;app/shared/state/types.ts</title>
<path fill="none" stroke="#757575" d="M2528.37,-247.49C2549.41,-241.69 2570.63,-233.02 2588,-220.09 2612.94,-201.52 2603.65,-183.61 2624,-160.09 2667.64,-109.65 2731.2,-63.31 2766.63,-39.3"/>
<polygon fill="#757575" stroke="#757575" points="2768.65,-42.16 2775,-33.68 2764.75,-36.34 2768.65,-42.16"/>
</g>
<!-- app/shared/state/users/users.store.ts&#45;&gt;app/shared/in&#45;memory&#45;api/types.ts -->
<g id="edge68" class="edge">
<title>app/shared/state/users/users.store.ts&#45;&gt;app/shared/in&#45;memory&#45;api/types.ts</title>
<path fill="none" stroke="#757575" d="M2559.67,-256.58C2739.51,-252.95 3069.93,-246.29 3250.86,-242.64"/>
<polygon fill="#757575" stroke="#757575" points="3251.03,-246.14 3260.96,-242.44 3250.89,-239.14 3251.03,-246.14"/>
</g>
<!-- app/pages/maps/globe&#45;component/globe.component.ts&#45;&gt;app/pages/maps/globe&#45;component/d3&#45;map.ts -->
<g id="edge17" class="edge">
<title>app/pages/maps/globe&#45;component/globe.component.ts&#45;&gt;app/pages/maps/globe&#45;component/d3&#45;map.ts</title>
<path fill="none" stroke="#757575" d="M1161.89,-406.59C1365.66,-391.55 1720.86,-365.33 1927.74,-350.07"/>
<polygon fill="#757575" stroke="#757575" points="1928.06,-353.55 1937.78,-349.33 1927.55,-346.57 1928.06,-353.55"/>
</g>
<!-- app/pages/maps/globe&#45;component/utils.ts -->
<g id="node18" class="node">
<title>app/pages/maps/globe&#45;component/utils.ts</title>
<path fill="none" stroke="#c6c5fe" d="M1894.33,-429.59C1894.33,-429.59 1627.67,-429.59 1627.67,-429.59 1623.83,-429.59 1620,-425.76 1620,-421.92 1620,-421.92 1620,-414.26 1620,-414.26 1620,-410.42 1623.83,-406.59 1627.67,-406.59 1627.67,-406.59 1894.33,-406.59 1894.33,-406.59 1898.17,-406.59 1902,-410.42 1902,-414.26 1902,-414.26 1902,-421.92 1902,-421.92 1902,-425.76 1898.17,-429.59 1894.33,-429.59"/>
<text text-anchor="middle" x="1761" y="-414.39" font-family="Arial" font-size="14.00" fill="#c6c5fe">app/pages/maps/globe&#45;component/utils.ts</text>
</g>
<!-- app/pages/maps/globe&#45;component/utils.ts&#45;&gt;app/shared/state/users/users.store.ts -->
<g id="edge18" class="edge">
<title>app/pages/maps/globe&#45;component/utils.ts&#45;&gt;app/shared/state/users/users.store.ts</title>
<path fill="none" stroke="#757575" d="M1860.24,-406.57C2000.01,-390.12 2239.92,-361.58 2244,-359.09 2268.31,-344.26 2257.09,-323.01 2280,-306.09 2300.82,-290.72 2326.74,-280.31 2351.3,-273.29"/>
<polygon fill="#757575" stroke="#757575" points="2352.25,-276.66 2360.99,-270.67 2350.42,-269.9 2352.25,-276.66"/>
</g>
<!-- app/pages/maps/maps&#45;routing.module.ts&#45;&gt;app/pages/maps/maps.component.ts -->
<g id="edge19" class="edge">
<title>app/pages/maps/maps&#45;routing.module.ts&#45;&gt;app/pages/maps/maps.component.ts</title>
<path fill="none" stroke="#757575" d="M1129.59,-470.6C1173.98,-474.73 1224.24,-479.41 1269.47,-483.62"/>
<polygon fill="#757575" stroke="#757575" points="1269.36,-487.12 1279.64,-484.56 1270.01,-480.15 1269.36,-487.12"/>
</g>
<!-- app/pages/maps/maps.component.ts&#45;&gt;app/shared/state/users&#45;query.service.ts -->
<g id="edge23" class="edge">
<title>app/pages/maps/maps.component.ts&#45;&gt;app/shared/state/users&#45;query.service.ts</title>
<path fill="none" stroke="#757575" d="M1425.64,-484.45C1462.93,-461.83 1542.68,-408.19 1584,-341.09 1618.14,-285.65 1583.01,-252.67 1620,-199.09 1646.15,-161.2 1692.04,-133.24 1724.13,-117.09"/>
<polygon fill="#757575" stroke="#757575" points="1725.75,-120.19 1733.2,-112.65 1722.68,-113.9 1725.75,-120.19"/>
</g>
<!-- app/pages/maps/maps.component.ts&#45;&gt;app/pages/maps/globe&#45;component/utils.ts -->
<g id="edge20" class="edge">
<title>app/pages/maps/maps.component.ts&#45;&gt;app/pages/maps/globe&#45;component/utils.ts</title>
<path fill="none" stroke="#757575" d="M1457.81,-484.58C1521.56,-470.55 1629.18,-446.87 1697.31,-431.88"/>
<polygon fill="#757575" stroke="#757575" points="1698.46,-435.21 1707.48,-429.65 1696.96,-428.38 1698.46,-435.21"/>
</g>
<!-- app/pages/maps/maps.component.ts&#45;&gt;app/pages/maps/providers.ts -->
<g id="edge21" class="edge">
<title>app/pages/maps/maps.component.ts&#45;&gt;app/pages/maps/providers.ts</title>
<path fill="none" stroke="#757575" d="M1450.12,-507.66C1493.39,-518.69 1560.98,-535.47 1620,-548.09 1640.67,-552.51 1663.15,-556.88 1683.93,-560.74"/>
<polygon fill="#757575" stroke="#757575" points="1683.51,-564.22 1693.98,-562.59 1684.77,-557.34 1683.51,-564.22"/>
</g>
<!-- app/shared/in&#45;memory&#45;api/in&#45;memory&#45;api.service.ts -->
<g id="node22" class="node">
<title>app/shared/in&#45;memory&#45;api/in&#45;memory&#45;api.service.ts</title>
<path fill="none" stroke="#c6c5fe" d="M2956.33,-418.59C2956.33,-418.59 2631.67,-418.59 2631.67,-418.59 2627.83,-418.59 2624,-414.76 2624,-410.92 2624,-410.92 2624,-403.26 2624,-403.26 2624,-399.42 2627.83,-395.59 2631.67,-395.59 2631.67,-395.59 2956.33,-395.59 2956.33,-395.59 2960.17,-395.59 2964,-399.42 2964,-403.26 2964,-403.26 2964,-410.92 2964,-410.92 2964,-414.76 2960.17,-418.59 2956.33,-418.59"/>
<text text-anchor="middle" x="2794" y="-403.39" font-family="Arial" font-size="14.00" fill="#c6c5fe">app/shared/in&#45;memory&#45;api/in&#45;memory&#45;api.service.ts</text>
</g>
<!-- app/pages/maps/maps.component.ts&#45;&gt;app/shared/in&#45;memory&#45;api/in&#45;memory&#45;api.service.ts -->
<g id="edge22" class="edge">
<title>app/pages/maps/maps.component.ts&#45;&gt;app/shared/in&#45;memory&#45;api/in&#45;memory&#45;api.service.ts</title>
<path fill="none" stroke="#757575" d="M1530.86,-505.22C1747.93,-518.45 2207.12,-534.99 2588,-472.09 2648.41,-462.12 2715.54,-438.25 2755.99,-422.38"/>
<polygon fill="#757575" stroke="#757575" points="2757.44,-425.58 2765.44,-418.63 2754.85,-419.07 2757.44,-425.58"/>
</g>
<!-- app/shared/state/users/users.service.ts -->
<g id="node23" class="node">
<title>app/shared/state/users/users.service.ts</title>
<path fill="none" stroke="#c6c5fe" d="M2215.83,-429.59C2215.83,-429.59 1966.17,-429.59 1966.17,-429.59 1962.33,-429.59 1958.5,-425.76 1958.5,-421.92 1958.5,-421.92 1958.5,-414.26 1958.5,-414.26 1958.5,-410.42 1962.33,-406.59 1966.17,-406.59 1966.17,-406.59 2215.83,-406.59 2215.83,-406.59 2219.67,-406.59 2223.5,-410.42 2223.5,-414.26 2223.5,-414.26 2223.5,-421.92 2223.5,-421.92 2223.5,-425.76 2219.67,-429.59 2215.83,-429.59"/>
<text text-anchor="middle" x="2091" y="-414.39" font-family="Arial" font-size="14.00" fill="#c6c5fe">app/shared/state/users/users.service.ts</text>
</g>
<!-- app/pages/maps/maps.component.ts&#45;&gt;app/shared/state/users/users.service.ts -->
<g id="edge24" class="edge">
<title>app/pages/maps/maps.component.ts&#45;&gt;app/shared/state/users/users.service.ts</title>
<path fill="none" stroke="#757575" d="M1506.5,-484.58C1632.72,-470.2 1848.01,-445.67 1978.82,-430.76"/>
<polygon fill="#757575" stroke="#757575" points="1979.33,-434.23 1988.86,-429.62 1978.53,-427.27 1979.33,-434.23"/>
</g>
<!-- app/shared/in&#45;memory&#45;api/in&#45;memory&#45;api.service.ts&#45;&gt;app/shared/in&#45;memory&#45;api/types.ts -->
<g id="edge43" class="edge">
<title>app/shared/in&#45;memory&#45;api/in&#45;memory&#45;api.service.ts&#45;&gt;app/shared/in&#45;memory&#45;api/types.ts</title>
<path fill="none" stroke="#757575" d="M2888.06,-395.53C2995.41,-381.45 3164.86,-356.75 3225,-334.09 3274.85,-315.31 3326.26,-279.58 3354.83,-257.99"/>
<polygon fill="#757575" stroke="#757575" points="3357.13,-260.64 3362.93,-251.78 3352.87,-255.08 3357.13,-260.64"/>
</g>
<!-- app/shared/in&#45;memory&#45;api/utils.ts -->
<g id="node31" class="node">
<title>app/shared/in&#45;memory&#45;api/utils.ts</title>
<path fill="none" stroke="#c6c5fe" d="M3217.33,-417.59C3217.33,-417.59 3007.67,-417.59 3007.67,-417.59 3003.83,-417.59 3000,-413.76 3000,-409.92 3000,-409.92 3000,-402.26 3000,-402.26 3000,-398.42 3003.83,-394.59 3007.67,-394.59 3007.67,-394.59 3217.33,-394.59 3217.33,-394.59 3221.17,-394.59 3225,-398.42 3225,-402.26 3225,-402.26 3225,-409.92 3225,-409.92 3225,-413.76 3221.17,-417.59 3217.33,-417.59"/>
<text text-anchor="middle" x="3112.5" y="-402.39" font-family="Arial" font-size="14.00" fill="#c6c5fe">app/shared/in&#45;memory&#45;api/utils.ts</text>
</g>
<!-- app/shared/in&#45;memory&#45;api/in&#45;memory&#45;api.service.ts&#45;&gt;app/shared/in&#45;memory&#45;api/utils.ts -->
<g id="edge44" class="edge">
<title>app/shared/in&#45;memory&#45;api/in&#45;memory&#45;api.service.ts&#45;&gt;app/shared/in&#45;memory&#45;api/utils.ts</title>
<path fill="none" stroke="#757575" d="M2964.37,-406.56C2972.94,-406.53 2981.46,-406.5 2989.84,-406.48"/>
<polygon fill="#757575" stroke="#757575" points="2989.99,-409.98 2999.98,-406.44 2989.97,-402.98 2989.99,-409.98"/>
</g>
<!-- app/shared/state/users/users.service.ts&#45;&gt;app/shared/state/users/users.store.ts -->
<g id="edge67" class="edge">
<title>app/shared/state/users/users.service.ts&#45;&gt;app/shared/state/users/users.store.ts</title>
<path fill="none" stroke="#757575" d="M2219.86,-406.46C2228.5,-402.65 2236.67,-397.92 2244,-392.09 2276.43,-366.3 2249.29,-333.91 2280,-306.09 2296.86,-290.81 2318.59,-280.5 2340.34,-273.54"/>
<polygon fill="#757575" stroke="#757575" points="2341.41,-276.87 2349.99,-270.66 2339.41,-270.17 2341.41,-276.87"/>
</g>
<!-- app/shared/state/users/users.service.ts&#45;&gt;app/shared/in&#45;memory&#45;api/in&#45;memory&#45;api.service.ts -->
<g id="edge65" class="edge">
<title>app/shared/state/users/users.service.ts&#45;&gt;app/shared/in&#45;memory&#45;api/in&#45;memory&#45;api.service.ts</title>
<path fill="none" stroke="#757575" d="M2223.85,-416.02C2333.99,-414.29 2492.08,-411.81 2613.71,-409.9"/>
<polygon fill="#757575" stroke="#757575" points="2613.93,-413.4 2623.88,-409.75 2613.82,-406.4 2613.93,-413.4"/>
</g>
<!-- app/shared/state/users/users.service.ts&#45;&gt;app/shared/in&#45;memory&#45;api/types.ts -->
<g id="edge66" class="edge">
<title>app/shared/state/users/users.service.ts&#45;&gt;app/shared/in&#45;memory&#45;api/types.ts</title>
<path fill="none" stroke="#757575" d="M2175.35,-406.55C2404.62,-374.8 3043.56,-286.33 3284.21,-253.01"/>
<polygon fill="#757575" stroke="#757575" points="3284.91,-256.45 3294.33,-251.61 3283.95,-249.51 3284.91,-256.45"/>
</g>
<!-- app/pages/user&#45;table/user&#45;table&#45;routing.module.ts&#45;&gt;app/pages/user&#45;table/user&#45;table.component.ts -->
<g id="edge31" class="edge">
<title>app/pages/user&#45;table/user&#45;table&#45;routing.module.ts&#45;&gt;app/pages/user&#45;table/user&#45;table.component.ts</title>
<path fill="none" stroke="#757575" d="M1170.55,-289.64C1193.53,-288.6 1217.13,-287.53 1240.09,-286.49"/>
<polygon fill="#757575" stroke="#757575" points="1240.4,-289.98 1250.23,-286.03 1240.08,-282.99 1240.4,-289.98"/>
</g>
<!-- app/pages/user&#45;table/user&#45;table.component.ts&#45;&gt;app/shared/state/users&#45;query.service.ts -->
<g id="edge34" class="edge">
<title>app/pages/user&#45;table/user&#45;table.component.ts&#45;&gt;app/shared/state/users&#45;query.service.ts</title>
<path fill="none" stroke="#757575" d="M1511.14,-267.52C1536.19,-261.73 1562,-253.06 1584,-240.09 1604.89,-227.78 1601.94,-215.27 1620,-199.09 1655.85,-166.98 1702.48,-136.21 1731.83,-117.98"/>
<polygon fill="#757575" stroke="#757575" points="1733.67,-120.96 1740.36,-112.74 1730.01,-115 1733.67,-120.96"/>
</g>
<!-- app/pages/user&#45;table/user&#45;table.component.ts&#45;&gt;app/shared/state/filters.ts -->
<g id="edge33" class="edge">
<title>app/pages/user&#45;table/user&#45;table.component.ts&#45;&gt;app/shared/state/filters.ts</title>
<path fill="none" stroke="#757575" d="M1558.69,-274.39C1691.43,-270.32 1879.47,-264.55 1992.6,-261.08"/>
<polygon fill="#757575" stroke="#757575" points="1992.75,-264.58 2002.63,-260.77 1992.53,-257.58 1992.75,-264.58"/>
</g>
<!-- app/pages/user&#45;table/user&#45;table.component.ts&#45;&gt;app/shared/state/users/users.store.ts -->
<g id="edge36" class="edge">
<title>app/pages/user&#45;table/user&#45;table.component.ts&#45;&gt;app/shared/state/users/users.store.ts</title>
<path fill="none" stroke="#757575" d="M1558.7,-282.3C1579.3,-282.63 1600.17,-282.91 1620,-283.09 1897.33,-285.68 1967.11,-294 2244,-278.09 2270.13,-276.59 2298.22,-274.19 2324.55,-271.6"/>
<polygon fill="#757575" stroke="#757575" points="2324.94,-275.08 2334.54,-270.6 2324.24,-268.11 2324.94,-275.08"/>
</g>
<!-- app/pages/user&#45;table/user&#45;table.component.ts&#45;&gt;app/shared/in&#45;memory&#45;api/in&#45;memory&#45;api.service.ts -->
<g id="edge32" class="edge">
<title>app/pages/user&#45;table/user&#45;table.component.ts&#45;&gt;app/shared/in&#45;memory&#45;api/in&#45;memory&#45;api.service.ts</title>
<path fill="none" stroke="#757575" d="M1558.61,-283.01C1567.76,-287.16 1576.35,-292.44 1584,-299.09 1632.5,-341.23 1569.23,-399.72 1620,-439.09 1700.92,-501.84 2378.24,-446.29 2665.27,-419.55"/>
<polygon fill="#757575" stroke="#757575" points="2665.68,-423.03 2675.31,-418.61 2665.03,-416.06 2665.68,-423.03"/>
</g>
<!-- app/pages/user&#45;table/user&#45;table.component.ts&#45;&gt;app/shared/state/users/users.service.ts -->
<g id="edge35" class="edge">
<title>app/pages/user&#45;table/user&#45;table.component.ts&#45;&gt;app/shared/state/users/users.service.ts</title>
<path fill="none" stroke="#757575" d="M1539.62,-290.66C1554.68,-292.98 1569.73,-295.76 1584,-299.09 1600.57,-302.95 1603.67,-307.32 1620,-312.09 1758.86,-352.65 1924.61,-386.79 2017.54,-404.67"/>
<polygon fill="#757575" stroke="#757575" points="2016.92,-408.11 2027.4,-406.56 2018.24,-401.24 2016.92,-408.11"/>
</g>
<!-- app/pages/welcome/welcome&#45;routing.module.ts&#45;&gt;app/pages/welcome/welcome.component.ts -->
<g id="edge40" class="edge">
<title>app/pages/welcome/welcome&#45;routing.module.ts&#45;&gt;app/pages/welcome/welcome.component.ts</title>
<path fill="none" stroke="#757575" d="M1164.53,-330.91C1191.39,-329.7 1219.28,-328.43 1246.11,-327.22"/>
<polygon fill="#757575" stroke="#757575" points="1246.5,-330.7 1256.34,-326.76 1246.19,-323.71 1246.5,-330.7"/>
</g>
<!-- app/shared/in&#45;memory&#45;api/utils.ts&#45;&gt;app/shared/in&#45;memory&#45;api/types.ts -->
<g id="edge45" class="edge">
<title>app/shared/in&#45;memory&#45;api/utils.ts&#45;&gt;app/shared/in&#45;memory&#45;api/types.ts</title>
<path fill="none" stroke="#757575" d="M3179.15,-394.56C3194.73,-390.34 3210.91,-384.67 3225,-377.09 3282.35,-346.27 3335.61,-289.53 3361.34,-259.66"/>
<polygon fill="#757575" stroke="#757575" points="3364.33,-261.55 3368.13,-251.66 3359,-257.02 3364.33,-261.55"/>
</g>
<!-- app/shared/state/progress/progress.store.ts -->
<g id="node33" class="node">
<title>app/shared/state/progress/progress.store.ts</title>
<path fill="none" stroke="#c6c5fe" d="M2933.83,-192.59C2933.83,-192.59 2654.17,-192.59 2654.17,-192.59 2650.33,-192.59 2646.5,-188.76 2646.5,-184.92 2646.5,-184.92 2646.5,-177.26 2646.5,-177.26 2646.5,-173.42 2650.33,-169.59 2654.17,-169.59 2654.17,-169.59 2933.83,-169.59 2933.83,-169.59 2937.67,-169.59 2941.5,-173.42 2941.5,-177.26 2941.5,-177.26 2941.5,-184.92 2941.5,-184.92 2941.5,-188.76 2937.67,-192.59 2933.83,-192.59"/>
<text text-anchor="middle" x="2794" y="-177.39" font-family="Arial" font-size="14.00" fill="#c6c5fe">app/shared/state/progress/progress.store.ts</text>
</g>
<!-- app/shared/state/progress/progress.query.ts&#45;&gt;app/shared/state/progress/progress.store.ts -->
<g id="edge49" class="edge">
<title>app/shared/state/progress/progress.query.ts&#45;&gt;app/shared/state/progress/progress.store.ts</title>
<path fill="none" stroke="#757575" d="M2583.2,-168.2C2600.64,-169.27 2618.49,-170.37 2636.05,-171.45"/>
<polygon fill="#757575" stroke="#757575" points="2636.16,-174.96 2646.36,-172.08 2636.59,-167.97 2636.16,-174.96"/>
</g>
<!-- app/shared/state/progress/progress.store.ts&#45;&gt;app/shared/in&#45;memory&#45;api/types.ts -->
<g id="edge53" class="edge">
<title>app/shared/state/progress/progress.store.ts&#45;&gt;app/shared/in&#45;memory&#45;api/types.ts</title>
<path fill="none" stroke="#757575" d="M2941.83,-184.42C3025.18,-187.69 3131.27,-194.19 3225,-207.09 3257.77,-211.6 3293.97,-219.32 3322.88,-226.15"/>
<polygon fill="#757575" stroke="#757575" points="3322.24,-229.6 3332.78,-228.53 3323.87,-222.79 3322.24,-229.6"/>
</g>
<!-- app/shared/state/progress/progress.service.ts&#45;&gt;app/shared/in&#45;memory&#45;api/in&#45;memory&#45;api.service.ts -->
<g id="edge50" class="edge">
<title>app/shared/state/progress/progress.service.ts&#45;&gt;app/shared/in&#45;memory&#45;api/in&#45;memory&#45;api.service.ts</title>
<path fill="none" stroke="#757575" d="M2509.36,-211.6C2535.15,-217.38 2563.68,-225.84 2588,-238.09 2666.57,-277.65 2741.84,-352.06 2775.13,-387.44"/>
<polygon fill="#757575" stroke="#757575" points="2772.93,-390.22 2782.31,-395.16 2778.06,-385.45 2772.93,-390.22"/>
</g>
<!-- app/shared/state/progress/progress.service.ts&#45;&gt;app/shared/in&#45;memory&#45;api/types.ts -->
<g id="edge51" class="edge">
<title>app/shared/state/progress/progress.service.ts&#45;&gt;app/shared/in&#45;memory&#45;api/types.ts</title>
<path fill="none" stroke="#757575" d="M2588,-206.58C2772.39,-214.41 3078.8,-227.41 3250.64,-234.71"/>
<polygon fill="#757575" stroke="#757575" points="3250.61,-238.21 3260.75,-235.14 3250.91,-231.22 3250.61,-238.21"/>
</g>
<!-- app/shared/state/progress/progress.service.ts&#45;&gt;app/shared/state/progress/progress.store.ts -->
<g id="edge52" class="edge">
<title>app/shared/state/progress/progress.service.ts&#45;&gt;app/shared/state/progress/progress.store.ts</title>
<path fill="none" stroke="#757575" d="M2588.12,-191.96C2603.93,-191.13 2620.02,-190.27 2635.88,-189.43"/>
<polygon fill="#757575" stroke="#757575" points="2636.46,-192.9 2646.26,-188.88 2636.09,-185.91 2636.46,-192.9"/>
</g>
<!-- app/shared/state/users/users.query.ts&#45;&gt;app/shared/state/users/users.store.ts -->
<g id="edge64" class="edge">
<title>app/shared/state/users/users.query.ts&#45;&gt;app/shared/state/users/users.store.ts</title>
<path fill="none" stroke="#757575" d="M2181.68,-189.62C2202.38,-193.33 2224.14,-198.08 2244,-204.09 2260.76,-209.16 2263.46,-214.35 2280,-220.09 2308.6,-230.01 2341,-238.63 2368.6,-245.23"/>
<polygon fill="#757575" stroke="#757575" points="2367.99,-248.68 2378.53,-247.56 2369.6,-241.87 2367.99,-248.68"/>
</g>
<!-- app/shared/state/users/users.query.ts&#45;&gt;app/shared/state/progress/progress.query.ts -->
<g id="edge62" class="edge">
<title>app/shared/state/users/users.query.ts&#45;&gt;app/shared/state/progress/progress.query.ts</title>
<path fill="none" stroke="#757575" d="M2218.01,-171.07C2236.42,-170.04 2255.58,-168.98 2274.54,-167.92"/>
<polygon fill="#757575" stroke="#757575" points="2274.95,-171.4 2284.74,-167.35 2274.56,-164.41 2274.95,-171.4"/>
</g>
<!-- app/shared/state/users/users.query.ts&#45;&gt;app/shared/state/progress/progress.service.ts -->
<g id="edge63" class="edge">
<title>app/shared/state/users/users.query.ts&#45;&gt;app/shared/state/progress/progress.service.ts</title>
<path fill="none" stroke="#757575" d="M2218.01,-186.22C2234.82,-187.31 2252.25,-188.43 2269.58,-189.55"/>
<polygon fill="#757575" stroke="#757575" points="2269.57,-193.05 2279.77,-190.21 2270.02,-186.07 2269.57,-193.05"/>
</g>
<!-- main.ts -->
<g id="node36" class="node">
<title>main.ts</title>
<path fill="none" stroke="#c6c5fe" d="M54.33,-83.59C54.33,-83.59 7.67,-83.59 7.67,-83.59 3.83,-83.59 0,-79.76 0,-75.92 0,-75.92 0,-68.26 0,-68.26 0,-64.42 3.83,-60.59 7.67,-60.59 7.67,-60.59 54.33,-60.59 54.33,-60.59 58.17,-60.59 62,-64.42 62,-68.26 62,-68.26 62,-75.92 62,-75.92 62,-79.76 58.17,-83.59 54.33,-83.59"/>
<text text-anchor="middle" x="31" y="-68.39" font-family="Arial" font-size="14.00" fill="#c6c5fe">main.ts</text>
</g>
<!-- main.ts&#45;&gt;app/app.module.ts -->
<g id="edge70" class="edge">
<title>main.ts&#45;&gt;app/app.module.ts</title>
<path fill="none" stroke="#757575" d="M62.28,-81.27C78.21,-86.09 98.11,-92.12 116.07,-97.57"/>
<polygon fill="#757575" stroke="#757575" points="115.23,-100.97 125.81,-100.52 117.26,-94.27 115.23,-100.97"/>
</g>
<!-- main.ts&#45;&gt;environments/environment.ts -->
<g id="edge71" class="edge">
<title>main.ts&#45;&gt;environments/environment.ts</title>
<path fill="none" stroke="#757575" d="M62.18,-67.66C110.17,-60.61 205.69,-46.57 276.79,-36.13"/>
<polygon fill="#757575" stroke="#757575" points="277.7,-39.53 287.09,-34.61 276.69,-32.6 277.7,-39.53"/>
</g>
</g>
</svg>
