<?xml version="1.0" encoding="UTF-8" standalone="no"?>
<!DOCTYPE svg PUBLIC "-//W3C//DTD SVG 1.1//EN"
 "http://www.w3.org/Graphics/SVG/1.1/DTD/svg11.dtd">
<!-- Generated by graphviz version 2.47.1 (20210417.1919)
 -->
<!-- Title: G Pages: 1 -->
<svg width="3168pt" height="439pt"
 viewBox="0.00 0.00 3168.20 438.78" xmlns="http://www.w3.org/2000/svg" xmlns:xlink="http://www.w3.org/1999/xlink">
<g id="graph0" class="graph" transform="scale(1 1) rotate(0) translate(21.6 417.18)">
<title>G</title>
<polygon fill="#111111" stroke="transparent" points="-21.6,21.6 -21.6,-417.18 3146.6,-417.18 3146.6,21.6 -21.6,21.6"/>
<!-- app/app&#45;routing.module.ts -->
<g id="node1" class="node">
<title>app/app&#45;routing.module.ts</title>
<path fill="none" stroke="#c6c5fe" d="M449.83,-203C449.83,-203 283.17,-203 283.17,-203 279.33,-203 275.5,-199.17 275.5,-195.33 275.5,-195.33 275.5,-187.67 275.5,-187.67 275.5,-183.83 279.33,-180 283.17,-180 283.17,-180 449.83,-180 449.83,-180 453.67,-180 457.5,-183.83 457.5,-187.67 457.5,-187.67 457.5,-195.33 457.5,-195.33 457.5,-199.17 453.67,-203 449.83,-203"/>
<text text-anchor="middle" x="366.5" y="-187.8" font-family="Arial" font-size="14.00" fill="#c6c5fe">app/app&#45;routing.module.ts</text>
</g>
<!-- app/pages/filter/filter.component.ts -->
<g id="node2" class="node">
<title>app/pages/filter/filter.component.ts</title>
<path fill="none" stroke="#c6c5fe" d="M1527.33,-261C1527.33,-261 1306.67,-261 1306.67,-261 1302.83,-261 1299,-257.17 1299,-253.33 1299,-253.33 1299,-245.67 1299,-245.67 1299,-241.83 1302.83,-238 1306.67,-238 1306.67,-238 1527.33,-238 1527.33,-238 1531.17,-238 1535,-241.83 1535,-245.67 1535,-245.67 1535,-253.33 1535,-253.33 1535,-257.17 1531.17,-261 1527.33,-261"/>
<text text-anchor="middle" x="1417" y="-245.8" font-family="Arial" font-size="14.00" fill="#c6c5fe">app/pages/filter/filter.component.ts</text>
</g>
<!-- app/app&#45;routing.module.ts&#45;&gt;app/pages/filter/filter.component.ts -->
<g id="edge1" class="edge">
<title>app/app&#45;routing.module.ts&#45;&gt;app/pages/filter/filter.component.ts</title>
<path fill="none" stroke="#757575" d="M457.61,-194.26C614.2,-199.37 946.68,-211.64 1227,-231.5 1248.81,-233.05 1272.01,-235 1294.41,-237.04"/>
<polygon fill="#757575" stroke="#757575" points="1294.36,-240.55 1304.64,-237.99 1295.01,-233.58 1294.36,-240.55"/>
</g>
<!-- app/pages/progress&#45;filter/progress&#45;filter.component.ts -->
<g id="node3" class="node">
<title>app/pages/progress&#45;filter/progress&#45;filter.component.ts</title>
<path fill="none" stroke="#c6c5fe" d="M852.33,-263C852.33,-263 508.67,-263 508.67,-263 504.83,-263 501,-259.17 501,-255.33 501,-255.33 501,-247.67 501,-247.67 501,-243.83 504.83,-240 508.67,-240 508.67,-240 852.33,-240 852.33,-240 856.17,-240 860,-243.83 860,-247.67 860,-247.67 860,-255.33 860,-255.33 860,-259.17 856.17,-263 852.33,-263"/>
<text text-anchor="middle" x="680.5" y="-247.8" font-family="Arial" font-size="14.00" fill="#c6c5fe">app/pages/progress&#45;filter/progress&#45;filter.component.ts</text>
</g>
<!-- app/app&#45;routing.module.ts&#45;&gt;app/pages/progress&#45;filter/progress&#45;filter.component.ts -->
<g id="edge2" class="edge">
<title>app/app&#45;routing.module.ts&#45;&gt;app/pages/progress&#45;filter/progress&#45;filter.component.ts</title>
<path fill="none" stroke="#757575" d="M408.15,-203.03C434.47,-210.21 469.57,-219.23 501,-225.5 525.67,-230.42 552.44,-234.82 577.55,-238.53"/>
<polygon fill="#757575" stroke="#757575" points="577.06,-242 587.46,-239.97 578.07,-235.07 577.06,-242"/>
</g>
<!-- app/pages/user&#45;table/user&#45;table.module.ts -->
<g id="node4" class="node">
<title>app/pages/user&#45;table/user&#45;table.module.ts</title>
<path fill="none" stroke="#c6c5fe" d="M814.83,-183C814.83,-183 546.17,-183 546.17,-183 542.33,-183 538.5,-179.17 538.5,-175.33 538.5,-175.33 538.5,-167.67 538.5,-167.67 538.5,-163.83 542.33,-160 546.17,-160 546.17,-160 814.83,-160 814.83,-160 818.67,-160 822.5,-163.83 822.5,-167.67 822.5,-167.67 822.5,-175.33 822.5,-175.33 822.5,-179.17 818.67,-183 814.83,-183"/>
<text text-anchor="middle" x="680.5" y="-167.8" font-family="Arial" font-size="14.00" fill="#c6c5fe">app/pages/user&#45;table/user&#45;table.module.ts</text>
</g>
<!-- app/app&#45;routing.module.ts&#45;&gt;app/pages/user&#45;table/user&#45;table.module.ts -->
<g id="edge3" class="edge">
<title>app/app&#45;routing.module.ts&#45;&gt;app/pages/user&#45;table/user&#45;table.module.ts</title>
<path fill="none" stroke="#757575" d="M457.74,-185.72C479.79,-184.3 503.98,-182.75 528.03,-181.21"/>
<polygon fill="#757575" stroke="#757575" points="528.56,-184.68 538.32,-180.55 528.12,-177.7 528.56,-184.68"/>
</g>
<!-- app/pages/welcome/welcome.module.ts -->
<g id="node5" class="node">
<title>app/pages/welcome/welcome.module.ts</title>
<path fill="none" stroke="#c6c5fe" d="M808.83,-63C808.83,-63 552.17,-63 552.17,-63 548.33,-63 544.5,-59.17 544.5,-55.33 544.5,-55.33 544.5,-47.67 544.5,-47.67 544.5,-43.83 548.33,-40 552.17,-40 552.17,-40 808.83,-40 808.83,-40 812.67,-40 816.5,-43.83 816.5,-47.67 816.5,-47.67 816.5,-55.33 816.5,-55.33 816.5,-59.17 812.67,-63 808.83,-63"/>
<text text-anchor="middle" x="680.5" y="-47.8" font-family="Arial" font-size="14.00" fill="#c6c5fe">app/pages/welcome/welcome.module.ts</text>
</g>
<!-- app/app&#45;routing.module.ts&#45;&gt;app/pages/welcome/welcome.module.ts -->
<g id="edge4" class="edge">
<title>app/app&#45;routing.module.ts&#45;&gt;app/pages/welcome/welcome.module.ts</title>
<path fill="none" stroke="#757575" d="M393.3,-179.92C449.12,-154.87 581.19,-95.61 644.49,-67.21"/>
<polygon fill="#757575" stroke="#757575" points="645.98,-70.38 653.67,-63.09 643.12,-63.99 645.98,-70.38"/>
</g>
<!-- app/shared/state/filters.ts -->
<g id="node10" class="node">
<title>app/shared/state/filters.ts</title>
<path fill="none" stroke="#c6c5fe" d="M2143.33,-222C2143.33,-222 1982.67,-222 1982.67,-222 1978.83,-222 1975,-218.17 1975,-214.33 1975,-214.33 1975,-206.67 1975,-206.67 1975,-202.83 1978.83,-199 1982.67,-199 1982.67,-199 2143.33,-199 2143.33,-199 2147.17,-199 2151,-202.83 2151,-206.67 2151,-206.67 2151,-214.33 2151,-214.33 2151,-218.17 2147.17,-222 2143.33,-222"/>
<text text-anchor="middle" x="2063" y="-206.8" font-family="Arial" font-size="14.00" fill="#c6c5fe">app/shared/state/filters.ts</text>
</g>
<!-- app/pages/filter/filter.component.ts&#45;&gt;app/shared/state/filters.ts -->
<g id="edge11" class="edge">
<title>app/pages/filter/filter.component.ts&#45;&gt;app/shared/state/filters.ts</title>
<path fill="none" stroke="#757575" d="M1535.39,-243.17C1627.28,-238.12 1758.3,-230.72 1873,-223.5 1902.8,-221.62 1935.24,-219.44 1964.69,-217.41"/>
<polygon fill="#757575" stroke="#757575" points="1965.24,-220.88 1974.98,-216.7 1964.76,-213.9 1965.24,-220.88"/>
</g>
<!-- app/shared/state/users&#45;query.service.ts -->
<g id="node11" class="node">
<title>app/shared/state/users&#45;query.service.ts</title>
<path fill="none" stroke="#c6c5fe" d="M1865.33,-303C1865.33,-303 1614.67,-303 1614.67,-303 1610.83,-303 1607,-299.17 1607,-295.33 1607,-295.33 1607,-287.67 1607,-287.67 1607,-283.83 1610.83,-280 1614.67,-280 1614.67,-280 1865.33,-280 1865.33,-280 1869.17,-280 1873,-283.83 1873,-287.67 1873,-287.67 1873,-295.33 1873,-295.33 1873,-299.17 1869.17,-303 1865.33,-303"/>
<text text-anchor="middle" x="1740" y="-287.8" font-family="Arial" font-size="14.00" fill="#c6c5fe">app/shared/state/users&#45;query.service.ts</text>
</g>
<!-- app/pages/filter/filter.component.ts&#45;&gt;app/shared/state/users&#45;query.service.ts -->
<g id="edge12" class="edge">
<title>app/pages/filter/filter.component.ts&#45;&gt;app/shared/state/users&#45;query.service.ts</title>
<path fill="none" stroke="#757575" d="M1506.14,-261.03C1547.98,-266.51 1598.12,-273.07 1641.14,-278.7"/>
<polygon fill="#757575" stroke="#757575" points="1640.69,-282.17 1651.06,-279.99 1641.6,-275.23 1640.69,-282.17"/>
</g>
<!-- app/pages/progress&#45;filter/progress&#45;filter.component.ts&#45;&gt;app/shared/state/users&#45;query.service.ts -->
<g id="edge14" class="edge">
<title>app/pages/progress&#45;filter/progress&#45;filter.component.ts&#45;&gt;app/shared/state/users&#45;query.service.ts</title>
<path fill="none" stroke="#757575" d="M783.12,-263.03C818.77,-266.65 859.12,-270.28 896,-272.5 1141.95,-287.29 1428.89,-290.85 1596.61,-291.55"/>
<polygon fill="#757575" stroke="#757575" points="1596.72,-295.05 1606.73,-291.58 1596.75,-288.05 1596.72,-295.05"/>
</g>
<!-- app/pages/progress&#45;filter/utils.ts -->
<g id="node12" class="node">
<title>app/pages/progress&#45;filter/utils.ts</title>
<path fill="none" stroke="#cfffac" d="M1163.83,-263C1163.83,-263 959.17,-263 959.17,-263 955.33,-263 951.5,-259.17 951.5,-255.33 951.5,-255.33 951.5,-247.67 951.5,-247.67 951.5,-243.83 955.33,-240 959.17,-240 959.17,-240 1163.83,-240 1163.83,-240 1167.67,-240 1171.5,-243.83 1171.5,-247.67 1171.5,-247.67 1171.5,-255.33 1171.5,-255.33 1171.5,-259.17 1167.67,-263 1163.83,-263"/>
<text text-anchor="middle" x="1061.5" y="-247.8" font-family="Arial" font-size="14.00" fill="#cfffac">app/pages/progress&#45;filter/utils.ts</text>
</g>
<!-- app/pages/progress&#45;filter/progress&#45;filter.component.ts&#45;&gt;app/pages/progress&#45;filter/utils.ts -->
<g id="edge13" class="edge">
<title>app/pages/progress&#45;filter/progress&#45;filter.component.ts&#45;&gt;app/pages/progress&#45;filter/utils.ts</title>
<path fill="none" stroke="#757575" d="M860.18,-251.5C887.7,-251.5 915.52,-251.5 941.32,-251.5"/>
<polygon fill="#757575" stroke="#757575" points="941.48,-255 951.48,-251.5 941.48,-248 941.48,-255"/>
</g>
<!-- app/shared/shared.module.ts -->
<g id="node8" class="node">
<title>app/shared/shared.module.ts</title>
<path fill="none" stroke="#c6c5fe" d="M1154.33,-103C1154.33,-103 968.67,-103 968.67,-103 964.83,-103 961,-99.17 961,-95.33 961,-95.33 961,-87.67 961,-87.67 961,-83.83 964.83,-80 968.67,-80 968.67,-80 1154.33,-80 1154.33,-80 1158.17,-80 1162,-83.83 1162,-87.67 1162,-87.67 1162,-95.33 1162,-95.33 1162,-99.17 1158.17,-103 1154.33,-103"/>
<text text-anchor="middle" x="1061.5" y="-87.8" font-family="Arial" font-size="14.00" fill="#c6c5fe">app/shared/shared.module.ts</text>
</g>
<!-- app/pages/user&#45;table/user&#45;table.module.ts&#45;&gt;app/shared/shared.module.ts -->
<g id="edge22" class="edge">
<title>app/pages/user&#45;table/user&#45;table.module.ts&#45;&gt;app/shared/shared.module.ts</title>
<path fill="none" stroke="#757575" d="M814.72,-159.9C830.32,-156.28 845.74,-151.58 860,-145.5 878.65,-137.55 877.4,-125.56 896,-117.5 913.09,-110.09 932,-104.77 950.72,-100.95"/>
<polygon fill="#757575" stroke="#757575" points="951.62,-104.34 960.79,-99.03 950.31,-97.46 951.62,-104.34"/>
</g>
<!-- app/pages/user&#45;table/user&#45;table&#45;routing.module.ts -->
<g id="node13" class="node">
<title>app/pages/user&#45;table/user&#45;table&#45;routing.module.ts</title>
<path fill="none" stroke="#c6c5fe" d="M1219.33,-183C1219.33,-183 903.67,-183 903.67,-183 899.83,-183 896,-179.17 896,-175.33 896,-175.33 896,-167.67 896,-167.67 896,-163.83 899.83,-160 903.67,-160 903.67,-160 1219.33,-160 1219.33,-160 1223.17,-160 1227,-163.83 1227,-167.67 1227,-167.67 1227,-175.33 1227,-175.33 1227,-179.17 1223.17,-183 1219.33,-183"/>
<text text-anchor="middle" x="1061.5" y="-167.8" font-family="Arial" font-size="14.00" fill="#c6c5fe">app/pages/user&#45;table/user&#45;table&#45;routing.module.ts</text>
</g>
<!-- app/pages/user&#45;table/user&#45;table.module.ts&#45;&gt;app/pages/user&#45;table/user&#45;table&#45;routing.module.ts -->
<g id="edge20" class="edge">
<title>app/pages/user&#45;table/user&#45;table.module.ts&#45;&gt;app/pages/user&#45;table/user&#45;table&#45;routing.module.ts</title>
<path fill="none" stroke="#757575" d="M822.63,-171.5C843.25,-171.5 864.69,-171.5 885.88,-171.5"/>
<polygon fill="#757575" stroke="#757575" points="885.92,-175 895.92,-171.5 885.92,-168 885.92,-175"/>
</g>
<!-- app/pages/user&#45;table/user&#45;table.component.ts -->
<g id="node14" class="node">
<title>app/pages/user&#45;table/user&#45;table.component.ts</title>
<path fill="none" stroke="#c6c5fe" d="M1563.33,-183C1563.33,-183 1270.67,-183 1270.67,-183 1266.83,-183 1263,-179.17 1263,-175.33 1263,-175.33 1263,-167.67 1263,-167.67 1263,-163.83 1266.83,-160 1270.67,-160 1270.67,-160 1563.33,-160 1563.33,-160 1567.17,-160 1571,-163.83 1571,-167.67 1571,-167.67 1571,-175.33 1571,-175.33 1571,-179.17 1567.17,-183 1563.33,-183"/>
<text text-anchor="middle" x="1417" y="-167.8" font-family="Arial" font-size="14.00" fill="#c6c5fe">app/pages/user&#45;table/user&#45;table.component.ts</text>
</g>
<!-- app/pages/user&#45;table/user&#45;table.module.ts&#45;&gt;app/pages/user&#45;table/user&#45;table.component.ts -->
<g id="edge21" class="edge">
<title>app/pages/user&#45;table/user&#45;table.module.ts&#45;&gt;app/pages/user&#45;table/user&#45;table.component.ts</title>
<path fill="none" stroke="#757575" d="M783.92,-160C819.37,-156.53 859.39,-153.2 896,-151.5 1042.95,-144.66 1080.09,-143.75 1227,-151.5 1255.89,-153.02 1287.15,-155.85 1315.78,-158.91"/>
<polygon fill="#757575" stroke="#757575" points="1315.47,-162.39 1325.79,-160 1316.22,-155.43 1315.47,-162.39"/>
</g>
<!-- app/pages/welcome/welcome&#45;routing.module.ts -->
<g id="node17" class="node">
<title>app/pages/welcome/welcome&#45;routing.module.ts</title>
<path fill="none" stroke="#c6c5fe" d="M1213.33,-23C1213.33,-23 909.67,-23 909.67,-23 905.83,-23 902,-19.17 902,-15.33 902,-15.33 902,-7.67 902,-7.67 902,-3.83 905.83,0 909.67,0 909.67,0 1213.33,0 1213.33,0 1217.17,0 1221,-3.83 1221,-7.67 1221,-7.67 1221,-15.33 1221,-15.33 1221,-19.17 1217.17,-23 1213.33,-23"/>
<text text-anchor="middle" x="1061.5" y="-7.8" font-family="Arial" font-size="14.00" fill="#c6c5fe">app/pages/welcome/welcome&#45;routing.module.ts</text>
</g>
<!-- app/pages/welcome/welcome.module.ts&#45;&gt;app/pages/welcome/welcome&#45;routing.module.ts -->
<g id="edge24" class="edge">
<title>app/pages/welcome/welcome.module.ts&#45;&gt;app/pages/welcome/welcome&#45;routing.module.ts</title>
<path fill="none" stroke="#757575" d="M790.61,-39.98C837.77,-35.01 893.09,-29.17 941.32,-24.08"/>
<polygon fill="#757575" stroke="#757575" points="941.92,-27.53 951.5,-23 941.19,-20.57 941.92,-27.53"/>
</g>
<!-- app/pages/welcome/welcome.component.ts -->
<g id="node18" class="node">
<title>app/pages/welcome/welcome.component.ts</title>
<path fill="none" stroke="#cfffac" d="M1557.33,-43C1557.33,-43 1276.67,-43 1276.67,-43 1272.83,-43 1269,-39.17 1269,-35.33 1269,-35.33 1269,-27.67 1269,-27.67 1269,-23.83 1272.83,-20 1276.67,-20 1276.67,-20 1557.33,-20 1557.33,-20 1561.17,-20 1565,-23.83 1565,-27.67 1565,-27.67 1565,-35.33 1565,-35.33 1565,-39.17 1561.17,-43 1557.33,-43"/>
<text text-anchor="middle" x="1417" y="-27.8" font-family="Arial" font-size="14.00" fill="#cfffac">app/pages/welcome/welcome.component.ts</text>
</g>
<!-- app/pages/welcome/welcome.module.ts&#45;&gt;app/pages/welcome/welcome.component.ts -->
<g id="edge25" class="edge">
<title>app/pages/welcome/welcome.module.ts&#45;&gt;app/pages/welcome/welcome.component.ts</title>
<path fill="none" stroke="#757575" d="M816.65,-47.82C941.52,-44.42 1127.07,-39.37 1258.59,-35.79"/>
<polygon fill="#757575" stroke="#757575" points="1258.85,-39.28 1268.76,-35.51 1258.66,-32.28 1258.85,-39.28"/>
</g>
<!-- app/app.component.ts -->
<g id="node6" class="node">
<title>app/app.component.ts</title>
<path fill="none" stroke="#cfffac" d="M437.83,-381C437.83,-381 295.17,-381 295.17,-381 291.33,-381 287.5,-377.17 287.5,-373.33 287.5,-373.33 287.5,-365.67 287.5,-365.67 287.5,-361.83 291.33,-358 295.17,-358 295.17,-358 437.83,-358 437.83,-358 441.67,-358 445.5,-361.83 445.5,-365.67 445.5,-365.67 445.5,-373.33 445.5,-373.33 445.5,-377.17 441.67,-381 437.83,-381"/>
<text text-anchor="middle" x="366.5" y="-365.8" font-family="Arial" font-size="14.00" fill="#cfffac">app/app.component.ts</text>
</g>
<!-- app/app.module.ts -->
<g id="node7" class="node">
<title>app/app.module.ts</title>
<path fill="none" stroke="#c6c5fe" d="M224.33,-203C224.33,-203 105.67,-203 105.67,-203 101.83,-203 98,-199.17 98,-195.33 98,-195.33 98,-187.67 98,-187.67 98,-183.83 101.83,-180 105.67,-180 105.67,-180 224.33,-180 224.33,-180 228.17,-180 232,-183.83 232,-187.67 232,-187.67 232,-195.33 232,-195.33 232,-199.17 228.17,-203 224.33,-203"/>
<text text-anchor="middle" x="165" y="-187.8" font-family="Arial" font-size="14.00" fill="#c6c5fe">app/app.module.ts</text>
</g>
<!-- app/app.module.ts&#45;&gt;app/app&#45;routing.module.ts -->
<g id="edge5" class="edge">
<title>app/app.module.ts&#45;&gt;app/app&#45;routing.module.ts</title>
<path fill="none" stroke="#757575" d="M232.15,-191.5C242.75,-191.5 253.91,-191.5 265.09,-191.5"/>
<polygon fill="#757575" stroke="#757575" points="265.35,-195 275.35,-191.5 265.35,-188 265.35,-195"/>
</g>
<!-- app/app.module.ts&#45;&gt;app/pages/filter/filter.component.ts -->
<g id="edge7" class="edge">
<title>app/app.module.ts&#45;&gt;app/pages/filter/filter.component.ts</title>
<path fill="none" stroke="#757575" d="M187.23,-203.15C207.41,-213.73 238.93,-228.94 268,-237.5 368.45,-267.08 396.57,-264.7 501,-272.5 822.77,-296.53 904.92,-292.03 1227,-272.5 1260.34,-270.48 1296.82,-266.47 1328.75,-262.36"/>
<polygon fill="#757575" stroke="#757575" points="1329.49,-265.79 1338.95,-261.02 1328.58,-258.85 1329.49,-265.79"/>
</g>
<!-- app/app.module.ts&#45;&gt;app/pages/progress&#45;filter/progress&#45;filter.component.ts -->
<g id="edge8" class="edge">
<title>app/app.module.ts&#45;&gt;app/pages/progress&#45;filter/progress&#45;filter.component.ts</title>
<path fill="none" stroke="#757575" d="M216.39,-203C232.78,-206.44 251.1,-209.97 268,-212.5 345.1,-224.06 430.87,-232.83 504.07,-239.1"/>
<polygon fill="#757575" stroke="#757575" points="504.05,-242.61 514.31,-239.96 504.64,-235.63 504.05,-242.61"/>
</g>
<!-- app/app.module.ts&#45;&gt;app/app.component.ts -->
<g id="edge6" class="edge">
<title>app/app.module.ts&#45;&gt;app/app.component.ts</title>
<path fill="none" stroke="#757575" d="M170.39,-203.1C181.8,-231.67 215.24,-305.82 268,-343.5 273.93,-347.73 280.51,-351.28 287.36,-354.25"/>
<polygon fill="#757575" stroke="#757575" points="286.26,-357.58 296.85,-357.95 288.81,-351.05 286.26,-357.58"/>
</g>
<!-- app/app.module.ts&#45;&gt;app/shared/shared.module.ts -->
<g id="edge9" class="edge">
<title>app/app.module.ts&#45;&gt;app/shared/shared.module.ts</title>
<path fill="none" stroke="#757575" d="M219.83,-179.97C235.33,-176.92 252.29,-173.83 268,-171.5 510.53,-135.56 797.26,-111.03 950.62,-99.34"/>
<polygon fill="#757575" stroke="#757575" points="951.28,-102.8 960.98,-98.56 950.75,-95.82 951.28,-102.8"/>
</g>
<!-- environments/environment.ts -->
<g id="node9" class="node">
<title>environments/environment.ts</title>
<path fill="none" stroke="#cfffac" d="M457.33,-103C457.33,-103 275.67,-103 275.67,-103 271.83,-103 268,-99.17 268,-95.33 268,-95.33 268,-87.67 268,-87.67 268,-83.83 271.83,-80 275.67,-80 275.67,-80 457.33,-80 457.33,-80 461.17,-80 465,-83.83 465,-87.67 465,-87.67 465,-95.33 465,-95.33 465,-99.17 461.17,-103 457.33,-103"/>
<text text-anchor="middle" x="366.5" y="-87.8" font-family="Arial" font-size="14.00" fill="#cfffac">environments/environment.ts</text>
</g>
<!-- app/app.module.ts&#45;&gt;environments/environment.ts -->
<g id="edge10" class="edge">
<title>app/app.module.ts&#45;&gt;environments/environment.ts</title>
<path fill="none" stroke="#757575" d="M178.84,-179.74C197.26,-163.47 232.84,-134.23 268,-117.5 277.63,-112.92 288.19,-109.05 298.7,-105.8"/>
<polygon fill="#757575" stroke="#757575" points="299.68,-109.16 308.3,-103 297.72,-102.44 299.68,-109.16"/>
</g>
<!-- app/shared/icons&#45;provider.module.ts -->
<g id="node19" class="node">
<title>app/shared/icons&#45;provider.module.ts</title>
<path fill="none" stroke="#cfffac" d="M1533.33,-103C1533.33,-103 1300.67,-103 1300.67,-103 1296.83,-103 1293,-99.17 1293,-95.33 1293,-95.33 1293,-87.67 1293,-87.67 1293,-83.83 1296.83,-80 1300.67,-80 1300.67,-80 1533.33,-80 1533.33,-80 1537.17,-80 1541,-83.83 1541,-87.67 1541,-87.67 1541,-95.33 1541,-95.33 1541,-99.17 1537.17,-103 1533.33,-103"/>
<text text-anchor="middle" x="1417" y="-87.8" font-family="Arial" font-size="14.00" fill="#cfffac">app/shared/icons&#45;provider.module.ts</text>
</g>
<!-- app/shared/shared.module.ts&#45;&gt;app/shared/icons&#45;provider.module.ts -->
<g id="edge29" class="edge">
<title>app/shared/shared.module.ts&#45;&gt;app/shared/icons&#45;provider.module.ts</title>
<path fill="none" stroke="#757575" d="M1162.38,-91.5C1199.74,-91.5 1242.79,-91.5 1282.7,-91.5"/>
<polygon fill="#757575" stroke="#757575" points="1282.77,-95 1292.77,-91.5 1282.77,-88 1282.77,-95"/>
</g>
<!-- app/shared/state/users/users.store.ts -->
<g id="node16" class="node">
<title>app/shared/state/users/users.store.ts</title>
<path fill="none" stroke="#c6c5fe" d="M2540.83,-222C2540.83,-222 2305.17,-222 2305.17,-222 2301.33,-222 2297.5,-218.17 2297.5,-214.33 2297.5,-214.33 2297.5,-206.67 2297.5,-206.67 2297.5,-202.83 2301.33,-199 2305.17,-199 2305.17,-199 2540.83,-199 2540.83,-199 2544.67,-199 2548.5,-202.83 2548.5,-206.67 2548.5,-206.67 2548.5,-214.33 2548.5,-214.33 2548.5,-218.17 2544.67,-222 2540.83,-222"/>
<text text-anchor="middle" x="2423" y="-206.8" font-family="Arial" font-size="14.00" fill="#c6c5fe">app/shared/state/users/users.store.ts</text>
</g>
<!-- app/shared/state/filters.ts&#45;&gt;app/shared/state/users/users.store.ts -->
<g id="edge30" class="edge">
<title>app/shared/state/filters.ts&#45;&gt;app/shared/state/users/users.store.ts</title>
<path fill="none" stroke="#757575" d="M2151.12,-210.5C2191.91,-210.5 2241.44,-210.5 2286.93,-210.5"/>
<polygon fill="#757575" stroke="#757575" points="2287.18,-214 2297.18,-210.5 2287.18,-207 2287.18,-214"/>
</g>
<!-- app/shared/state/users&#45;query.service.ts&#45;&gt;app/shared/state/filters.ts -->
<g id="edge38" class="edge">
<title>app/shared/state/users&#45;query.service.ts&#45;&gt;app/shared/state/filters.ts</title>
<path fill="none" stroke="#757575" d="M1823.43,-279.97C1840.36,-275.81 1857.68,-270.16 1873,-262.5 1891.89,-253.06 1889.75,-240.18 1909,-231.5 1926.27,-223.71 1945.67,-218.62 1964.71,-215.33"/>
<polygon fill="#757575" stroke="#757575" points="1965.28,-218.79 1974.61,-213.78 1964.19,-211.87 1965.28,-218.79"/>
</g>
<!-- app/shared/state/users&#45;query.service.ts&#45;&gt;app/shared/state/users/users.store.ts -->
<g id="edge42" class="edge">
<title>app/shared/state/users&#45;query.service.ts&#45;&gt;app/shared/state/users/users.store.ts</title>
<path fill="none" stroke="#757575" d="M1873.1,-302.43C1970.07,-306.59 2104.02,-304.19 2217,-272.5 2234.62,-267.56 2235.97,-259.21 2253,-252.5 2283.58,-240.45 2318.66,-231.06 2348.91,-224.25"/>
<polygon fill="#757575" stroke="#757575" points="2349.96,-227.6 2358.97,-222.03 2348.45,-220.76 2349.96,-227.6"/>
</g>
<!-- app/shared/in&#45;memory&#45;api/types.ts -->
<g id="node21" class="node">
<title>app/shared/in&#45;memory&#45;api/types.ts</title>
<path fill="none" stroke="#cfffac" d="M3117.33,-285C3117.33,-285 2897.67,-285 2897.67,-285 2893.83,-285 2890,-281.17 2890,-277.33 2890,-277.33 2890,-269.67 2890,-269.67 2890,-265.83 2893.83,-262 2897.67,-262 2897.67,-262 3117.33,-262 3117.33,-262 3121.17,-262 3125,-265.83 3125,-269.67 3125,-269.67 3125,-277.33 3125,-277.33 3125,-281.17 3121.17,-285 3117.33,-285"/>
<text text-anchor="middle" x="3007.5" y="-269.8" font-family="Arial" font-size="14.00" fill="#cfffac">app/shared/in&#45;memory&#45;api/types.ts</text>
</g>
<!-- app/shared/state/users&#45;query.service.ts&#45;&gt;app/shared/in&#45;memory&#45;api/types.ts -->
<g id="edge37" class="edge">
<title>app/shared/state/users&#45;query.service.ts&#45;&gt;app/shared/in&#45;memory&#45;api/types.ts</title>
<path fill="none" stroke="#757575" d="M1754.16,-303.06C1780.99,-325.77 1844.92,-375.57 1909,-393.5 1919.91,-396.55 2539.19,-394.53 2593,-392.5 2709.22,-388.12 2743.84,-410.81 2854,-373.5 2906.45,-355.74 2958.42,-315.57 2986.08,-291.9"/>
<polygon fill="#757575" stroke="#757575" points="2988.61,-294.33 2993.85,-285.13 2984.01,-289.05 2988.61,-294.33"/>
</g>
<!-- app/shared/state/progress/progress.query.ts -->
<g id="node23" class="node">
<title>app/shared/state/progress/progress.query.ts</title>
<path fill="none" stroke="#c6c5fe" d="M2204.33,-384C2204.33,-384 1921.67,-384 1921.67,-384 1917.83,-384 1914,-380.17 1914,-376.33 1914,-376.33 1914,-368.67 1914,-368.67 1914,-364.83 1917.83,-361 1921.67,-361 1921.67,-361 2204.33,-361 2204.33,-361 2208.17,-361 2212,-364.83 2212,-368.67 2212,-368.67 2212,-376.33 2212,-376.33 2212,-380.17 2208.17,-384 2204.33,-384"/>
<text text-anchor="middle" x="2063" y="-368.8" font-family="Arial" font-size="14.00" fill="#c6c5fe">app/shared/state/progress/progress.query.ts</text>
</g>
<!-- app/shared/state/users&#45;query.service.ts&#45;&gt;app/shared/state/progress/progress.query.ts -->
<g id="edge39" class="edge">
<title>app/shared/state/users&#45;query.service.ts&#45;&gt;app/shared/state/progress/progress.query.ts</title>
<path fill="none" stroke="#757575" d="M1767.21,-303.05C1799.81,-316.94 1857.45,-339.93 1909,-352.5 1919.46,-355.05 1930.41,-357.29 1941.43,-359.26"/>
<polygon fill="#757575" stroke="#757575" points="1941.12,-362.76 1951.57,-360.99 1942.3,-355.86 1941.12,-362.76"/>
</g>
<!-- app/shared/state/progress/progress.service.ts -->
<g id="node25" class="node">
<title>app/shared/state/progress/progress.service.ts</title>
<path fill="none" stroke="#c6c5fe" d="M2209.33,-343C2209.33,-343 1916.67,-343 1916.67,-343 1912.83,-343 1909,-339.17 1909,-335.33 1909,-335.33 1909,-327.67 1909,-327.67 1909,-323.83 1912.83,-320 1916.67,-320 1916.67,-320 2209.33,-320 2209.33,-320 2213.17,-320 2217,-323.83 2217,-327.67 2217,-327.67 2217,-335.33 2217,-335.33 2217,-339.17 2213.17,-343 2209.33,-343"/>
<text text-anchor="middle" x="2063" y="-327.8" font-family="Arial" font-size="14.00" fill="#c6c5fe">app/shared/state/progress/progress.service.ts</text>
</g>
<!-- app/shared/state/users&#45;query.service.ts&#45;&gt;app/shared/state/progress/progress.service.ts -->
<g id="edge40" class="edge">
<title>app/shared/state/users&#45;query.service.ts&#45;&gt;app/shared/state/progress/progress.service.ts</title>
<path fill="none" stroke="#757575" d="M1833.42,-303.02C1872.86,-307.93 1919.03,-313.68 1959.52,-318.73"/>
<polygon fill="#757575" stroke="#757575" points="1959.32,-322.23 1969.68,-320 1960.19,-315.29 1959.32,-322.23"/>
</g>
<!-- app/shared/state/users/users.query.ts -->
<g id="node27" class="node">
<title>app/shared/state/users/users.query.ts</title>
<path fill="none" stroke="#c6c5fe" d="M2182.33,-263C2182.33,-263 1943.67,-263 1943.67,-263 1939.83,-263 1936,-259.17 1936,-255.33 1936,-255.33 1936,-247.67 1936,-247.67 1936,-243.83 1939.83,-240 1943.67,-240 1943.67,-240 2182.33,-240 2182.33,-240 2186.17,-240 2190,-243.83 2190,-247.67 2190,-247.67 2190,-255.33 2190,-255.33 2190,-259.17 2186.17,-263 2182.33,-263"/>
<text text-anchor="middle" x="2063" y="-247.8" font-family="Arial" font-size="14.00" fill="#c6c5fe">app/shared/state/users/users.query.ts</text>
</g>
<!-- app/shared/state/users&#45;query.service.ts&#45;&gt;app/shared/state/users/users.query.ts -->
<g id="edge41" class="edge">
<title>app/shared/state/users&#45;query.service.ts&#45;&gt;app/shared/state/users/users.query.ts</title>
<path fill="none" stroke="#757575" d="M1833.42,-279.98C1872.86,-275.07 1919.03,-269.32 1959.52,-264.27"/>
<polygon fill="#757575" stroke="#757575" points="1960.19,-267.71 1969.68,-263 1959.32,-260.77 1960.19,-267.71"/>
</g>
<!-- app/pages/user&#45;table/user&#45;table&#45;routing.module.ts&#45;&gt;app/pages/user&#45;table/user&#45;table.component.ts -->
<g id="edge15" class="edge">
<title>app/pages/user&#45;table/user&#45;table&#45;routing.module.ts&#45;&gt;app/pages/user&#45;table/user&#45;table.component.ts</title>
<path fill="none" stroke="#757575" d="M1227.09,-171.5C1235.64,-171.5 1244.22,-171.5 1252.76,-171.5"/>
<polygon fill="#757575" stroke="#757575" points="1252.76,-175 1262.76,-171.5 1252.76,-168 1252.76,-175"/>
</g>
<!-- app/pages/user&#45;table/user&#45;table.component.ts&#45;&gt;app/shared/state/filters.ts -->
<g id="edge16" class="edge">
<title>app/pages/user&#45;table/user&#45;table.component.ts&#45;&gt;app/shared/state/filters.ts</title>
<path fill="none" stroke="#757575" d="M1571.17,-182.19C1583.29,-182.99 1595.35,-183.77 1607,-184.5 1730.3,-192.26 1872.46,-200.23 1964.61,-205.26"/>
<polygon fill="#757575" stroke="#757575" points="1964.58,-208.77 1974.76,-205.82 1964.96,-201.78 1964.58,-208.77"/>
</g>
<!-- app/pages/user&#45;table/user&#45;table.component.ts&#45;&gt;app/shared/state/users&#45;query.service.ts -->
<g id="edge17" class="edge">
<title>app/pages/user&#45;table/user&#45;table.component.ts&#45;&gt;app/shared/state/users&#45;query.service.ts</title>
<path fill="none" stroke="#757575" d="M1448.78,-183.01C1506.99,-204.77 1633.2,-251.95 1698.31,-276.29"/>
<polygon fill="#757575" stroke="#757575" points="1697.25,-279.63 1707.84,-279.85 1699.7,-273.07 1697.25,-279.63"/>
</g>
<!-- app/shared/state/users/users.service.ts -->
<g id="node15" class="node">
<title>app/shared/state/users/users.service.ts</title>
<path fill="none" stroke="#c6c5fe" d="M2187.83,-142C2187.83,-142 1938.17,-142 1938.17,-142 1934.33,-142 1930.5,-138.17 1930.5,-134.33 1930.5,-134.33 1930.5,-126.67 1930.5,-126.67 1930.5,-122.83 1934.33,-119 1938.17,-119 1938.17,-119 2187.83,-119 2187.83,-119 2191.67,-119 2195.5,-122.83 2195.5,-126.67 2195.5,-126.67 2195.5,-134.33 2195.5,-134.33 2195.5,-138.17 2191.67,-142 2187.83,-142"/>
<text text-anchor="middle" x="2063" y="-126.8" font-family="Arial" font-size="14.00" fill="#c6c5fe">app/shared/state/users/users.service.ts</text>
</g>
<!-- app/pages/user&#45;table/user&#45;table.component.ts&#45;&gt;app/shared/state/users/users.service.ts -->
<g id="edge18" class="edge">
<title>app/pages/user&#45;table/user&#45;table.component.ts&#45;&gt;app/shared/state/users/users.service.ts</title>
<path fill="none" stroke="#757575" d="M1558.6,-160C1574.91,-158.76 1591.32,-157.57 1607,-156.5 1711.7,-149.35 1830.05,-142.63 1919.8,-137.82"/>
<polygon fill="#757575" stroke="#757575" points="1920.25,-141.3 1930.05,-137.27 1919.87,-134.31 1920.25,-141.3"/>
</g>
<!-- app/pages/user&#45;table/user&#45;table.component.ts&#45;&gt;app/shared/state/users/users.store.ts -->
<g id="edge19" class="edge">
<title>app/pages/user&#45;table/user&#45;table.component.ts&#45;&gt;app/shared/state/users/users.store.ts</title>
<path fill="none" stroke="#757575" d="M1571.31,-171.81C1732.27,-172.91 1992.63,-176.91 2217,-190.5 2246.98,-192.32 2279.36,-195.09 2309.34,-198.01"/>
<polygon fill="#757575" stroke="#757575" points="2309.11,-201.5 2319.4,-199 2309.8,-194.54 2309.11,-201.5"/>
</g>
<!-- app/shared/state/users/users.service.ts&#45;&gt;app/shared/state/users/users.store.ts -->
<g id="edge46" class="edge">
<title>app/shared/state/users/users.service.ts&#45;&gt;app/shared/state/users/users.store.ts</title>
<path fill="none" stroke="#757575" d="M2140.13,-142.06C2164.75,-146.17 2192.11,-151.12 2217,-156.5 2270.67,-168.1 2331.41,-184.52 2372.75,-196.21"/>
<polygon fill="#757575" stroke="#757575" points="2371.99,-199.63 2382.57,-198.99 2373.91,-192.89 2371.99,-199.63"/>
</g>
<!-- app/shared/in&#45;memory&#45;api/in&#45;memory&#45;api.service.ts -->
<g id="node20" class="node">
<title>app/shared/in&#45;memory&#45;api/in&#45;memory&#45;api.service.ts</title>
<path fill="none" stroke="#c6c5fe" d="M2585.33,-284C2585.33,-284 2260.67,-284 2260.67,-284 2256.83,-284 2253,-280.17 2253,-276.33 2253,-276.33 2253,-268.67 2253,-268.67 2253,-264.83 2256.83,-261 2260.67,-261 2260.67,-261 2585.33,-261 2585.33,-261 2589.17,-261 2593,-264.83 2593,-268.67 2593,-268.67 2593,-276.33 2593,-276.33 2593,-280.17 2589.17,-284 2585.33,-284"/>
<text text-anchor="middle" x="2423" y="-268.8" font-family="Arial" font-size="14.00" fill="#c6c5fe">app/shared/in&#45;memory&#45;api/in&#45;memory&#45;api.service.ts</text>
</g>
<!-- app/shared/state/users/users.service.ts&#45;&gt;app/shared/in&#45;memory&#45;api/in&#45;memory&#45;api.service.ts -->
<g id="edge44" class="edge">
<title>app/shared/state/users/users.service.ts&#45;&gt;app/shared/in&#45;memory&#45;api/in&#45;memory&#45;api.service.ts</title>
<path fill="none" stroke="#757575" d="M2109.29,-142.06C2141.31,-151.65 2184.19,-167.47 2217,-190.5 2236.85,-204.43 2232.25,-218.95 2253,-231.5 2273.46,-243.88 2297.43,-252.52 2320.78,-258.55"/>
<polygon fill="#757575" stroke="#757575" points="2320.19,-262.01 2330.74,-260.98 2321.85,-255.21 2320.19,-262.01"/>
</g>
<!-- app/shared/state/users/users.service.ts&#45;&gt;app/shared/in&#45;memory&#45;api/types.ts -->
<g id="edge45" class="edge">
<title>app/shared/state/users/users.service.ts&#45;&gt;app/shared/in&#45;memory&#45;api/types.ts</title>
<path fill="none" stroke="#757575" d="M2165.04,-118.99C2318.39,-105.19 2617.11,-92.82 2854,-171.5 2907.14,-189.15 2959.22,-230.67 2986.63,-254.94"/>
<polygon fill="#757575" stroke="#757575" points="2984.55,-257.78 2994.32,-261.88 2989.24,-252.58 2984.55,-257.78"/>
</g>
<!-- app/shared/state/users/users.store.ts&#45;&gt;app/shared/in&#45;memory&#45;api/types.ts -->
<g id="edge47" class="edge">
<title>app/shared/state/users/users.store.ts&#45;&gt;app/shared/in&#45;memory&#45;api/types.ts</title>
<path fill="none" stroke="#757575" d="M2476.25,-198.95C2558.16,-182.91 2721.14,-159.4 2854,-192.5 2903.3,-204.78 2954.16,-236.3 2982.91,-256.2"/>
<polygon fill="#757575" stroke="#757575" points="2980.9,-259.07 2991.09,-261.97 2984.93,-253.35 2980.9,-259.07"/>
</g>
<!-- app/shared/state/types.ts -->
<g id="node26" class="node">
<title>app/shared/state/types.ts</title>
<path fill="none" stroke="#c6c5fe" d="M2821.83,-224C2821.83,-224 2661.17,-224 2661.17,-224 2657.33,-224 2653.5,-220.17 2653.5,-216.33 2653.5,-216.33 2653.5,-208.67 2653.5,-208.67 2653.5,-204.83 2657.33,-201 2661.17,-201 2661.17,-201 2821.83,-201 2821.83,-201 2825.67,-201 2829.5,-204.83 2829.5,-208.67 2829.5,-208.67 2829.5,-216.33 2829.5,-216.33 2829.5,-220.17 2825.67,-224 2821.83,-224"/>
<text text-anchor="middle" x="2741.5" y="-208.8" font-family="Arial" font-size="14.00" fill="#c6c5fe">app/shared/state/types.ts</text>
</g>
<!-- app/shared/state/users/users.store.ts&#45;&gt;app/shared/state/types.ts -->
<g id="edge48" class="edge">
<title>app/shared/state/users/users.store.ts&#45;&gt;app/shared/state/types.ts</title>
<path fill="none" stroke="#757575" d="M2548.63,-211.29C2579.89,-211.49 2612.98,-211.69 2642.72,-211.88"/>
<polygon fill="#757575" stroke="#757575" points="2643.07,-215.38 2653.09,-211.95 2643.12,-208.38 2643.07,-215.38"/>
</g>
<!-- app/pages/welcome/welcome&#45;routing.module.ts&#45;&gt;app/pages/welcome/welcome.component.ts -->
<g id="edge23" class="edge">
<title>app/pages/welcome/welcome&#45;routing.module.ts&#45;&gt;app/pages/welcome/welcome.component.ts</title>
<path fill="none" stroke="#757575" d="M1221.15,-20.48C1233.68,-21.18 1246.33,-21.9 1258.85,-22.61"/>
<polygon fill="#757575" stroke="#757575" points="1258.67,-26.1 1268.86,-23.17 1259.07,-19.12 1258.67,-26.1"/>
</g>
<!-- app/shared/in&#45;memory&#45;api/in&#45;memory&#45;api.service.ts&#45;&gt;app/shared/in&#45;memory&#45;api/types.ts -->
<g id="edge26" class="edge">
<title>app/shared/in&#45;memory&#45;api/in&#45;memory&#45;api.service.ts&#45;&gt;app/shared/in&#45;memory&#45;api/types.ts</title>
<path fill="none" stroke="#757575" d="M2593.2,-274.28C2605.31,-274.37 2617.34,-274.44 2629,-274.5 2729,-274.99 2754,-274.83 2854,-274.5 2862.37,-274.47 2871,-274.44 2879.7,-274.39"/>
<polygon fill="#757575" stroke="#757575" points="2879.95,-277.89 2889.93,-274.34 2879.92,-270.89 2879.95,-277.89"/>
</g>
<!-- app/shared/in&#45;memory&#45;api/utils.ts -->
<g id="node22" class="node">
<title>app/shared/in&#45;memory&#45;api/utils.ts</title>
<path fill="none" stroke="#c6c5fe" d="M2846.33,-265C2846.33,-265 2636.67,-265 2636.67,-265 2632.83,-265 2629,-261.17 2629,-257.33 2629,-257.33 2629,-249.67 2629,-249.67 2629,-245.83 2632.83,-242 2636.67,-242 2636.67,-242 2846.33,-242 2846.33,-242 2850.17,-242 2854,-245.83 2854,-249.67 2854,-249.67 2854,-257.33 2854,-257.33 2854,-261.17 2850.17,-265 2846.33,-265"/>
<text text-anchor="middle" x="2741.5" y="-249.8" font-family="Arial" font-size="14.00" fill="#c6c5fe">app/shared/in&#45;memory&#45;api/utils.ts</text>
</g>
<!-- app/shared/in&#45;memory&#45;api/in&#45;memory&#45;api.service.ts&#45;&gt;app/shared/in&#45;memory&#45;api/utils.ts -->
<g id="edge27" class="edge">
<title>app/shared/in&#45;memory&#45;api/in&#45;memory&#45;api.service.ts&#45;&gt;app/shared/in&#45;memory&#45;api/utils.ts</title>
<path fill="none" stroke="#757575" d="M2593.37,-262.33C2601.94,-261.82 2610.46,-261.31 2618.84,-260.8"/>
<polygon fill="#757575" stroke="#757575" points="2619.21,-264.29 2628.98,-260.19 2618.79,-257.3 2619.21,-264.29"/>
</g>
<!-- app/shared/in&#45;memory&#45;api/utils.ts&#45;&gt;app/shared/in&#45;memory&#45;api/types.ts -->
<g id="edge28" class="edge">
<title>app/shared/in&#45;memory&#45;api/utils.ts&#45;&gt;app/shared/in&#45;memory&#45;api/types.ts</title>
<path fill="none" stroke="#757575" d="M2854.08,-261.95C2862.57,-262.6 2871.19,-263.25 2879.77,-263.9"/>
<polygon fill="#757575" stroke="#757575" points="2879.58,-267.4 2889.82,-264.66 2880.11,-260.42 2879.58,-267.4"/>
</g>
<!-- app/shared/state/progress/progress.store.ts -->
<g id="node24" class="node">
<title>app/shared/state/progress/progress.store.ts</title>
<path fill="none" stroke="#c6c5fe" d="M2562.83,-383C2562.83,-383 2283.17,-383 2283.17,-383 2279.33,-383 2275.5,-379.17 2275.5,-375.33 2275.5,-375.33 2275.5,-367.67 2275.5,-367.67 2275.5,-363.83 2279.33,-360 2283.17,-360 2283.17,-360 2562.83,-360 2562.83,-360 2566.67,-360 2570.5,-363.83 2570.5,-367.67 2570.5,-367.67 2570.5,-375.33 2570.5,-375.33 2570.5,-379.17 2566.67,-383 2562.83,-383"/>
<text text-anchor="middle" x="2423" y="-367.8" font-family="Arial" font-size="14.00" fill="#c6c5fe">app/shared/state/progress/progress.store.ts</text>
</g>
<!-- app/shared/state/progress/progress.query.ts&#45;&gt;app/shared/state/progress/progress.store.ts -->
<g id="edge31" class="edge">
<title>app/shared/state/progress/progress.query.ts&#45;&gt;app/shared/state/progress/progress.store.ts</title>
<path fill="none" stroke="#757575" d="M2212.2,-372.09C2229.64,-372.04 2247.49,-371.99 2265.05,-371.94"/>
<polygon fill="#757575" stroke="#757575" points="2265.37,-375.44 2275.36,-371.91 2265.35,-368.44 2265.37,-375.44"/>
</g>
<!-- app/shared/state/progress/progress.store.ts&#45;&gt;app/shared/in&#45;memory&#45;api/types.ts -->
<g id="edge35" class="edge">
<title>app/shared/state/progress/progress.store.ts&#45;&gt;app/shared/in&#45;memory&#45;api/types.ts</title>
<path fill="none" stroke="#757575" d="M2570.93,-376.3C2655.02,-375.68 2761.81,-369.11 2854,-345.5 2900.32,-333.63 2949.61,-307.6 2979.23,-290.31"/>
<polygon fill="#757575" stroke="#757575" points="2981.31,-293.15 2988.12,-285.03 2977.73,-287.13 2981.31,-293.15"/>
</g>
<!-- app/shared/state/progress/progress.service.ts&#45;&gt;app/shared/in&#45;memory&#45;api/in&#45;memory&#45;api.service.ts -->
<g id="edge32" class="edge">
<title>app/shared/state/progress/progress.service.ts&#45;&gt;app/shared/in&#45;memory&#45;api/in&#45;memory&#45;api.service.ts</title>
<path fill="none" stroke="#757575" d="M2133.88,-319.98C2193.53,-310.15 2279.34,-296.01 2341.79,-285.72"/>
<polygon fill="#757575" stroke="#757575" points="2342.7,-289.12 2352,-284.04 2341.56,-282.21 2342.7,-289.12"/>
</g>
<!-- app/shared/state/progress/progress.service.ts&#45;&gt;app/shared/in&#45;memory&#45;api/types.ts -->
<g id="edge33" class="edge">
<title>app/shared/state/progress/progress.service.ts&#45;&gt;app/shared/in&#45;memory&#45;api/types.ts</title>
<path fill="none" stroke="#757575" d="M2217.05,-325.15C2376.3,-318.08 2632.81,-305.39 2854,-288.5 2864.15,-287.72 2874.68,-286.85 2885.23,-285.91"/>
<polygon fill="#757575" stroke="#757575" points="2885.71,-289.38 2895.36,-285 2885.08,-282.41 2885.71,-289.38"/>
</g>
<!-- app/shared/state/progress/progress.service.ts&#45;&gt;app/shared/state/progress/progress.store.ts -->
<g id="edge34" class="edge">
<title>app/shared/state/progress/progress.service.ts&#45;&gt;app/shared/state/progress/progress.store.ts</title>
<path fill="none" stroke="#757575" d="M2167.07,-343.02C2211.43,-347.97 2263.43,-353.78 2308.85,-358.86"/>
<polygon fill="#757575" stroke="#757575" points="2308.71,-362.36 2319.04,-360 2309.49,-355.41 2308.71,-362.36"/>
</g>
<!-- app/shared/state/types.ts&#45;&gt;app/shared/in&#45;memory&#45;api/types.ts -->
<g id="edge36" class="edge">
<title>app/shared/state/types.ts&#45;&gt;app/shared/in&#45;memory&#45;api/types.ts</title>
<path fill="none" stroke="#757575" d="M2807.81,-224C2823.01,-226.9 2839.11,-230.15 2854,-233.5 2888.19,-241.19 2926.32,-251.2 2955.9,-259.27"/>
<polygon fill="#757575" stroke="#757575" points="2955.02,-262.66 2965.59,-261.93 2956.87,-255.91 2955.02,-262.66"/>
</g>
<!-- app/shared/state/users/users.query.ts&#45;&gt;app/shared/state/users/users.store.ts -->
<g id="edge43" class="edge">
<title>app/shared/state/users/users.query.ts&#45;&gt;app/shared/state/users/users.store.ts</title>
<path fill="none" stroke="#757575" d="M2164.68,-239.97C2210.34,-234.74 2264.47,-228.54 2311.28,-223.18"/>
<polygon fill="#757575" stroke="#757575" points="2311.92,-226.63 2321.46,-222.01 2311.13,-219.67 2311.92,-226.63"/>
</g>
<!-- main.ts -->
<g id="node28" class="node">
<title>main.ts</title>
<path fill="none" stroke="#c6c5fe" d="M54.33,-153C54.33,-153 7.67,-153 7.67,-153 3.83,-153 0,-149.17 0,-145.33 0,-145.33 0,-137.67 0,-137.67 0,-133.83 3.83,-130 7.67,-130 7.67,-130 54.33,-130 54.33,-130 58.17,-130 62,-133.83 62,-137.67 62,-137.67 62,-145.33 62,-145.33 62,-149.17 58.17,-153 54.33,-153"/>
<text text-anchor="middle" x="31" y="-137.8" font-family="Arial" font-size="14.00" fill="#c6c5fe">main.ts</text>
</g>
<!-- main.ts&#45;&gt;app/app.module.ts -->
<g id="edge49" class="edge">
<title>main.ts&#45;&gt;app/app.module.ts</title>
<path fill="none" stroke="#757575" d="M62.28,-152.97C80.6,-159.91 104.17,-168.84 124,-176.35"/>
<polygon fill="#757575" stroke="#757575" points="122.81,-179.64 133.4,-179.91 125.29,-173.09 122.81,-179.64"/>
</g>
<!-- main.ts&#45;&gt;environments/environment.ts -->
<g id="edge50" class="edge">
<title>main.ts&#45;&gt;environments/environment.ts</title>
<path fill="none" stroke="#757575" d="M62.18,-136.97C110.48,-129.73 206.91,-115.28 278.14,-104.6"/>
<polygon fill="#757575" stroke="#757575" points="279.09,-107.99 288.46,-103.05 278.05,-101.07 279.09,-107.99"/>
</g>
</g>
</svg>
